G04 #@! TF.GenerationSoftware,KiCad,Pcbnew,8.0.7*
G04 #@! TF.CreationDate,2025-01-28T00:38:19+01:00*
G04 #@! TF.ProjectId,CustomTemperatureController,43757374-6f6d-4546-956d-706572617475,rev?*
G04 #@! TF.SameCoordinates,Original*
G04 #@! TF.FileFunction,Profile,NP*
%FSLAX46Y46*%
G04 Gerber Fmt 4.6, Leading zero omitted, Abs format (unit mm)*
G04 Created by KiCad (PCBNEW 8.0.7) date 2025-01-28 00:38:19*
%MOMM*%
%LPD*%
G01*
G04 APERTURE LIST*
G04 #@! TA.AperFunction,Profile*
%ADD10C,0.050000*%
G04 #@! TD*
G04 APERTURE END LIST*
D10*
X138600000Y-146000000D02*
G75*
G02*
X135400000Y-146000000I-1600000J0D01*
G01*
X135400000Y-146000000D02*
G75*
G02*
X138600000Y-146000000I1600000J0D01*
G01*
X84600000Y-146000000D02*
G75*
G02*
X81400000Y-146000000I-1600000J0D01*
G01*
X81400000Y-146000000D02*
G75*
G02*
X84600000Y-146000000I1600000J0D01*
G01*
X84600000Y-60000000D02*
G75*
G02*
X81400000Y-60000000I-1600000J0D01*
G01*
X81400000Y-60000000D02*
G75*
G02*
X84600000Y-60000000I1600000J0D01*
G01*
X138600000Y-60000000D02*
G75*
G02*
X135400000Y-60000000I-1600000J0D01*
G01*
X135400000Y-60000000D02*
G75*
G02*
X138600000Y-60000000I1600000J0D01*
G01*
X127889000Y-122682000D02*
X127889000Y-117856000D01*
X133731000Y-116078000D02*
X135509000Y-117856000D01*
X133223000Y-117221000D02*
X134112000Y-118110000D01*
X134112000Y-122682000D02*
X134112000Y-118110000D01*
X135509000Y-122682000D02*
X135509000Y-117856000D01*
X133731000Y-116078000D02*
X129667000Y-116078000D01*
X130175000Y-117221000D02*
X129286000Y-118110000D01*
X135509000Y-122682000D02*
X134112000Y-122682000D01*
X129286000Y-118110000D02*
X129286000Y-122682000D01*
X129286000Y-122682000D02*
X127889000Y-122682000D01*
X133223000Y-117221000D02*
X130175000Y-117221000D01*
X127889000Y-117856000D02*
X129667000Y-116078000D01*
X112014000Y-117856000D02*
X113792000Y-116078000D01*
X117856000Y-116078000D02*
X113792000Y-116078000D01*
X117856000Y-116078000D02*
X119634000Y-117856000D01*
X119634000Y-122682000D02*
X118237000Y-122682000D01*
X117348000Y-117221000D02*
X118237000Y-118110000D01*
X118237000Y-122682000D02*
X118237000Y-118110000D01*
X119634000Y-122682000D02*
X119634000Y-117856000D01*
X112014000Y-122682000D02*
X112014000Y-117856000D01*
X113411000Y-122682000D02*
X112014000Y-122682000D01*
X113411000Y-118110000D02*
X113411000Y-122682000D01*
X114300000Y-117221000D02*
X113411000Y-118110000D01*
X117348000Y-117221000D02*
X114300000Y-117221000D01*
X141000000Y-56000000D02*
X79000000Y-56000000D01*
X79000000Y-150000000D02*
X141000000Y-150000000D01*
X141000000Y-150000000D02*
X141000000Y-56000000D01*
X79000000Y-56000000D02*
X79000000Y-150000000D01*
M02*
