M48
; DRILL file {KiCad 8.0.7} date 2025-01-28T00:24:02+0100
; FORMAT={-:-/ absolute / metric / decimal}
; #@! TF.CreationDate,2025-01-28T00:24:02+01:00
; #@! TF.GenerationSoftware,Kicad,Pcbnew,8.0.7
; #@! TF.FileFunction,Plated,1,2,PTH
FMAT,2
METRIC
; #@! TA.AperFunction,Plated,PTH,ViaDrill
T1C0.300
; #@! TA.AperFunction,Plated,PTH,ComponentDrill
T2C0.600
; #@! TA.AperFunction,Plated,PTH,ComponentDrill
T3C0.750
; #@! TA.AperFunction,Plated,PTH,ComponentDrill
T4C0.800
; #@! TA.AperFunction,Plated,PTH,ComponentDrill
T5C0.900
; #@! TA.AperFunction,Plated,PTH,ComponentDrill
T6C1.000
; #@! TA.AperFunction,Plated,PTH,ComponentDrill
T7C1.100
; #@! TA.AperFunction,Plated,PTH,ComponentDrill
T8C1.200
; #@! TA.AperFunction,Plated,PTH,ComponentDrill
T9C1.300
; #@! TA.AperFunction,Plated,PTH,ComponentDrill
T10C1.500
; #@! TA.AperFunction,Plated,PTH,ComponentDrill
T11C2.100
%
G90
G05
T1
X80.264Y-89.916
X80.5Y-57.0
X80.5Y-63.0
X81.28Y-112.268
X81.28Y-117.0
X81.788Y-92.456
X83.0Y-66.0
X84.328Y-96.012
X85.0Y-63.0
X85.979Y-102.997
X86.36Y-96.012
X87.376Y-101.6
X87.737Y-63.555
X87.884Y-74.168
X87.884Y-77.724
X87.884Y-80.264
X88.9Y-105.41
X88.9Y-110.49
X88.9Y-117.0
X89.413Y-88.344
X89.769Y-63.555
X90.0Y-58.0
X90.0Y-90.0
X90.0Y-95.0
X90.424Y-71.628
X90.424Y-76.2
X91.44Y-101.6
X91.445Y-81.462
X91.75Y-66.294
X92.456Y-96.012
X92.964Y-74.168
X93.0Y-65.0
X93.472Y-99.568
X93.5Y-63.0
X93.5Y-90.5
X93.807Y-66.629
X93.98Y-78.232
X95.0Y-58.0
X95.047Y-87.579
X95.25Y-105.41
X95.25Y-110.49
X95.25Y-114.3
X95.758Y-86.36
X96.012Y-96.012
X96.644Y-71.265
X96.647Y-73.406
X97.028Y-76.2
X97.79Y-86.36
X98.552Y-101.6
X99.568Y-78.74
X99.827Y-62.992
X99.954Y-86.034
X100.0Y-58.0
X100.584Y-96.012
X100.584Y-99.568
X101.6Y-105.41
X101.6Y-110.49
X101.6Y-114.3
X102.0Y-118.5
X102.108Y-66.548
X102.108Y-101.6
X103.937Y-69.723
X104.902Y-88.138
X104.902Y-90.932
X105.0Y-58.0
X105.029Y-96.012
X105.156Y-74.676
X105.5Y-122.0
X105.537Y-96.647
X105.664Y-79.502
X106.68Y-101.6
X106.934Y-88.138
X106.934Y-90.932
X107.95Y-79.502
X107.95Y-116.84
X108.0Y-76.0
X108.712Y-106.172
X109.292Y-70.524
X109.728Y-77.024
X109.728Y-79.186
X110.0Y-58.0
X110.236Y-83.058
X110.49Y-94.488
X110.998Y-88.646
X110.998Y-103.697
X111.0Y-110.0
X111.5Y-116.5
X112.268Y-79.756
X112.5Y-74.5
X112.776Y-93.98
X113.28Y-70.524
X113.792Y-106.172
X114.046Y-91.186
X114.3Y-114.3
X115.0Y-58.0
X115.824Y-79.756
X115.824Y-83.058
X116.826Y-87.39
X117.348Y-65.278
X117.348Y-67.564
X117.348Y-69.596
X117.348Y-109.728
X117.602Y-89.916
X118.364Y-88.138
X118.364Y-102.997
X119.0Y-94.0
X119.38Y-75.692
X119.888Y-102.616
X120.0Y-58.0
X120.0Y-62.0
X120.0Y-106.38
X121.158Y-87.884
X121.158Y-91.44
X121.366Y-72.665
X121.412Y-85.09
X122.281Y-72.665
X122.363Y-80.58
X122.872Y-117.03
X123.5Y-85.852
X123.825Y-119.507
X123.952Y-75.467
X123.952Y-108.204
X123.957Y-72.233
X124.0Y-88.5
X124.0Y-91.186
X124.101Y-65.109
X124.46Y-117.094
X125.0Y-58.0
X125.0Y-62.0
X125.625Y-67.873
X125.625Y-80.623
X125.984Y-83.82
X126.238Y-112.141
X126.441Y-92.558
X126.731Y-68.793
X126.746Y-88.392
X127.0Y-107.696
X127.132Y-73.504
X127.254Y-76.454
X127.254Y-91.186
X127.53Y-64.855
X129.159Y-114.681
X129.54Y-103.632
X130.0Y-58.0
X130.832Y-64.221
X130.912Y-104.953
X131.572Y-109.22
X131.721Y-67.892
X131.721Y-69.192
X131.953Y-72.898
X132.08Y-78.74
X132.5Y-81.788
X133.858Y-75.438
X134.62Y-112.776
X135.89Y-80.01
X136.144Y-104.14
X136.144Y-107.696
X138.049Y-116.459
X138.303Y-113.538
X139.0Y-89.746
X139.192Y-114.935
X139.446Y-76.2
X139.5Y-62.5
X139.954Y-65.786
X139.954Y-68.58
X139.954Y-71.12
X139.954Y-73.66
T3
X119.786Y-115.0
X121.056Y-115.0
X122.326Y-115.0
X135.636Y-115.0
X136.906Y-115.0
X138.176Y-115.0
T4
X81.213Y-130.496
X83.013Y-122.996
X110.322Y-139.486
X117.822Y-141.286
X126.262Y-139.49
X133.762Y-141.29
T5
X109.474Y-114.5
X117.094Y-114.5
X124.968Y-114.5
X132.588Y-114.5
T6
X81.915Y-97.414
X81.915Y-99.954
X81.915Y-102.494
X81.915Y-105.034
X81.915Y-107.574
X88.806Y-99.698
X89.18Y-61.142
X91.72Y-61.142
X93.806Y-128.778
X94.26Y-61.142
X96.8Y-61.142
X98.806Y-128.778
X103.806Y-99.698
X104.925Y-61.151
X104.925Y-65.651
X107.465Y-61.151
X107.465Y-65.651
X109.784Y-121.272
X110.005Y-61.151
X110.005Y-65.651
X112.545Y-61.151
X112.545Y-65.651
X115.085Y-61.151
X115.085Y-65.651
X121.784Y-121.272
X125.714Y-121.275
X137.714Y-121.275
T7
X116.23Y-96.932
X116.23Y-101.432
X122.25Y-105.664
X122.25Y-110.164
X122.73Y-96.932
X122.73Y-101.432
X128.23Y-96.932
X128.23Y-101.432
X128.75Y-105.664
X128.75Y-110.164
X134.73Y-96.932
X134.73Y-101.432
T8
X129.644Y-77.712
X129.644Y-82.212
X129.644Y-86.42
X129.644Y-90.92
X137.144Y-77.062
X137.144Y-82.862
X137.144Y-85.77
X137.144Y-91.57
T9
X109.784Y-133.472
X115.834Y-119.322
X121.834Y-133.522
X125.714Y-133.475
X131.764Y-119.325
X137.764Y-133.525
T10
X82.963Y-137.944
X105.563Y-137.944
T11
X97.124Y-146.812
X103.124Y-146.812
X109.728Y-146.812
X117.856Y-146.812
X125.984Y-146.812
T2
X133.502Y-64.472G85X134.602Y-64.472
G05
X133.502Y-73.112G85X134.602Y-73.112
G05
X137.932Y-64.472G85X138.532Y-64.472
G05
X137.932Y-73.112G85X138.532Y-73.112
G05
M30
