%TF.GenerationSoftware,KiCad,Pcbnew,8.0.7*%
%TF.CreationDate,2025-01-28T00:23:56+01:00*%
%TF.ProjectId,CustomTemperatureController,43757374-6f6d-4546-956d-706572617475,rev?*%
%TF.SameCoordinates,Original*%
%TF.FileFunction,Drillmap*%
%TF.FilePolarity,Positive*%
%FSLAX45Y45*%
G04 Gerber Fmt 4.5, Leading zero omitted, Abs format (unit mm)*
G04 Created by KiCad (PCBNEW 8.0.7) date 2025-01-28 00:23:56*
%MOMM*%
%LPD*%
G01*
G04 APERTURE LIST*
%ADD10C,0.050000*%
%ADD11C,0.200000*%
%ADD12C,0.100000*%
%ADD13C,0.110000*%
%ADD14C,0.120000*%
%ADD15C,0.130000*%
%ADD16C,0.150000*%
%ADD17C,0.210000*%
G04 APERTURE END LIST*
D10*
X13860000Y-14600000D02*
G75*
G02*
X13540000Y-14600000I-160000J0D01*
G01*
X13540000Y-14600000D02*
G75*
G02*
X13860000Y-14600000I160000J0D01*
G01*
X8460000Y-14600000D02*
G75*
G02*
X8140000Y-14600000I-160000J0D01*
G01*
X8140000Y-14600000D02*
G75*
G02*
X8460000Y-14600000I160000J0D01*
G01*
X8460000Y-6000000D02*
G75*
G02*
X8140000Y-6000000I-160000J0D01*
G01*
X8140000Y-6000000D02*
G75*
G02*
X8460000Y-6000000I160000J0D01*
G01*
X13860000Y-6000000D02*
G75*
G02*
X13540000Y-6000000I-160000J0D01*
G01*
X13540000Y-6000000D02*
G75*
G02*
X13860000Y-6000000I160000J0D01*
G01*
X12788900Y-12268200D02*
X12788900Y-11785600D01*
X13373100Y-11607800D02*
X13550900Y-11785600D01*
X13322300Y-11722100D02*
X13411200Y-11811000D01*
X13411200Y-12268200D02*
X13411200Y-11811000D01*
X13550900Y-12268200D02*
X13550900Y-11785600D01*
X13373100Y-11607800D02*
X12966700Y-11607800D01*
X13017500Y-11722100D02*
X12928600Y-11811000D01*
X13550900Y-12268200D02*
X13411200Y-12268200D01*
X12928600Y-11811000D02*
X12928600Y-12268200D01*
X12928600Y-12268200D02*
X12788900Y-12268200D01*
X13322300Y-11722100D02*
X13017500Y-11722100D01*
X12788900Y-11785600D02*
X12966700Y-11607800D01*
X11201400Y-11785600D02*
X11379200Y-11607800D01*
X11785600Y-11607800D02*
X11379200Y-11607800D01*
X11785600Y-11607800D02*
X11963400Y-11785600D01*
X11963400Y-12268200D02*
X11823700Y-12268200D01*
X11734800Y-11722100D02*
X11823700Y-11811000D01*
X11823700Y-12268200D02*
X11823700Y-11811000D01*
X11963400Y-12268200D02*
X11963400Y-11785600D01*
X11201400Y-12268200D02*
X11201400Y-11785600D01*
X11341100Y-12268200D02*
X11201400Y-12268200D01*
X11341100Y-11811000D02*
X11341100Y-12268200D01*
X11430000Y-11722100D02*
X11341100Y-11811000D01*
X11734800Y-11722100D02*
X11430000Y-11722100D01*
X14100000Y-5600000D02*
X7900000Y-5600000D01*
X7900000Y-15000000D02*
X14100000Y-15000000D01*
X14100000Y-15000000D02*
X14100000Y-5600000D01*
X7900000Y-5600000D02*
X7900000Y-15000000D01*
D11*
D12*
X8011400Y-8976600D02*
X8041400Y-9006600D01*
X8041400Y-8976600D02*
X8011400Y-9006600D01*
X8035000Y-5685000D02*
X8065000Y-5715000D01*
X8065000Y-5685000D02*
X8035000Y-5715000D01*
X8035000Y-6285000D02*
X8065000Y-6315000D01*
X8065000Y-6285000D02*
X8035000Y-6315000D01*
X8113000Y-11211800D02*
X8143000Y-11241800D01*
X8143000Y-11211800D02*
X8113000Y-11241800D01*
X8113000Y-11685000D02*
X8143000Y-11715000D01*
X8143000Y-11685000D02*
X8113000Y-11715000D01*
X8163800Y-9230600D02*
X8193800Y-9260600D01*
X8193800Y-9230600D02*
X8163800Y-9260600D01*
X8285000Y-6585000D02*
X8315000Y-6615000D01*
X8315000Y-6585000D02*
X8285000Y-6615000D01*
X8417800Y-9586200D02*
X8447800Y-9616200D01*
X8447800Y-9586200D02*
X8417800Y-9616200D01*
X8485000Y-6285000D02*
X8515000Y-6315000D01*
X8515000Y-6285000D02*
X8485000Y-6315000D01*
X8582900Y-10284700D02*
X8612900Y-10314700D01*
X8612900Y-10284700D02*
X8582900Y-10314700D01*
X8621000Y-9586200D02*
X8651000Y-9616200D01*
X8651000Y-9586200D02*
X8621000Y-9616200D01*
X8722600Y-10145000D02*
X8752600Y-10175000D01*
X8752600Y-10145000D02*
X8722600Y-10175000D01*
X8758660Y-6340550D02*
X8788660Y-6370550D01*
X8788660Y-6340550D02*
X8758660Y-6370550D01*
X8773400Y-7401800D02*
X8803400Y-7431800D01*
X8803400Y-7401800D02*
X8773400Y-7431800D01*
X8773400Y-7757400D02*
X8803400Y-7787400D01*
X8803400Y-7757400D02*
X8773400Y-7787400D01*
X8773400Y-8011400D02*
X8803400Y-8041400D01*
X8803400Y-8011400D02*
X8773400Y-8041400D01*
X8875000Y-10526000D02*
X8905000Y-10556000D01*
X8905000Y-10526000D02*
X8875000Y-10556000D01*
X8875000Y-11034000D02*
X8905000Y-11064000D01*
X8905000Y-11034000D02*
X8875000Y-11064000D01*
X8875000Y-11685000D02*
X8905000Y-11715000D01*
X8905000Y-11685000D02*
X8875000Y-11715000D01*
X8926300Y-8819400D02*
X8956300Y-8849400D01*
X8956300Y-8819400D02*
X8926300Y-8849400D01*
X8961860Y-6340550D02*
X8991860Y-6370550D01*
X8991860Y-6340550D02*
X8961860Y-6370550D01*
X8985000Y-5785000D02*
X9015000Y-5815000D01*
X9015000Y-5785000D02*
X8985000Y-5815000D01*
X8985000Y-8985000D02*
X9015000Y-9015000D01*
X9015000Y-8985000D02*
X8985000Y-9015000D01*
X8985000Y-9485000D02*
X9015000Y-9515000D01*
X9015000Y-9485000D02*
X8985000Y-9515000D01*
X9027400Y-7147800D02*
X9057400Y-7177800D01*
X9057400Y-7147800D02*
X9027400Y-7177800D01*
X9027400Y-7605000D02*
X9057400Y-7635000D01*
X9057400Y-7605000D02*
X9027400Y-7635000D01*
X9129000Y-10145000D02*
X9159000Y-10175000D01*
X9159000Y-10145000D02*
X9129000Y-10175000D01*
X9129500Y-8131250D02*
X9159500Y-8161250D01*
X9159500Y-8131250D02*
X9129500Y-8161250D01*
X9159980Y-6614400D02*
X9189980Y-6644400D01*
X9189980Y-6614400D02*
X9159980Y-6644400D01*
X9230600Y-9586200D02*
X9260600Y-9616200D01*
X9260600Y-9586200D02*
X9230600Y-9616200D01*
X9281400Y-7401800D02*
X9311400Y-7431800D01*
X9311400Y-7401800D02*
X9281400Y-7431800D01*
X9285000Y-6485000D02*
X9315000Y-6515000D01*
X9315000Y-6485000D02*
X9285000Y-6515000D01*
X9332200Y-9941800D02*
X9362200Y-9971800D01*
X9362200Y-9941800D02*
X9332200Y-9971800D01*
X9335000Y-6285000D02*
X9365000Y-6315000D01*
X9365000Y-6285000D02*
X9335000Y-6315000D01*
X9335000Y-9035000D02*
X9365000Y-9065000D01*
X9365000Y-9035000D02*
X9335000Y-9065000D01*
X9365720Y-6647890D02*
X9395720Y-6677890D01*
X9395720Y-6647890D02*
X9365720Y-6677890D01*
X9383000Y-7808200D02*
X9413000Y-7838200D01*
X9413000Y-7808200D02*
X9383000Y-7838200D01*
X9485000Y-5785000D02*
X9515000Y-5815000D01*
X9515000Y-5785000D02*
X9485000Y-5815000D01*
X9489680Y-8742920D02*
X9519680Y-8772920D01*
X9519680Y-8742920D02*
X9489680Y-8772920D01*
X9510000Y-10526000D02*
X9540000Y-10556000D01*
X9540000Y-10526000D02*
X9510000Y-10556000D01*
X9510000Y-11034000D02*
X9540000Y-11064000D01*
X9540000Y-11034000D02*
X9510000Y-11064000D01*
X9510000Y-11415000D02*
X9540000Y-11445000D01*
X9540000Y-11415000D02*
X9510000Y-11445000D01*
X9560800Y-8621000D02*
X9590800Y-8651000D01*
X9590800Y-8621000D02*
X9560800Y-8651000D01*
X9586200Y-9586200D02*
X9616200Y-9616200D01*
X9616200Y-9586200D02*
X9586200Y-9616200D01*
X9649393Y-7111530D02*
X9679393Y-7141530D01*
X9679393Y-7111530D02*
X9649393Y-7141530D01*
X9649700Y-7325600D02*
X9679700Y-7355600D01*
X9679700Y-7325600D02*
X9649700Y-7355600D01*
X9687800Y-7605000D02*
X9717800Y-7635000D01*
X9717800Y-7605000D02*
X9687800Y-7635000D01*
X9764000Y-8621000D02*
X9794000Y-8651000D01*
X9794000Y-8621000D02*
X9764000Y-8651000D01*
X9840200Y-10145000D02*
X9870200Y-10175000D01*
X9870200Y-10145000D02*
X9840200Y-10175000D01*
X9941800Y-7859000D02*
X9971800Y-7889000D01*
X9971800Y-7859000D02*
X9941800Y-7889000D01*
X9967700Y-6284200D02*
X9997700Y-6314200D01*
X9997700Y-6284200D02*
X9967700Y-6314200D01*
X9980400Y-8588450D02*
X10010400Y-8618450D01*
X10010400Y-8588450D02*
X9980400Y-8618450D01*
X9985000Y-5785000D02*
X10015000Y-5815000D01*
X10015000Y-5785000D02*
X9985000Y-5815000D01*
X10043400Y-9586200D02*
X10073400Y-9616200D01*
X10073400Y-9586200D02*
X10043400Y-9616200D01*
X10043400Y-9941800D02*
X10073400Y-9971800D01*
X10073400Y-9941800D02*
X10043400Y-9971800D01*
X10145000Y-10526000D02*
X10175000Y-10556000D01*
X10175000Y-10526000D02*
X10145000Y-10556000D01*
X10145000Y-11034000D02*
X10175000Y-11064000D01*
X10175000Y-11034000D02*
X10145000Y-11064000D01*
X10145000Y-11415000D02*
X10175000Y-11445000D01*
X10175000Y-11415000D02*
X10145000Y-11445000D01*
X10185000Y-11835000D02*
X10215000Y-11865000D01*
X10215000Y-11835000D02*
X10185000Y-11865000D01*
X10195800Y-6639800D02*
X10225800Y-6669800D01*
X10225800Y-6639800D02*
X10195800Y-6669800D01*
X10195800Y-10145000D02*
X10225800Y-10175000D01*
X10225800Y-10145000D02*
X10195800Y-10175000D01*
X10378680Y-6957300D02*
X10408680Y-6987300D01*
X10408680Y-6957300D02*
X10378680Y-6987300D01*
X10475200Y-8798800D02*
X10505200Y-8828800D01*
X10505200Y-8798800D02*
X10475200Y-8828800D01*
X10475200Y-9078200D02*
X10505200Y-9108200D01*
X10505200Y-9078200D02*
X10475200Y-9108200D01*
X10485000Y-5785000D02*
X10515000Y-5815000D01*
X10515000Y-5785000D02*
X10485000Y-5815000D01*
X10487900Y-9586200D02*
X10517900Y-9616200D01*
X10517900Y-9586200D02*
X10487900Y-9616200D01*
X10500600Y-7452600D02*
X10530600Y-7482600D01*
X10530600Y-7452600D02*
X10500600Y-7482600D01*
X10535000Y-12185000D02*
X10565000Y-12215000D01*
X10565000Y-12185000D02*
X10535000Y-12215000D01*
X10538700Y-9649700D02*
X10568700Y-9679700D01*
X10568700Y-9649700D02*
X10538700Y-9679700D01*
X10551400Y-7935200D02*
X10581400Y-7965200D01*
X10581400Y-7935200D02*
X10551400Y-7965200D01*
X10653000Y-10145000D02*
X10683000Y-10175000D01*
X10683000Y-10145000D02*
X10653000Y-10175000D01*
X10678400Y-8798800D02*
X10708400Y-8828800D01*
X10708400Y-8798800D02*
X10678400Y-8828800D01*
X10678400Y-9078200D02*
X10708400Y-9108200D01*
X10708400Y-9078200D02*
X10678400Y-9108200D01*
X10780000Y-7935200D02*
X10810000Y-7965200D01*
X10810000Y-7935200D02*
X10780000Y-7965200D01*
X10780000Y-11669000D02*
X10810000Y-11699000D01*
X10810000Y-11669000D02*
X10780000Y-11699000D01*
X10785000Y-7585000D02*
X10815000Y-7615000D01*
X10815000Y-7585000D02*
X10785000Y-7615000D01*
X10856200Y-10602200D02*
X10886200Y-10632200D01*
X10886200Y-10602200D02*
X10856200Y-10632200D01*
X10914220Y-7037380D02*
X10944220Y-7067380D01*
X10944220Y-7037380D02*
X10914220Y-7067380D01*
X10957800Y-7687400D02*
X10987800Y-7717400D01*
X10987800Y-7687400D02*
X10957800Y-7717400D01*
X10957800Y-7903600D02*
X10987800Y-7933600D01*
X10987800Y-7903600D02*
X10957800Y-7933600D01*
X10985000Y-5785000D02*
X11015000Y-5815000D01*
X11015000Y-5785000D02*
X10985000Y-5815000D01*
X11008600Y-8290800D02*
X11038600Y-8320800D01*
X11038600Y-8290800D02*
X11008600Y-8320800D01*
X11034000Y-9433800D02*
X11064000Y-9463800D01*
X11064000Y-9433800D02*
X11034000Y-9463800D01*
X11084800Y-8849600D02*
X11114800Y-8879600D01*
X11114800Y-8849600D02*
X11084800Y-8879600D01*
X11084800Y-10354700D02*
X11114800Y-10384700D01*
X11114800Y-10354700D02*
X11084800Y-10384700D01*
X11085000Y-10985000D02*
X11115000Y-11015000D01*
X11115000Y-10985000D02*
X11085000Y-11015000D01*
X11135000Y-11635000D02*
X11165000Y-11665000D01*
X11165000Y-11635000D02*
X11135000Y-11665000D01*
X11211800Y-7960600D02*
X11241800Y-7990600D01*
X11241800Y-7960600D02*
X11211800Y-7990600D01*
X11235000Y-7435000D02*
X11265000Y-7465000D01*
X11265000Y-7435000D02*
X11235000Y-7465000D01*
X11262600Y-9383000D02*
X11292600Y-9413000D01*
X11292600Y-9383000D02*
X11262600Y-9413000D01*
X11313000Y-7037380D02*
X11343000Y-7067380D01*
X11343000Y-7037380D02*
X11313000Y-7067380D01*
X11364200Y-10602200D02*
X11394200Y-10632200D01*
X11394200Y-10602200D02*
X11364200Y-10632200D01*
X11389600Y-9103600D02*
X11419600Y-9133600D01*
X11419600Y-9103600D02*
X11389600Y-9133600D01*
X11415000Y-11415000D02*
X11445000Y-11445000D01*
X11445000Y-11415000D02*
X11415000Y-11445000D01*
X11485000Y-5785000D02*
X11515000Y-5815000D01*
X11515000Y-5785000D02*
X11485000Y-5815000D01*
X11567400Y-7960600D02*
X11597400Y-7990600D01*
X11597400Y-7960600D02*
X11567400Y-7990600D01*
X11567400Y-8290800D02*
X11597400Y-8320800D01*
X11597400Y-8290800D02*
X11567400Y-8320800D01*
X11667600Y-8724000D02*
X11697600Y-8754000D01*
X11697600Y-8724000D02*
X11667600Y-8754000D01*
X11719800Y-6512800D02*
X11749800Y-6542800D01*
X11749800Y-6512800D02*
X11719800Y-6542800D01*
X11719800Y-6741400D02*
X11749800Y-6771400D01*
X11749800Y-6741400D02*
X11719800Y-6771400D01*
X11719800Y-6944600D02*
X11749800Y-6974600D01*
X11749800Y-6944600D02*
X11719800Y-6974600D01*
X11719800Y-10957800D02*
X11749800Y-10987800D01*
X11749800Y-10957800D02*
X11719800Y-10987800D01*
X11745200Y-8976600D02*
X11775200Y-9006600D01*
X11775200Y-8976600D02*
X11745200Y-9006600D01*
X11821400Y-8798800D02*
X11851400Y-8828800D01*
X11851400Y-8798800D02*
X11821400Y-8828800D01*
X11821400Y-10284700D02*
X11851400Y-10314700D01*
X11851400Y-10284700D02*
X11821400Y-10314700D01*
X11885000Y-9385000D02*
X11915000Y-9415000D01*
X11915000Y-9385000D02*
X11885000Y-9415000D01*
X11923000Y-7554200D02*
X11953000Y-7584200D01*
X11953000Y-7554200D02*
X11923000Y-7584200D01*
X11973800Y-10246600D02*
X12003800Y-10276600D01*
X12003800Y-10246600D02*
X11973800Y-10276600D01*
X11985000Y-5785000D02*
X12015000Y-5815000D01*
X12015000Y-5785000D02*
X11985000Y-5815000D01*
X11985000Y-6185000D02*
X12015000Y-6215000D01*
X12015000Y-6185000D02*
X11985000Y-6215000D01*
X11985000Y-10623000D02*
X12015000Y-10653000D01*
X12015000Y-10623000D02*
X11985000Y-10653000D01*
X12100800Y-8773400D02*
X12130800Y-8803400D01*
X12130800Y-8773400D02*
X12100800Y-8803400D01*
X12100800Y-9129000D02*
X12130800Y-9159000D01*
X12130800Y-9129000D02*
X12100800Y-9159000D01*
X12121620Y-7251530D02*
X12151620Y-7281530D01*
X12151620Y-7251530D02*
X12121620Y-7281530D01*
X12126200Y-8494000D02*
X12156200Y-8524000D01*
X12156200Y-8494000D02*
X12126200Y-8524000D01*
X12213060Y-7251530D02*
X12243060Y-7281530D01*
X12243060Y-7251530D02*
X12213060Y-7281530D01*
X12221310Y-8043010D02*
X12251310Y-8073010D01*
X12251310Y-8043010D02*
X12221310Y-8073010D01*
X12272250Y-11688050D02*
X12302250Y-11718050D01*
X12302250Y-11688050D02*
X12272250Y-11718050D01*
X12335000Y-8570200D02*
X12365000Y-8600200D01*
X12365000Y-8570200D02*
X12335000Y-8600200D01*
X12367500Y-11935700D02*
X12397500Y-11965700D01*
X12397500Y-11935700D02*
X12367500Y-11965700D01*
X12380200Y-7531680D02*
X12410200Y-7561680D01*
X12410200Y-7531680D02*
X12380200Y-7561680D01*
X12380200Y-10805400D02*
X12410200Y-10835400D01*
X12410200Y-10805400D02*
X12380200Y-10835400D01*
X12380700Y-7208350D02*
X12410700Y-7238350D01*
X12410700Y-7208350D02*
X12380700Y-7238350D01*
X12385000Y-8835000D02*
X12415000Y-8865000D01*
X12415000Y-8835000D02*
X12385000Y-8865000D01*
X12385000Y-9103600D02*
X12415000Y-9133600D01*
X12415000Y-9103600D02*
X12385000Y-9133600D01*
X12395080Y-6495950D02*
X12425080Y-6525950D01*
X12425080Y-6495950D02*
X12395080Y-6525950D01*
X12431000Y-11694400D02*
X12461000Y-11724400D01*
X12461000Y-11694400D02*
X12431000Y-11724400D01*
X12485000Y-5785000D02*
X12515000Y-5815000D01*
X12515000Y-5785000D02*
X12485000Y-5815000D01*
X12485000Y-6185000D02*
X12515000Y-6215000D01*
X12515000Y-6185000D02*
X12485000Y-6215000D01*
X12547480Y-6772250D02*
X12577480Y-6802250D01*
X12577480Y-6772250D02*
X12547480Y-6802250D01*
X12547480Y-8047320D02*
X12577480Y-8077320D01*
X12577480Y-8047320D02*
X12547480Y-8077320D01*
X12583400Y-8367000D02*
X12613400Y-8397000D01*
X12613400Y-8367000D02*
X12583400Y-8397000D01*
X12608800Y-11199100D02*
X12638800Y-11229100D01*
X12638800Y-11199100D02*
X12608800Y-11229100D01*
X12629120Y-9240760D02*
X12659120Y-9270760D01*
X12659120Y-9240760D02*
X12629120Y-9270760D01*
X12658104Y-6864250D02*
X12688104Y-6894250D01*
X12688104Y-6864250D02*
X12658104Y-6894250D01*
X12659600Y-8824200D02*
X12689600Y-8854200D01*
X12689600Y-8824200D02*
X12659600Y-8854200D01*
X12685000Y-10754600D02*
X12715000Y-10784600D01*
X12715000Y-10754600D02*
X12685000Y-10784600D01*
X12698200Y-7335350D02*
X12728200Y-7365350D01*
X12728200Y-7335350D02*
X12698200Y-7365350D01*
X12710400Y-7630400D02*
X12740400Y-7660400D01*
X12740400Y-7630400D02*
X12710400Y-7660400D01*
X12710400Y-9103600D02*
X12740400Y-9133600D01*
X12740400Y-9103600D02*
X12710400Y-9133600D01*
X12737980Y-6470550D02*
X12767980Y-6500550D01*
X12767980Y-6470550D02*
X12737980Y-6500550D01*
X12900900Y-11453100D02*
X12930900Y-11483100D01*
X12930900Y-11453100D02*
X12900900Y-11483100D01*
X12939000Y-10348200D02*
X12969000Y-10378200D01*
X12969000Y-10348200D02*
X12939000Y-10378200D01*
X12985000Y-5785000D02*
X13015000Y-5815000D01*
X13015000Y-5785000D02*
X12985000Y-5815000D01*
X13068180Y-6407050D02*
X13098180Y-6437050D01*
X13098180Y-6407050D02*
X13068180Y-6437050D01*
X13076160Y-10480280D02*
X13106160Y-10510280D01*
X13106160Y-10480280D02*
X13076160Y-10510280D01*
X13142200Y-10907000D02*
X13172200Y-10937000D01*
X13172200Y-10907000D02*
X13142200Y-10937000D01*
X13157080Y-6774250D02*
X13187080Y-6804250D01*
X13187080Y-6774250D02*
X13157080Y-6804250D01*
X13157080Y-6904250D02*
X13187080Y-6934250D01*
X13187080Y-6904250D02*
X13157080Y-6934250D01*
X13180300Y-7274800D02*
X13210300Y-7304800D01*
X13210300Y-7274800D02*
X13180300Y-7304800D01*
X13193000Y-7859000D02*
X13223000Y-7889000D01*
X13223000Y-7859000D02*
X13193000Y-7889000D01*
X13235000Y-8163800D02*
X13265000Y-8193800D01*
X13265000Y-8163800D02*
X13235000Y-8193800D01*
X13370800Y-7528800D02*
X13400800Y-7558800D01*
X13400800Y-7528800D02*
X13370800Y-7558800D01*
X13447000Y-11262600D02*
X13477000Y-11292600D01*
X13477000Y-11262600D02*
X13447000Y-11292600D01*
X13574000Y-7986000D02*
X13604000Y-8016000D01*
X13604000Y-7986000D02*
X13574000Y-8016000D01*
X13599400Y-10399000D02*
X13629400Y-10429000D01*
X13629400Y-10399000D02*
X13599400Y-10429000D01*
X13599400Y-10754600D02*
X13629400Y-10784600D01*
X13629400Y-10754600D02*
X13599400Y-10784600D01*
X13789900Y-11630900D02*
X13819900Y-11660900D01*
X13819900Y-11630900D02*
X13789900Y-11660900D01*
X13815300Y-11338800D02*
X13845300Y-11368800D01*
X13845300Y-11338800D02*
X13815300Y-11368800D01*
X13885000Y-8959650D02*
X13915000Y-8989650D01*
X13915000Y-8959650D02*
X13885000Y-8989650D01*
X13904200Y-11478500D02*
X13934200Y-11508500D01*
X13934200Y-11478500D02*
X13904200Y-11508500D01*
X13929600Y-7605000D02*
X13959600Y-7635000D01*
X13959600Y-7605000D02*
X13929600Y-7635000D01*
X13935000Y-6235000D02*
X13965000Y-6265000D01*
X13965000Y-6235000D02*
X13935000Y-6265000D01*
X13980400Y-6563600D02*
X14010400Y-6593600D01*
X14010400Y-6563600D02*
X13980400Y-6593600D01*
X13980400Y-6843000D02*
X14010400Y-6873000D01*
X14010400Y-6843000D02*
X13980400Y-6873000D01*
X13980400Y-7097000D02*
X14010400Y-7127000D01*
X14010400Y-7097000D02*
X13980400Y-7127000D01*
X13980400Y-7351000D02*
X14010400Y-7381000D01*
X14010400Y-7351000D02*
X13980400Y-7381000D01*
X13435180Y-6447250D02*
G75*
G02*
X13375180Y-6447250I-30000J0D01*
G01*
X13375180Y-6447250D02*
G75*
G02*
X13435180Y-6447250I30000J0D01*
G01*
X13350180Y-6477250D02*
X13460180Y-6477250D01*
X13460180Y-6417250D02*
G75*
G02*
X13460180Y-6477250I0J-30000D01*
G01*
X13460180Y-6417250D02*
X13350180Y-6417250D01*
X13350180Y-6417250D02*
G75*
G03*
X13350180Y-6477250I0J-30000D01*
G01*
X13435180Y-7311250D02*
G75*
G02*
X13375180Y-7311250I-30000J0D01*
G01*
X13375180Y-7311250D02*
G75*
G02*
X13435180Y-7311250I30000J0D01*
G01*
X13350180Y-7341250D02*
X13460180Y-7341250D01*
X13460180Y-7281250D02*
G75*
G02*
X13460180Y-7341250I0J-30000D01*
G01*
X13460180Y-7281250D02*
X13350180Y-7281250D01*
X13350180Y-7281250D02*
G75*
G03*
X13350180Y-7341250I0J-30000D01*
G01*
X13853180Y-6447250D02*
G75*
G02*
X13793180Y-6447250I-30000J0D01*
G01*
X13793180Y-6447250D02*
G75*
G02*
X13853180Y-6447250I30000J0D01*
G01*
X13793180Y-6477250D02*
X13853180Y-6477250D01*
X13853180Y-6417250D02*
G75*
G02*
X13853180Y-6477250I0J-30000D01*
G01*
X13853180Y-6417250D02*
X13793180Y-6417250D01*
X13793180Y-6417250D02*
G75*
G03*
X13793180Y-6477250I0J-30000D01*
G01*
X13853180Y-7311250D02*
G75*
G02*
X13793180Y-7311250I-30000J0D01*
G01*
X13793180Y-7311250D02*
G75*
G02*
X13853180Y-7311250I30000J0D01*
G01*
X13793180Y-7341250D02*
X13853180Y-7341250D01*
X13853180Y-7281250D02*
G75*
G02*
X13853180Y-7341250I0J-30000D01*
G01*
X13853180Y-7281250D02*
X13793180Y-7281250D01*
X13793180Y-7281250D02*
G75*
G03*
X13793180Y-7341250I0J-30000D01*
G01*
X11978640Y-11462500D02*
X11978640Y-11537500D01*
X11941140Y-11500000D02*
X12016140Y-11500000D01*
X12105640Y-11462500D02*
X12105640Y-11537500D01*
X12068140Y-11500000D02*
X12143140Y-11500000D01*
X12232640Y-11462500D02*
X12232640Y-11537500D01*
X12195140Y-11500000D02*
X12270140Y-11500000D01*
X13563600Y-11462500D02*
X13563600Y-11537500D01*
X13526100Y-11500000D02*
X13601100Y-11500000D01*
X13690600Y-11462500D02*
X13690600Y-11537500D01*
X13653100Y-11500000D02*
X13728100Y-11500000D01*
X13817600Y-11462500D02*
X13817600Y-11537500D01*
X13780100Y-11500000D02*
X13855100Y-11500000D01*
X8149634Y-13077884D02*
X8149634Y-13021315D01*
X8093065Y-13021315D01*
X8093065Y-13077884D01*
X8149634Y-13077884D01*
X8329634Y-12327884D02*
X8329634Y-12271315D01*
X8273065Y-12271315D01*
X8273065Y-12327884D01*
X8329634Y-12327884D01*
X11060445Y-13976924D02*
X11060445Y-13920355D01*
X11003876Y-13920355D01*
X11003876Y-13976924D01*
X11060445Y-13976924D01*
X11810444Y-14156924D02*
X11810444Y-14100355D01*
X11753875Y-14100355D01*
X11753875Y-14156924D01*
X11810444Y-14156924D01*
X12654524Y-13977264D02*
X12654524Y-13920695D01*
X12597955Y-13920695D01*
X12597955Y-13977264D01*
X12654524Y-13977264D01*
X13404524Y-14157264D02*
X13404524Y-14100695D01*
X13347955Y-14100695D01*
X13347955Y-14157264D01*
X13404524Y-14157264D01*
X10947400Y-11495000D02*
X10992400Y-11450000D01*
X10947400Y-11405000D01*
X10902400Y-11450000D01*
X10947400Y-11495000D01*
X11709400Y-11495000D02*
X11754400Y-11450000D01*
X11709400Y-11405000D01*
X11664400Y-11450000D01*
X11709400Y-11495000D01*
X12496800Y-11495000D02*
X12541800Y-11450000D01*
X12496800Y-11405000D01*
X12451800Y-11450000D01*
X12496800Y-11495000D01*
X13258800Y-11495000D02*
X13303800Y-11450000D01*
X13258800Y-11405000D01*
X13213800Y-11450000D01*
X13258800Y-11495000D01*
X8141500Y-9691400D02*
X8241500Y-9791400D01*
X8241500Y-9691400D02*
X8141500Y-9791400D01*
X8241500Y-9741400D02*
G75*
G02*
X8141500Y-9741400I-50000J0D01*
G01*
X8141500Y-9741400D02*
G75*
G02*
X8241500Y-9741400I50000J0D01*
G01*
X8141500Y-9945400D02*
X8241500Y-10045400D01*
X8241500Y-9945400D02*
X8141500Y-10045400D01*
X8241500Y-9995400D02*
G75*
G02*
X8141500Y-9995400I-50000J0D01*
G01*
X8141500Y-9995400D02*
G75*
G02*
X8241500Y-9995400I50000J0D01*
G01*
X8141500Y-10199400D02*
X8241500Y-10299400D01*
X8241500Y-10199400D02*
X8141500Y-10299400D01*
X8241500Y-10249400D02*
G75*
G02*
X8141500Y-10249400I-50000J0D01*
G01*
X8141500Y-10249400D02*
G75*
G02*
X8241500Y-10249400I50000J0D01*
G01*
X8141500Y-10453400D02*
X8241500Y-10553400D01*
X8241500Y-10453400D02*
X8141500Y-10553400D01*
X8241500Y-10503400D02*
G75*
G02*
X8141500Y-10503400I-50000J0D01*
G01*
X8141500Y-10503400D02*
G75*
G02*
X8241500Y-10503400I50000J0D01*
G01*
X8141500Y-10707400D02*
X8241500Y-10807400D01*
X8241500Y-10707400D02*
X8141500Y-10807400D01*
X8241500Y-10757400D02*
G75*
G02*
X8141500Y-10757400I-50000J0D01*
G01*
X8141500Y-10757400D02*
G75*
G02*
X8241500Y-10757400I50000J0D01*
G01*
X8830600Y-9919800D02*
X8930600Y-10019800D01*
X8930600Y-9919800D02*
X8830600Y-10019800D01*
X8930600Y-9969800D02*
G75*
G02*
X8830600Y-9969800I-50000J0D01*
G01*
X8830600Y-9969800D02*
G75*
G02*
X8930600Y-9969800I50000J0D01*
G01*
X8868000Y-6064250D02*
X8968000Y-6164250D01*
X8968000Y-6064250D02*
X8868000Y-6164250D01*
X8968000Y-6114250D02*
G75*
G02*
X8868000Y-6114250I-50000J0D01*
G01*
X8868000Y-6114250D02*
G75*
G02*
X8968000Y-6114250I50000J0D01*
G01*
X9122000Y-6064250D02*
X9222000Y-6164250D01*
X9222000Y-6064250D02*
X9122000Y-6164250D01*
X9222000Y-6114250D02*
G75*
G02*
X9122000Y-6114250I-50000J0D01*
G01*
X9122000Y-6114250D02*
G75*
G02*
X9222000Y-6114250I50000J0D01*
G01*
X9330600Y-12827800D02*
X9430600Y-12927800D01*
X9430600Y-12827800D02*
X9330600Y-12927800D01*
X9430600Y-12877800D02*
G75*
G02*
X9330600Y-12877800I-50000J0D01*
G01*
X9330600Y-12877800D02*
G75*
G02*
X9430600Y-12877800I50000J0D01*
G01*
X9376000Y-6064250D02*
X9476000Y-6164250D01*
X9476000Y-6064250D02*
X9376000Y-6164250D01*
X9476000Y-6114250D02*
G75*
G02*
X9376000Y-6114250I-50000J0D01*
G01*
X9376000Y-6114250D02*
G75*
G02*
X9476000Y-6114250I50000J0D01*
G01*
X9630000Y-6064250D02*
X9730000Y-6164250D01*
X9730000Y-6064250D02*
X9630000Y-6164250D01*
X9730000Y-6114250D02*
G75*
G02*
X9630000Y-6114250I-50000J0D01*
G01*
X9630000Y-6114250D02*
G75*
G02*
X9730000Y-6114250I50000J0D01*
G01*
X9830600Y-12827800D02*
X9930600Y-12927800D01*
X9930600Y-12827800D02*
X9830600Y-12927800D01*
X9930600Y-12877800D02*
G75*
G02*
X9830600Y-12877800I-50000J0D01*
G01*
X9830600Y-12877800D02*
G75*
G02*
X9930600Y-12877800I50000J0D01*
G01*
X10330600Y-9919800D02*
X10430600Y-10019800D01*
X10430600Y-9919800D02*
X10330600Y-10019800D01*
X10430600Y-9969800D02*
G75*
G02*
X10330600Y-9969800I-50000J0D01*
G01*
X10330600Y-9969800D02*
G75*
G02*
X10430600Y-9969800I50000J0D01*
G01*
X10442500Y-6065150D02*
X10542500Y-6165150D01*
X10542500Y-6065150D02*
X10442500Y-6165150D01*
X10542500Y-6115150D02*
G75*
G02*
X10442500Y-6115150I-50000J0D01*
G01*
X10442500Y-6115150D02*
G75*
G02*
X10542500Y-6115150I50000J0D01*
G01*
X10442500Y-6515150D02*
X10542500Y-6615150D01*
X10542500Y-6515150D02*
X10442500Y-6615150D01*
X10542500Y-6565150D02*
G75*
G02*
X10442500Y-6565150I-50000J0D01*
G01*
X10442500Y-6565150D02*
G75*
G02*
X10542500Y-6565150I50000J0D01*
G01*
X10696500Y-6065150D02*
X10796500Y-6165150D01*
X10796500Y-6065150D02*
X10696500Y-6165150D01*
X10796500Y-6115150D02*
G75*
G02*
X10696500Y-6115150I-50000J0D01*
G01*
X10696500Y-6115150D02*
G75*
G02*
X10796500Y-6115150I50000J0D01*
G01*
X10696500Y-6515150D02*
X10796500Y-6615150D01*
X10796500Y-6515150D02*
X10696500Y-6615150D01*
X10796500Y-6565150D02*
G75*
G02*
X10696500Y-6565150I-50000J0D01*
G01*
X10696500Y-6565150D02*
G75*
G02*
X10796500Y-6565150I50000J0D01*
G01*
X10928400Y-12077200D02*
X11028400Y-12177200D01*
X11028400Y-12077200D02*
X10928400Y-12177200D01*
X11028400Y-12127200D02*
G75*
G02*
X10928400Y-12127200I-50000J0D01*
G01*
X10928400Y-12127200D02*
G75*
G02*
X11028400Y-12127200I50000J0D01*
G01*
X10950500Y-6065150D02*
X11050500Y-6165150D01*
X11050500Y-6065150D02*
X10950500Y-6165150D01*
X11050500Y-6115150D02*
G75*
G02*
X10950500Y-6115150I-50000J0D01*
G01*
X10950500Y-6115150D02*
G75*
G02*
X11050500Y-6115150I50000J0D01*
G01*
X10950500Y-6515150D02*
X11050500Y-6615150D01*
X11050500Y-6515150D02*
X10950500Y-6615150D01*
X11050500Y-6565150D02*
G75*
G02*
X10950500Y-6565150I-50000J0D01*
G01*
X10950500Y-6565150D02*
G75*
G02*
X11050500Y-6565150I50000J0D01*
G01*
X11204500Y-6065150D02*
X11304500Y-6165150D01*
X11304500Y-6065150D02*
X11204500Y-6165150D01*
X11304500Y-6115150D02*
G75*
G02*
X11204500Y-6115150I-50000J0D01*
G01*
X11204500Y-6115150D02*
G75*
G02*
X11304500Y-6115150I50000J0D01*
G01*
X11204500Y-6515150D02*
X11304500Y-6615150D01*
X11304500Y-6515150D02*
X11204500Y-6615150D01*
X11304500Y-6565150D02*
G75*
G02*
X11204500Y-6565150I-50000J0D01*
G01*
X11204500Y-6565150D02*
G75*
G02*
X11304500Y-6565150I50000J0D01*
G01*
X11458500Y-6065150D02*
X11558500Y-6165150D01*
X11558500Y-6065150D02*
X11458500Y-6165150D01*
X11558500Y-6115150D02*
G75*
G02*
X11458500Y-6115150I-50000J0D01*
G01*
X11458500Y-6115150D02*
G75*
G02*
X11558500Y-6115150I50000J0D01*
G01*
X11458500Y-6515150D02*
X11558500Y-6615150D01*
X11558500Y-6515150D02*
X11458500Y-6615150D01*
X11558500Y-6565150D02*
G75*
G02*
X11458500Y-6565150I-50000J0D01*
G01*
X11458500Y-6565150D02*
G75*
G02*
X11558500Y-6565150I50000J0D01*
G01*
X12128400Y-12077200D02*
X12228400Y-12177200D01*
X12228400Y-12077200D02*
X12128400Y-12177200D01*
X12228400Y-12127200D02*
G75*
G02*
X12128400Y-12127200I-50000J0D01*
G01*
X12128400Y-12127200D02*
G75*
G02*
X12228400Y-12127200I50000J0D01*
G01*
X12521400Y-12077460D02*
X12621400Y-12177460D01*
X12621400Y-12077460D02*
X12521400Y-12177460D01*
X12621400Y-12127460D02*
G75*
G02*
X12521400Y-12127460I-50000J0D01*
G01*
X12521400Y-12127460D02*
G75*
G02*
X12621400Y-12127460I50000J0D01*
G01*
X13721400Y-12077460D02*
X13821400Y-12177460D01*
X13821400Y-12077460D02*
X13721400Y-12177460D01*
X13821400Y-12127460D02*
G75*
G02*
X13721400Y-12127460I-50000J0D01*
G01*
X13721400Y-12127460D02*
G75*
G02*
X13821400Y-12127460I50000J0D01*
G01*
D13*
X11568000Y-9638200D02*
X11678000Y-9748200D01*
X11678000Y-9638200D02*
X11568000Y-9748200D01*
X11623000Y-9638200D02*
X11623000Y-9748200D01*
X11568000Y-9693200D02*
X11678000Y-9693200D01*
X11568000Y-10088200D02*
X11678000Y-10198200D01*
X11678000Y-10088200D02*
X11568000Y-10198200D01*
X11623000Y-10088200D02*
X11623000Y-10198200D01*
X11568000Y-10143200D02*
X11678000Y-10143200D01*
X12170000Y-10511400D02*
X12280000Y-10621400D01*
X12280000Y-10511400D02*
X12170000Y-10621400D01*
X12225000Y-10511400D02*
X12225000Y-10621400D01*
X12170000Y-10566400D02*
X12280000Y-10566400D01*
X12170000Y-10961400D02*
X12280000Y-11071400D01*
X12280000Y-10961400D02*
X12170000Y-11071400D01*
X12225000Y-10961400D02*
X12225000Y-11071400D01*
X12170000Y-11016400D02*
X12280000Y-11016400D01*
X12218000Y-9638200D02*
X12328000Y-9748200D01*
X12328000Y-9638200D02*
X12218000Y-9748200D01*
X12273000Y-9638200D02*
X12273000Y-9748200D01*
X12218000Y-9693200D02*
X12328000Y-9693200D01*
X12218000Y-10088200D02*
X12328000Y-10198200D01*
X12328000Y-10088200D02*
X12218000Y-10198200D01*
X12273000Y-10088200D02*
X12273000Y-10198200D01*
X12218000Y-10143200D02*
X12328000Y-10143200D01*
X12768000Y-9638200D02*
X12878000Y-9748200D01*
X12878000Y-9638200D02*
X12768000Y-9748200D01*
X12823000Y-9638200D02*
X12823000Y-9748200D01*
X12768000Y-9693200D02*
X12878000Y-9693200D01*
X12768000Y-10088200D02*
X12878000Y-10198200D01*
X12878000Y-10088200D02*
X12768000Y-10198200D01*
X12823000Y-10088200D02*
X12823000Y-10198200D01*
X12768000Y-10143200D02*
X12878000Y-10143200D01*
X12820000Y-10511400D02*
X12930000Y-10621400D01*
X12930000Y-10511400D02*
X12820000Y-10621400D01*
X12875000Y-10511400D02*
X12875000Y-10621400D01*
X12820000Y-10566400D02*
X12930000Y-10566400D01*
X12820000Y-10961400D02*
X12930000Y-11071400D01*
X12930000Y-10961400D02*
X12820000Y-11071400D01*
X12875000Y-10961400D02*
X12875000Y-11071400D01*
X12820000Y-11016400D02*
X12930000Y-11016400D01*
X13418000Y-9638200D02*
X13528000Y-9748200D01*
X13528000Y-9638200D02*
X13418000Y-9748200D01*
X13473000Y-9638200D02*
X13473000Y-9748200D01*
X13418000Y-9693200D02*
X13528000Y-9693200D01*
X13418000Y-10088200D02*
X13528000Y-10198200D01*
X13528000Y-10088200D02*
X13418000Y-10198200D01*
X13473000Y-10088200D02*
X13473000Y-10198200D01*
X13418000Y-10143200D02*
X13528000Y-10143200D01*
D14*
X12904400Y-7711250D02*
X13024400Y-7831250D01*
X13024400Y-7711250D02*
X12904400Y-7831250D01*
X13006827Y-7813677D02*
X13006827Y-7728823D01*
X12921973Y-7728823D01*
X12921973Y-7813677D01*
X13006827Y-7813677D01*
X12904400Y-8161250D02*
X13024400Y-8281250D01*
X13024400Y-8161250D02*
X12904400Y-8281250D01*
X13006827Y-8263677D02*
X13006827Y-8178823D01*
X12921973Y-8178823D01*
X12921973Y-8263677D01*
X13006827Y-8263677D01*
X12904400Y-8582050D02*
X13024400Y-8702050D01*
X13024400Y-8582050D02*
X12904400Y-8702050D01*
X13006827Y-8684477D02*
X13006827Y-8599623D01*
X12921973Y-8599623D01*
X12921973Y-8684477D01*
X13006827Y-8684477D01*
X12904400Y-9032050D02*
X13024400Y-9152050D01*
X13024400Y-9032050D02*
X12904400Y-9152050D01*
X13006827Y-9134477D02*
X13006827Y-9049623D01*
X12921973Y-9049623D01*
X12921973Y-9134477D01*
X13006827Y-9134477D01*
X13654400Y-7646250D02*
X13774400Y-7766250D01*
X13774400Y-7646250D02*
X13654400Y-7766250D01*
X13756827Y-7748677D02*
X13756827Y-7663823D01*
X13671973Y-7663823D01*
X13671973Y-7748677D01*
X13756827Y-7748677D01*
X13654400Y-8226250D02*
X13774400Y-8346250D01*
X13774400Y-8226250D02*
X13654400Y-8346250D01*
X13756827Y-8328677D02*
X13756827Y-8243823D01*
X13671973Y-8243823D01*
X13671973Y-8328677D01*
X13756827Y-8328677D01*
X13654400Y-8517050D02*
X13774400Y-8637050D01*
X13774400Y-8517050D02*
X13654400Y-8637050D01*
X13756827Y-8619477D02*
X13756827Y-8534623D01*
X13671973Y-8534623D01*
X13671973Y-8619477D01*
X13756827Y-8619477D01*
X13654400Y-9097050D02*
X13774400Y-9217050D01*
X13774400Y-9097050D02*
X13654400Y-9217050D01*
X13756827Y-9199477D02*
X13756827Y-9114623D01*
X13671973Y-9114623D01*
X13671973Y-9199477D01*
X13756827Y-9199477D01*
D15*
X10913400Y-13282200D02*
X11043400Y-13412200D01*
X11043400Y-13282200D02*
X10913400Y-13412200D01*
X10978400Y-13412200D02*
X11043400Y-13347200D01*
X10978400Y-13282200D01*
X10913400Y-13347200D01*
X10978400Y-13412200D01*
X11518400Y-11867200D02*
X11648400Y-11997200D01*
X11648400Y-11867200D02*
X11518400Y-11997200D01*
X11583400Y-11997200D02*
X11648400Y-11932200D01*
X11583400Y-11867200D01*
X11518400Y-11932200D01*
X11583400Y-11997200D01*
X12118400Y-13287200D02*
X12248400Y-13417200D01*
X12248400Y-13287200D02*
X12118400Y-13417200D01*
X12183400Y-13417200D02*
X12248400Y-13352200D01*
X12183400Y-13287200D01*
X12118400Y-13352200D01*
X12183400Y-13417200D01*
X12506400Y-13282460D02*
X12636400Y-13412460D01*
X12636400Y-13282460D02*
X12506400Y-13412460D01*
X12571400Y-13412460D02*
X12636400Y-13347460D01*
X12571400Y-13282460D01*
X12506400Y-13347460D01*
X12571400Y-13412460D01*
X13111400Y-11867460D02*
X13241400Y-11997460D01*
X13241400Y-11867460D02*
X13111400Y-11997460D01*
X13176400Y-11997460D02*
X13241400Y-11932460D01*
X13176400Y-11867460D01*
X13111400Y-11932460D01*
X13176400Y-11997460D01*
X13711400Y-13287460D02*
X13841400Y-13417460D01*
X13841400Y-13287460D02*
X13711400Y-13417460D01*
X13776400Y-13417460D02*
X13841400Y-13352460D01*
X13776400Y-13287460D01*
X13711400Y-13352460D01*
X13776400Y-13417460D01*
D16*
X8296350Y-13719400D02*
X8296350Y-13869400D01*
X8221350Y-13794400D02*
X8371350Y-13794400D01*
X8371350Y-13794400D02*
G75*
G02*
X8221350Y-13794400I-75000J0D01*
G01*
X8221350Y-13794400D02*
G75*
G02*
X8371350Y-13794400I75000J0D01*
G01*
X10556350Y-13719400D02*
X10556350Y-13869400D01*
X10481350Y-13794400D02*
X10631350Y-13794400D01*
X10631350Y-13794400D02*
G75*
G02*
X10481350Y-13794400I-75000J0D01*
G01*
X10481350Y-13794400D02*
G75*
G02*
X10631350Y-13794400I75000J0D01*
G01*
D17*
X9786647Y-14755447D02*
X9786647Y-14606953D01*
X9638153Y-14606953D01*
X9638153Y-14755447D01*
X9786647Y-14755447D01*
X9817400Y-14681200D02*
G75*
G02*
X9607400Y-14681200I-105000J0D01*
G01*
X9607400Y-14681200D02*
G75*
G02*
X9817400Y-14681200I105000J0D01*
G01*
X10386647Y-14755447D02*
X10386647Y-14606953D01*
X10238153Y-14606953D01*
X10238153Y-14755447D01*
X10386647Y-14755447D01*
X10417400Y-14681200D02*
G75*
G02*
X10207400Y-14681200I-105000J0D01*
G01*
X10207400Y-14681200D02*
G75*
G02*
X10417400Y-14681200I105000J0D01*
G01*
X11047047Y-14755447D02*
X11047047Y-14606953D01*
X10898553Y-14606953D01*
X10898553Y-14755447D01*
X11047047Y-14755447D01*
X11077800Y-14681200D02*
G75*
G02*
X10867800Y-14681200I-105000J0D01*
G01*
X10867800Y-14681200D02*
G75*
G02*
X11077800Y-14681200I105000J0D01*
G01*
X11859847Y-14755447D02*
X11859847Y-14606953D01*
X11711353Y-14606953D01*
X11711353Y-14755447D01*
X11859847Y-14755447D01*
X11890600Y-14681200D02*
G75*
G02*
X11680600Y-14681200I-105000J0D01*
G01*
X11680600Y-14681200D02*
G75*
G02*
X11890600Y-14681200I105000J0D01*
G01*
X12672647Y-14755447D02*
X12672647Y-14606953D01*
X12524153Y-14606953D01*
X12524153Y-14755447D01*
X12672647Y-14755447D01*
X12703400Y-14681200D02*
G75*
G02*
X12493400Y-14681200I-105000J0D01*
G01*
X12493400Y-14681200D02*
G75*
G02*
X12703400Y-14681200I105000J0D01*
G01*
D11*
X8158277Y-15313984D02*
X8158277Y-15113984D01*
X8158277Y-15113984D02*
X8205896Y-15113984D01*
X8205896Y-15113984D02*
X8234467Y-15123508D01*
X8234467Y-15123508D02*
X8253515Y-15142555D01*
X8253515Y-15142555D02*
X8263039Y-15161603D01*
X8263039Y-15161603D02*
X8272562Y-15199698D01*
X8272562Y-15199698D02*
X8272562Y-15228269D01*
X8272562Y-15228269D02*
X8263039Y-15266365D01*
X8263039Y-15266365D02*
X8253515Y-15285412D01*
X8253515Y-15285412D02*
X8234467Y-15304460D01*
X8234467Y-15304460D02*
X8205896Y-15313984D01*
X8205896Y-15313984D02*
X8158277Y-15313984D01*
X8358277Y-15313984D02*
X8358277Y-15180650D01*
X8358277Y-15218746D02*
X8367801Y-15199698D01*
X8367801Y-15199698D02*
X8377324Y-15190174D01*
X8377324Y-15190174D02*
X8396372Y-15180650D01*
X8396372Y-15180650D02*
X8415420Y-15180650D01*
X8482086Y-15313984D02*
X8482086Y-15180650D01*
X8482086Y-15113984D02*
X8472563Y-15123508D01*
X8472563Y-15123508D02*
X8482086Y-15133031D01*
X8482086Y-15133031D02*
X8491610Y-15123508D01*
X8491610Y-15123508D02*
X8482086Y-15113984D01*
X8482086Y-15113984D02*
X8482086Y-15133031D01*
X8605896Y-15313984D02*
X8586848Y-15304460D01*
X8586848Y-15304460D02*
X8577324Y-15285412D01*
X8577324Y-15285412D02*
X8577324Y-15113984D01*
X8710658Y-15313984D02*
X8691610Y-15304460D01*
X8691610Y-15304460D02*
X8682086Y-15285412D01*
X8682086Y-15285412D02*
X8682086Y-15113984D01*
X8939229Y-15313984D02*
X8939229Y-15113984D01*
X8939229Y-15113984D02*
X9005896Y-15256841D01*
X9005896Y-15256841D02*
X9072563Y-15113984D01*
X9072563Y-15113984D02*
X9072563Y-15313984D01*
X9253515Y-15313984D02*
X9253515Y-15209222D01*
X9253515Y-15209222D02*
X9243991Y-15190174D01*
X9243991Y-15190174D02*
X9224944Y-15180650D01*
X9224944Y-15180650D02*
X9186848Y-15180650D01*
X9186848Y-15180650D02*
X9167801Y-15190174D01*
X9253515Y-15304460D02*
X9234467Y-15313984D01*
X9234467Y-15313984D02*
X9186848Y-15313984D01*
X9186848Y-15313984D02*
X9167801Y-15304460D01*
X9167801Y-15304460D02*
X9158277Y-15285412D01*
X9158277Y-15285412D02*
X9158277Y-15266365D01*
X9158277Y-15266365D02*
X9167801Y-15247317D01*
X9167801Y-15247317D02*
X9186848Y-15237793D01*
X9186848Y-15237793D02*
X9234467Y-15237793D01*
X9234467Y-15237793D02*
X9253515Y-15228269D01*
X9348753Y-15180650D02*
X9348753Y-15380650D01*
X9348753Y-15190174D02*
X9367801Y-15180650D01*
X9367801Y-15180650D02*
X9405896Y-15180650D01*
X9405896Y-15180650D02*
X9424944Y-15190174D01*
X9424944Y-15190174D02*
X9434467Y-15199698D01*
X9434467Y-15199698D02*
X9443991Y-15218746D01*
X9443991Y-15218746D02*
X9443991Y-15275888D01*
X9443991Y-15275888D02*
X9434467Y-15294936D01*
X9434467Y-15294936D02*
X9424944Y-15304460D01*
X9424944Y-15304460D02*
X9405896Y-15313984D01*
X9405896Y-15313984D02*
X9367801Y-15313984D01*
X9367801Y-15313984D02*
X9348753Y-15304460D01*
X9529705Y-15294936D02*
X9539229Y-15304460D01*
X9539229Y-15304460D02*
X9529705Y-15313984D01*
X9529705Y-15313984D02*
X9520182Y-15304460D01*
X9520182Y-15304460D02*
X9529705Y-15294936D01*
X9529705Y-15294936D02*
X9529705Y-15313984D01*
X9529705Y-15190174D02*
X9539229Y-15199698D01*
X9539229Y-15199698D02*
X9529705Y-15209222D01*
X9529705Y-15209222D02*
X9520182Y-15199698D01*
X9520182Y-15199698D02*
X9529705Y-15190174D01*
X9529705Y-15190174D02*
X9529705Y-15209222D01*
D12*
X7867500Y-15627500D02*
X7897500Y-15657500D01*
X7897500Y-15627500D02*
X7867500Y-15657500D01*
D11*
X8196372Y-15533984D02*
X8215420Y-15533984D01*
X8215420Y-15533984D02*
X8234467Y-15543508D01*
X8234467Y-15543508D02*
X8243991Y-15553031D01*
X8243991Y-15553031D02*
X8253515Y-15572079D01*
X8253515Y-15572079D02*
X8263039Y-15610174D01*
X8263039Y-15610174D02*
X8263039Y-15657793D01*
X8263039Y-15657793D02*
X8253515Y-15695888D01*
X8253515Y-15695888D02*
X8243991Y-15714936D01*
X8243991Y-15714936D02*
X8234467Y-15724460D01*
X8234467Y-15724460D02*
X8215420Y-15733984D01*
X8215420Y-15733984D02*
X8196372Y-15733984D01*
X8196372Y-15733984D02*
X8177324Y-15724460D01*
X8177324Y-15724460D02*
X8167801Y-15714936D01*
X8167801Y-15714936D02*
X8158277Y-15695888D01*
X8158277Y-15695888D02*
X8148753Y-15657793D01*
X8148753Y-15657793D02*
X8148753Y-15610174D01*
X8148753Y-15610174D02*
X8158277Y-15572079D01*
X8158277Y-15572079D02*
X8167801Y-15553031D01*
X8167801Y-15553031D02*
X8177324Y-15543508D01*
X8177324Y-15543508D02*
X8196372Y-15533984D01*
X8348753Y-15714936D02*
X8358277Y-15724460D01*
X8358277Y-15724460D02*
X8348753Y-15733984D01*
X8348753Y-15733984D02*
X8339229Y-15724460D01*
X8339229Y-15724460D02*
X8348753Y-15714936D01*
X8348753Y-15714936D02*
X8348753Y-15733984D01*
X8424944Y-15533984D02*
X8548753Y-15533984D01*
X8548753Y-15533984D02*
X8482086Y-15610174D01*
X8482086Y-15610174D02*
X8510658Y-15610174D01*
X8510658Y-15610174D02*
X8529705Y-15619698D01*
X8529705Y-15619698D02*
X8539229Y-15629222D01*
X8539229Y-15629222D02*
X8548753Y-15648269D01*
X8548753Y-15648269D02*
X8548753Y-15695888D01*
X8548753Y-15695888D02*
X8539229Y-15714936D01*
X8539229Y-15714936D02*
X8529705Y-15724460D01*
X8529705Y-15724460D02*
X8510658Y-15733984D01*
X8510658Y-15733984D02*
X8453515Y-15733984D01*
X8453515Y-15733984D02*
X8434467Y-15724460D01*
X8434467Y-15724460D02*
X8424944Y-15714936D01*
X8672563Y-15533984D02*
X8691610Y-15533984D01*
X8691610Y-15533984D02*
X8710658Y-15543508D01*
X8710658Y-15543508D02*
X8720182Y-15553031D01*
X8720182Y-15553031D02*
X8729705Y-15572079D01*
X8729705Y-15572079D02*
X8739229Y-15610174D01*
X8739229Y-15610174D02*
X8739229Y-15657793D01*
X8739229Y-15657793D02*
X8729705Y-15695888D01*
X8729705Y-15695888D02*
X8720182Y-15714936D01*
X8720182Y-15714936D02*
X8710658Y-15724460D01*
X8710658Y-15724460D02*
X8691610Y-15733984D01*
X8691610Y-15733984D02*
X8672563Y-15733984D01*
X8672563Y-15733984D02*
X8653515Y-15724460D01*
X8653515Y-15724460D02*
X8643991Y-15714936D01*
X8643991Y-15714936D02*
X8634467Y-15695888D01*
X8634467Y-15695888D02*
X8624944Y-15657793D01*
X8624944Y-15657793D02*
X8624944Y-15610174D01*
X8624944Y-15610174D02*
X8634467Y-15572079D01*
X8634467Y-15572079D02*
X8643991Y-15553031D01*
X8643991Y-15553031D02*
X8653515Y-15543508D01*
X8653515Y-15543508D02*
X8672563Y-15533984D01*
X8863039Y-15533984D02*
X8882086Y-15533984D01*
X8882086Y-15533984D02*
X8901134Y-15543508D01*
X8901134Y-15543508D02*
X8910658Y-15553031D01*
X8910658Y-15553031D02*
X8920182Y-15572079D01*
X8920182Y-15572079D02*
X8929705Y-15610174D01*
X8929705Y-15610174D02*
X8929705Y-15657793D01*
X8929705Y-15657793D02*
X8920182Y-15695888D01*
X8920182Y-15695888D02*
X8910658Y-15714936D01*
X8910658Y-15714936D02*
X8901134Y-15724460D01*
X8901134Y-15724460D02*
X8882086Y-15733984D01*
X8882086Y-15733984D02*
X8863039Y-15733984D01*
X8863039Y-15733984D02*
X8843991Y-15724460D01*
X8843991Y-15724460D02*
X8834467Y-15714936D01*
X8834467Y-15714936D02*
X8824944Y-15695888D01*
X8824944Y-15695888D02*
X8815420Y-15657793D01*
X8815420Y-15657793D02*
X8815420Y-15610174D01*
X8815420Y-15610174D02*
X8824944Y-15572079D01*
X8824944Y-15572079D02*
X8834467Y-15553031D01*
X8834467Y-15553031D02*
X8843991Y-15543508D01*
X8843991Y-15543508D02*
X8863039Y-15533984D01*
X9015420Y-15733984D02*
X9015420Y-15600650D01*
X9015420Y-15619698D02*
X9024944Y-15610174D01*
X9024944Y-15610174D02*
X9043991Y-15600650D01*
X9043991Y-15600650D02*
X9072563Y-15600650D01*
X9072563Y-15600650D02*
X9091610Y-15610174D01*
X9091610Y-15610174D02*
X9101134Y-15629222D01*
X9101134Y-15629222D02*
X9101134Y-15733984D01*
X9101134Y-15629222D02*
X9110658Y-15610174D01*
X9110658Y-15610174D02*
X9129705Y-15600650D01*
X9129705Y-15600650D02*
X9158277Y-15600650D01*
X9158277Y-15600650D02*
X9177325Y-15610174D01*
X9177325Y-15610174D02*
X9186848Y-15629222D01*
X9186848Y-15629222D02*
X9186848Y-15733984D01*
X9282086Y-15733984D02*
X9282086Y-15600650D01*
X9282086Y-15619698D02*
X9291610Y-15610174D01*
X9291610Y-15610174D02*
X9310658Y-15600650D01*
X9310658Y-15600650D02*
X9339229Y-15600650D01*
X9339229Y-15600650D02*
X9358277Y-15610174D01*
X9358277Y-15610174D02*
X9367801Y-15629222D01*
X9367801Y-15629222D02*
X9367801Y-15733984D01*
X9367801Y-15629222D02*
X9377325Y-15610174D01*
X9377325Y-15610174D02*
X9396372Y-15600650D01*
X9396372Y-15600650D02*
X9424944Y-15600650D01*
X9424944Y-15600650D02*
X9443991Y-15610174D01*
X9443991Y-15610174D02*
X9453515Y-15629222D01*
X9453515Y-15629222D02*
X9453515Y-15733984D01*
X9843991Y-15524460D02*
X9672563Y-15781603D01*
X10101134Y-15533984D02*
X10120182Y-15533984D01*
X10120182Y-15533984D02*
X10139229Y-15543508D01*
X10139229Y-15543508D02*
X10148753Y-15553031D01*
X10148753Y-15553031D02*
X10158277Y-15572079D01*
X10158277Y-15572079D02*
X10167801Y-15610174D01*
X10167801Y-15610174D02*
X10167801Y-15657793D01*
X10167801Y-15657793D02*
X10158277Y-15695888D01*
X10158277Y-15695888D02*
X10148753Y-15714936D01*
X10148753Y-15714936D02*
X10139229Y-15724460D01*
X10139229Y-15724460D02*
X10120182Y-15733984D01*
X10120182Y-15733984D02*
X10101134Y-15733984D01*
X10101134Y-15733984D02*
X10082087Y-15724460D01*
X10082087Y-15724460D02*
X10072563Y-15714936D01*
X10072563Y-15714936D02*
X10063039Y-15695888D01*
X10063039Y-15695888D02*
X10053515Y-15657793D01*
X10053515Y-15657793D02*
X10053515Y-15610174D01*
X10053515Y-15610174D02*
X10063039Y-15572079D01*
X10063039Y-15572079D02*
X10072563Y-15553031D01*
X10072563Y-15553031D02*
X10082087Y-15543508D01*
X10082087Y-15543508D02*
X10101134Y-15533984D01*
X10253515Y-15714936D02*
X10263039Y-15724460D01*
X10263039Y-15724460D02*
X10253515Y-15733984D01*
X10253515Y-15733984D02*
X10243991Y-15724460D01*
X10243991Y-15724460D02*
X10253515Y-15714936D01*
X10253515Y-15714936D02*
X10253515Y-15733984D01*
X10386848Y-15533984D02*
X10405896Y-15533984D01*
X10405896Y-15533984D02*
X10424944Y-15543508D01*
X10424944Y-15543508D02*
X10434468Y-15553031D01*
X10434468Y-15553031D02*
X10443991Y-15572079D01*
X10443991Y-15572079D02*
X10453515Y-15610174D01*
X10453515Y-15610174D02*
X10453515Y-15657793D01*
X10453515Y-15657793D02*
X10443991Y-15695888D01*
X10443991Y-15695888D02*
X10434468Y-15714936D01*
X10434468Y-15714936D02*
X10424944Y-15724460D01*
X10424944Y-15724460D02*
X10405896Y-15733984D01*
X10405896Y-15733984D02*
X10386848Y-15733984D01*
X10386848Y-15733984D02*
X10367801Y-15724460D01*
X10367801Y-15724460D02*
X10358277Y-15714936D01*
X10358277Y-15714936D02*
X10348753Y-15695888D01*
X10348753Y-15695888D02*
X10339229Y-15657793D01*
X10339229Y-15657793D02*
X10339229Y-15610174D01*
X10339229Y-15610174D02*
X10348753Y-15572079D01*
X10348753Y-15572079D02*
X10358277Y-15553031D01*
X10358277Y-15553031D02*
X10367801Y-15543508D01*
X10367801Y-15543508D02*
X10386848Y-15533984D01*
X10643991Y-15733984D02*
X10529706Y-15733984D01*
X10586848Y-15733984D02*
X10586848Y-15533984D01*
X10586848Y-15533984D02*
X10567801Y-15562555D01*
X10567801Y-15562555D02*
X10548753Y-15581603D01*
X10548753Y-15581603D02*
X10529706Y-15591127D01*
X10834468Y-15733984D02*
X10720182Y-15733984D01*
X10777325Y-15733984D02*
X10777325Y-15533984D01*
X10777325Y-15533984D02*
X10758277Y-15562555D01*
X10758277Y-15562555D02*
X10739229Y-15581603D01*
X10739229Y-15581603D02*
X10720182Y-15591127D01*
X10948753Y-15619698D02*
X10929706Y-15610174D01*
X10929706Y-15610174D02*
X10920182Y-15600650D01*
X10920182Y-15600650D02*
X10910658Y-15581603D01*
X10910658Y-15581603D02*
X10910658Y-15572079D01*
X10910658Y-15572079D02*
X10920182Y-15553031D01*
X10920182Y-15553031D02*
X10929706Y-15543508D01*
X10929706Y-15543508D02*
X10948753Y-15533984D01*
X10948753Y-15533984D02*
X10986849Y-15533984D01*
X10986849Y-15533984D02*
X11005896Y-15543508D01*
X11005896Y-15543508D02*
X11015420Y-15553031D01*
X11015420Y-15553031D02*
X11024944Y-15572079D01*
X11024944Y-15572079D02*
X11024944Y-15581603D01*
X11024944Y-15581603D02*
X11015420Y-15600650D01*
X11015420Y-15600650D02*
X11005896Y-15610174D01*
X11005896Y-15610174D02*
X10986849Y-15619698D01*
X10986849Y-15619698D02*
X10948753Y-15619698D01*
X10948753Y-15619698D02*
X10929706Y-15629222D01*
X10929706Y-15629222D02*
X10920182Y-15638746D01*
X10920182Y-15638746D02*
X10910658Y-15657793D01*
X10910658Y-15657793D02*
X10910658Y-15695888D01*
X10910658Y-15695888D02*
X10920182Y-15714936D01*
X10920182Y-15714936D02*
X10929706Y-15724460D01*
X10929706Y-15724460D02*
X10948753Y-15733984D01*
X10948753Y-15733984D02*
X10986849Y-15733984D01*
X10986849Y-15733984D02*
X11005896Y-15724460D01*
X11005896Y-15724460D02*
X11015420Y-15714936D01*
X11015420Y-15714936D02*
X11024944Y-15695888D01*
X11024944Y-15695888D02*
X11024944Y-15657793D01*
X11024944Y-15657793D02*
X11015420Y-15638746D01*
X11015420Y-15638746D02*
X11005896Y-15629222D01*
X11005896Y-15629222D02*
X10986849Y-15619698D01*
X11101134Y-15533984D02*
X11101134Y-15572079D01*
X11177325Y-15533984D02*
X11177325Y-15572079D01*
X11472563Y-15810174D02*
X11463039Y-15800650D01*
X11463039Y-15800650D02*
X11443991Y-15772079D01*
X11443991Y-15772079D02*
X11434468Y-15753031D01*
X11434468Y-15753031D02*
X11424944Y-15724460D01*
X11424944Y-15724460D02*
X11415420Y-15676841D01*
X11415420Y-15676841D02*
X11415420Y-15638746D01*
X11415420Y-15638746D02*
X11424944Y-15591127D01*
X11424944Y-15591127D02*
X11434468Y-15562555D01*
X11434468Y-15562555D02*
X11443991Y-15543508D01*
X11443991Y-15543508D02*
X11463039Y-15514936D01*
X11463039Y-15514936D02*
X11472563Y-15505412D01*
X11653515Y-15733984D02*
X11539229Y-15733984D01*
X11596372Y-15733984D02*
X11596372Y-15533984D01*
X11596372Y-15533984D02*
X11577325Y-15562555D01*
X11577325Y-15562555D02*
X11558277Y-15581603D01*
X11558277Y-15581603D02*
X11539229Y-15591127D01*
X11824944Y-15533984D02*
X11786848Y-15533984D01*
X11786848Y-15533984D02*
X11767801Y-15543508D01*
X11767801Y-15543508D02*
X11758277Y-15553031D01*
X11758277Y-15553031D02*
X11739229Y-15581603D01*
X11739229Y-15581603D02*
X11729706Y-15619698D01*
X11729706Y-15619698D02*
X11729706Y-15695888D01*
X11729706Y-15695888D02*
X11739229Y-15714936D01*
X11739229Y-15714936D02*
X11748753Y-15724460D01*
X11748753Y-15724460D02*
X11767801Y-15733984D01*
X11767801Y-15733984D02*
X11805896Y-15733984D01*
X11805896Y-15733984D02*
X11824944Y-15724460D01*
X11824944Y-15724460D02*
X11834468Y-15714936D01*
X11834468Y-15714936D02*
X11843991Y-15695888D01*
X11843991Y-15695888D02*
X11843991Y-15648269D01*
X11843991Y-15648269D02*
X11834468Y-15629222D01*
X11834468Y-15629222D02*
X11824944Y-15619698D01*
X11824944Y-15619698D02*
X11805896Y-15610174D01*
X11805896Y-15610174D02*
X11767801Y-15610174D01*
X11767801Y-15610174D02*
X11748753Y-15619698D01*
X11748753Y-15619698D02*
X11739229Y-15629222D01*
X11739229Y-15629222D02*
X11729706Y-15648269D01*
X11910658Y-15533984D02*
X12043991Y-15533984D01*
X12043991Y-15533984D02*
X11958277Y-15733984D01*
X12272563Y-15733984D02*
X12272563Y-15533984D01*
X12358277Y-15733984D02*
X12358277Y-15629222D01*
X12358277Y-15629222D02*
X12348753Y-15610174D01*
X12348753Y-15610174D02*
X12329706Y-15600650D01*
X12329706Y-15600650D02*
X12301134Y-15600650D01*
X12301134Y-15600650D02*
X12282087Y-15610174D01*
X12282087Y-15610174D02*
X12272563Y-15619698D01*
X12482087Y-15733984D02*
X12463039Y-15724460D01*
X12463039Y-15724460D02*
X12453515Y-15714936D01*
X12453515Y-15714936D02*
X12443991Y-15695888D01*
X12443991Y-15695888D02*
X12443991Y-15638746D01*
X12443991Y-15638746D02*
X12453515Y-15619698D01*
X12453515Y-15619698D02*
X12463039Y-15610174D01*
X12463039Y-15610174D02*
X12482087Y-15600650D01*
X12482087Y-15600650D02*
X12510658Y-15600650D01*
X12510658Y-15600650D02*
X12529706Y-15610174D01*
X12529706Y-15610174D02*
X12539230Y-15619698D01*
X12539230Y-15619698D02*
X12548753Y-15638746D01*
X12548753Y-15638746D02*
X12548753Y-15695888D01*
X12548753Y-15695888D02*
X12539230Y-15714936D01*
X12539230Y-15714936D02*
X12529706Y-15724460D01*
X12529706Y-15724460D02*
X12510658Y-15733984D01*
X12510658Y-15733984D02*
X12482087Y-15733984D01*
X12663039Y-15733984D02*
X12643991Y-15724460D01*
X12643991Y-15724460D02*
X12634468Y-15705412D01*
X12634468Y-15705412D02*
X12634468Y-15533984D01*
X12815420Y-15724460D02*
X12796372Y-15733984D01*
X12796372Y-15733984D02*
X12758277Y-15733984D01*
X12758277Y-15733984D02*
X12739230Y-15724460D01*
X12739230Y-15724460D02*
X12729706Y-15705412D01*
X12729706Y-15705412D02*
X12729706Y-15629222D01*
X12729706Y-15629222D02*
X12739230Y-15610174D01*
X12739230Y-15610174D02*
X12758277Y-15600650D01*
X12758277Y-15600650D02*
X12796372Y-15600650D01*
X12796372Y-15600650D02*
X12815420Y-15610174D01*
X12815420Y-15610174D02*
X12824944Y-15629222D01*
X12824944Y-15629222D02*
X12824944Y-15648269D01*
X12824944Y-15648269D02*
X12729706Y-15667317D01*
X12901134Y-15724460D02*
X12920182Y-15733984D01*
X12920182Y-15733984D02*
X12958277Y-15733984D01*
X12958277Y-15733984D02*
X12977325Y-15724460D01*
X12977325Y-15724460D02*
X12986849Y-15705412D01*
X12986849Y-15705412D02*
X12986849Y-15695888D01*
X12986849Y-15695888D02*
X12977325Y-15676841D01*
X12977325Y-15676841D02*
X12958277Y-15667317D01*
X12958277Y-15667317D02*
X12929706Y-15667317D01*
X12929706Y-15667317D02*
X12910658Y-15657793D01*
X12910658Y-15657793D02*
X12901134Y-15638746D01*
X12901134Y-15638746D02*
X12901134Y-15629222D01*
X12901134Y-15629222D02*
X12910658Y-15610174D01*
X12910658Y-15610174D02*
X12929706Y-15600650D01*
X12929706Y-15600650D02*
X12958277Y-15600650D01*
X12958277Y-15600650D02*
X12977325Y-15610174D01*
X13053515Y-15810174D02*
X13063039Y-15800650D01*
X13063039Y-15800650D02*
X13082087Y-15772079D01*
X13082087Y-15772079D02*
X13091611Y-15753031D01*
X13091611Y-15753031D02*
X13101134Y-15724460D01*
X13101134Y-15724460D02*
X13110658Y-15676841D01*
X13110658Y-15676841D02*
X13110658Y-15638746D01*
X13110658Y-15638746D02*
X13101134Y-15591127D01*
X13101134Y-15591127D02*
X13091611Y-15562555D01*
X13091611Y-15562555D02*
X13082087Y-15543508D01*
X13082087Y-15543508D02*
X13063039Y-15514936D01*
X13063039Y-15514936D02*
X13053515Y-15505412D01*
D12*
X7897500Y-15906500D02*
G75*
G02*
X7837500Y-15906500I-30000J0D01*
G01*
X7837500Y-15906500D02*
G75*
G02*
X7897500Y-15906500I30000J0D01*
G01*
D11*
X8196372Y-15797984D02*
X8215420Y-15797984D01*
X8215420Y-15797984D02*
X8234467Y-15807508D01*
X8234467Y-15807508D02*
X8243991Y-15817031D01*
X8243991Y-15817031D02*
X8253515Y-15836079D01*
X8253515Y-15836079D02*
X8263039Y-15874174D01*
X8263039Y-15874174D02*
X8263039Y-15921793D01*
X8263039Y-15921793D02*
X8253515Y-15959888D01*
X8253515Y-15959888D02*
X8243991Y-15978936D01*
X8243991Y-15978936D02*
X8234467Y-15988460D01*
X8234467Y-15988460D02*
X8215420Y-15997984D01*
X8215420Y-15997984D02*
X8196372Y-15997984D01*
X8196372Y-15997984D02*
X8177324Y-15988460D01*
X8177324Y-15988460D02*
X8167801Y-15978936D01*
X8167801Y-15978936D02*
X8158277Y-15959888D01*
X8158277Y-15959888D02*
X8148753Y-15921793D01*
X8148753Y-15921793D02*
X8148753Y-15874174D01*
X8148753Y-15874174D02*
X8158277Y-15836079D01*
X8158277Y-15836079D02*
X8167801Y-15817031D01*
X8167801Y-15817031D02*
X8177324Y-15807508D01*
X8177324Y-15807508D02*
X8196372Y-15797984D01*
X8348753Y-15978936D02*
X8358277Y-15988460D01*
X8358277Y-15988460D02*
X8348753Y-15997984D01*
X8348753Y-15997984D02*
X8339229Y-15988460D01*
X8339229Y-15988460D02*
X8348753Y-15978936D01*
X8348753Y-15978936D02*
X8348753Y-15997984D01*
X8529705Y-15797984D02*
X8491610Y-15797984D01*
X8491610Y-15797984D02*
X8472563Y-15807508D01*
X8472563Y-15807508D02*
X8463039Y-15817031D01*
X8463039Y-15817031D02*
X8443991Y-15845603D01*
X8443991Y-15845603D02*
X8434467Y-15883698D01*
X8434467Y-15883698D02*
X8434467Y-15959888D01*
X8434467Y-15959888D02*
X8443991Y-15978936D01*
X8443991Y-15978936D02*
X8453515Y-15988460D01*
X8453515Y-15988460D02*
X8472563Y-15997984D01*
X8472563Y-15997984D02*
X8510658Y-15997984D01*
X8510658Y-15997984D02*
X8529705Y-15988460D01*
X8529705Y-15988460D02*
X8539229Y-15978936D01*
X8539229Y-15978936D02*
X8548753Y-15959888D01*
X8548753Y-15959888D02*
X8548753Y-15912269D01*
X8548753Y-15912269D02*
X8539229Y-15893222D01*
X8539229Y-15893222D02*
X8529705Y-15883698D01*
X8529705Y-15883698D02*
X8510658Y-15874174D01*
X8510658Y-15874174D02*
X8472563Y-15874174D01*
X8472563Y-15874174D02*
X8453515Y-15883698D01*
X8453515Y-15883698D02*
X8443991Y-15893222D01*
X8443991Y-15893222D02*
X8434467Y-15912269D01*
X8672563Y-15797984D02*
X8691610Y-15797984D01*
X8691610Y-15797984D02*
X8710658Y-15807508D01*
X8710658Y-15807508D02*
X8720182Y-15817031D01*
X8720182Y-15817031D02*
X8729705Y-15836079D01*
X8729705Y-15836079D02*
X8739229Y-15874174D01*
X8739229Y-15874174D02*
X8739229Y-15921793D01*
X8739229Y-15921793D02*
X8729705Y-15959888D01*
X8729705Y-15959888D02*
X8720182Y-15978936D01*
X8720182Y-15978936D02*
X8710658Y-15988460D01*
X8710658Y-15988460D02*
X8691610Y-15997984D01*
X8691610Y-15997984D02*
X8672563Y-15997984D01*
X8672563Y-15997984D02*
X8653515Y-15988460D01*
X8653515Y-15988460D02*
X8643991Y-15978936D01*
X8643991Y-15978936D02*
X8634467Y-15959888D01*
X8634467Y-15959888D02*
X8624944Y-15921793D01*
X8624944Y-15921793D02*
X8624944Y-15874174D01*
X8624944Y-15874174D02*
X8634467Y-15836079D01*
X8634467Y-15836079D02*
X8643991Y-15817031D01*
X8643991Y-15817031D02*
X8653515Y-15807508D01*
X8653515Y-15807508D02*
X8672563Y-15797984D01*
X8863039Y-15797984D02*
X8882086Y-15797984D01*
X8882086Y-15797984D02*
X8901134Y-15807508D01*
X8901134Y-15807508D02*
X8910658Y-15817031D01*
X8910658Y-15817031D02*
X8920182Y-15836079D01*
X8920182Y-15836079D02*
X8929705Y-15874174D01*
X8929705Y-15874174D02*
X8929705Y-15921793D01*
X8929705Y-15921793D02*
X8920182Y-15959888D01*
X8920182Y-15959888D02*
X8910658Y-15978936D01*
X8910658Y-15978936D02*
X8901134Y-15988460D01*
X8901134Y-15988460D02*
X8882086Y-15997984D01*
X8882086Y-15997984D02*
X8863039Y-15997984D01*
X8863039Y-15997984D02*
X8843991Y-15988460D01*
X8843991Y-15988460D02*
X8834467Y-15978936D01*
X8834467Y-15978936D02*
X8824944Y-15959888D01*
X8824944Y-15959888D02*
X8815420Y-15921793D01*
X8815420Y-15921793D02*
X8815420Y-15874174D01*
X8815420Y-15874174D02*
X8824944Y-15836079D01*
X8824944Y-15836079D02*
X8834467Y-15817031D01*
X8834467Y-15817031D02*
X8843991Y-15807508D01*
X8843991Y-15807508D02*
X8863039Y-15797984D01*
X9015420Y-15997984D02*
X9015420Y-15864650D01*
X9015420Y-15883698D02*
X9024944Y-15874174D01*
X9024944Y-15874174D02*
X9043991Y-15864650D01*
X9043991Y-15864650D02*
X9072563Y-15864650D01*
X9072563Y-15864650D02*
X9091610Y-15874174D01*
X9091610Y-15874174D02*
X9101134Y-15893222D01*
X9101134Y-15893222D02*
X9101134Y-15997984D01*
X9101134Y-15893222D02*
X9110658Y-15874174D01*
X9110658Y-15874174D02*
X9129705Y-15864650D01*
X9129705Y-15864650D02*
X9158277Y-15864650D01*
X9158277Y-15864650D02*
X9177325Y-15874174D01*
X9177325Y-15874174D02*
X9186848Y-15893222D01*
X9186848Y-15893222D02*
X9186848Y-15997984D01*
X9282086Y-15997984D02*
X9282086Y-15864650D01*
X9282086Y-15883698D02*
X9291610Y-15874174D01*
X9291610Y-15874174D02*
X9310658Y-15864650D01*
X9310658Y-15864650D02*
X9339229Y-15864650D01*
X9339229Y-15864650D02*
X9358277Y-15874174D01*
X9358277Y-15874174D02*
X9367801Y-15893222D01*
X9367801Y-15893222D02*
X9367801Y-15997984D01*
X9367801Y-15893222D02*
X9377325Y-15874174D01*
X9377325Y-15874174D02*
X9396372Y-15864650D01*
X9396372Y-15864650D02*
X9424944Y-15864650D01*
X9424944Y-15864650D02*
X9443991Y-15874174D01*
X9443991Y-15874174D02*
X9453515Y-15893222D01*
X9453515Y-15893222D02*
X9453515Y-15997984D01*
X9843991Y-15788460D02*
X9672563Y-16045603D01*
X10101134Y-15797984D02*
X10120182Y-15797984D01*
X10120182Y-15797984D02*
X10139229Y-15807508D01*
X10139229Y-15807508D02*
X10148753Y-15817031D01*
X10148753Y-15817031D02*
X10158277Y-15836079D01*
X10158277Y-15836079D02*
X10167801Y-15874174D01*
X10167801Y-15874174D02*
X10167801Y-15921793D01*
X10167801Y-15921793D02*
X10158277Y-15959888D01*
X10158277Y-15959888D02*
X10148753Y-15978936D01*
X10148753Y-15978936D02*
X10139229Y-15988460D01*
X10139229Y-15988460D02*
X10120182Y-15997984D01*
X10120182Y-15997984D02*
X10101134Y-15997984D01*
X10101134Y-15997984D02*
X10082087Y-15988460D01*
X10082087Y-15988460D02*
X10072563Y-15978936D01*
X10072563Y-15978936D02*
X10063039Y-15959888D01*
X10063039Y-15959888D02*
X10053515Y-15921793D01*
X10053515Y-15921793D02*
X10053515Y-15874174D01*
X10053515Y-15874174D02*
X10063039Y-15836079D01*
X10063039Y-15836079D02*
X10072563Y-15817031D01*
X10072563Y-15817031D02*
X10082087Y-15807508D01*
X10082087Y-15807508D02*
X10101134Y-15797984D01*
X10253515Y-15978936D02*
X10263039Y-15988460D01*
X10263039Y-15988460D02*
X10253515Y-15997984D01*
X10253515Y-15997984D02*
X10243991Y-15988460D01*
X10243991Y-15988460D02*
X10253515Y-15978936D01*
X10253515Y-15978936D02*
X10253515Y-15997984D01*
X10386848Y-15797984D02*
X10405896Y-15797984D01*
X10405896Y-15797984D02*
X10424944Y-15807508D01*
X10424944Y-15807508D02*
X10434468Y-15817031D01*
X10434468Y-15817031D02*
X10443991Y-15836079D01*
X10443991Y-15836079D02*
X10453515Y-15874174D01*
X10453515Y-15874174D02*
X10453515Y-15921793D01*
X10453515Y-15921793D02*
X10443991Y-15959888D01*
X10443991Y-15959888D02*
X10434468Y-15978936D01*
X10434468Y-15978936D02*
X10424944Y-15988460D01*
X10424944Y-15988460D02*
X10405896Y-15997984D01*
X10405896Y-15997984D02*
X10386848Y-15997984D01*
X10386848Y-15997984D02*
X10367801Y-15988460D01*
X10367801Y-15988460D02*
X10358277Y-15978936D01*
X10358277Y-15978936D02*
X10348753Y-15959888D01*
X10348753Y-15959888D02*
X10339229Y-15921793D01*
X10339229Y-15921793D02*
X10339229Y-15874174D01*
X10339229Y-15874174D02*
X10348753Y-15836079D01*
X10348753Y-15836079D02*
X10358277Y-15817031D01*
X10358277Y-15817031D02*
X10367801Y-15807508D01*
X10367801Y-15807508D02*
X10386848Y-15797984D01*
X10529706Y-15817031D02*
X10539229Y-15807508D01*
X10539229Y-15807508D02*
X10558277Y-15797984D01*
X10558277Y-15797984D02*
X10605896Y-15797984D01*
X10605896Y-15797984D02*
X10624944Y-15807508D01*
X10624944Y-15807508D02*
X10634468Y-15817031D01*
X10634468Y-15817031D02*
X10643991Y-15836079D01*
X10643991Y-15836079D02*
X10643991Y-15855127D01*
X10643991Y-15855127D02*
X10634468Y-15883698D01*
X10634468Y-15883698D02*
X10520182Y-15997984D01*
X10520182Y-15997984D02*
X10643991Y-15997984D01*
X10710658Y-15797984D02*
X10834468Y-15797984D01*
X10834468Y-15797984D02*
X10767801Y-15874174D01*
X10767801Y-15874174D02*
X10796372Y-15874174D01*
X10796372Y-15874174D02*
X10815420Y-15883698D01*
X10815420Y-15883698D02*
X10824944Y-15893222D01*
X10824944Y-15893222D02*
X10834468Y-15912269D01*
X10834468Y-15912269D02*
X10834468Y-15959888D01*
X10834468Y-15959888D02*
X10824944Y-15978936D01*
X10824944Y-15978936D02*
X10815420Y-15988460D01*
X10815420Y-15988460D02*
X10796372Y-15997984D01*
X10796372Y-15997984D02*
X10739229Y-15997984D01*
X10739229Y-15997984D02*
X10720182Y-15988460D01*
X10720182Y-15988460D02*
X10710658Y-15978936D01*
X11005896Y-15797984D02*
X10967801Y-15797984D01*
X10967801Y-15797984D02*
X10948753Y-15807508D01*
X10948753Y-15807508D02*
X10939229Y-15817031D01*
X10939229Y-15817031D02*
X10920182Y-15845603D01*
X10920182Y-15845603D02*
X10910658Y-15883698D01*
X10910658Y-15883698D02*
X10910658Y-15959888D01*
X10910658Y-15959888D02*
X10920182Y-15978936D01*
X10920182Y-15978936D02*
X10929706Y-15988460D01*
X10929706Y-15988460D02*
X10948753Y-15997984D01*
X10948753Y-15997984D02*
X10986849Y-15997984D01*
X10986849Y-15997984D02*
X11005896Y-15988460D01*
X11005896Y-15988460D02*
X11015420Y-15978936D01*
X11015420Y-15978936D02*
X11024944Y-15959888D01*
X11024944Y-15959888D02*
X11024944Y-15912269D01*
X11024944Y-15912269D02*
X11015420Y-15893222D01*
X11015420Y-15893222D02*
X11005896Y-15883698D01*
X11005896Y-15883698D02*
X10986849Y-15874174D01*
X10986849Y-15874174D02*
X10948753Y-15874174D01*
X10948753Y-15874174D02*
X10929706Y-15883698D01*
X10929706Y-15883698D02*
X10920182Y-15893222D01*
X10920182Y-15893222D02*
X10910658Y-15912269D01*
X11101134Y-15797984D02*
X11101134Y-15836079D01*
X11177325Y-15797984D02*
X11177325Y-15836079D01*
X11472563Y-16074174D02*
X11463039Y-16064650D01*
X11463039Y-16064650D02*
X11443991Y-16036079D01*
X11443991Y-16036079D02*
X11434468Y-16017031D01*
X11434468Y-16017031D02*
X11424944Y-15988460D01*
X11424944Y-15988460D02*
X11415420Y-15940841D01*
X11415420Y-15940841D02*
X11415420Y-15902746D01*
X11415420Y-15902746D02*
X11424944Y-15855127D01*
X11424944Y-15855127D02*
X11434468Y-15826555D01*
X11434468Y-15826555D02*
X11443991Y-15807508D01*
X11443991Y-15807508D02*
X11463039Y-15778936D01*
X11463039Y-15778936D02*
X11472563Y-15769412D01*
X11586848Y-15797984D02*
X11605896Y-15797984D01*
X11605896Y-15797984D02*
X11624944Y-15807508D01*
X11624944Y-15807508D02*
X11634468Y-15817031D01*
X11634468Y-15817031D02*
X11643991Y-15836079D01*
X11643991Y-15836079D02*
X11653515Y-15874174D01*
X11653515Y-15874174D02*
X11653515Y-15921793D01*
X11653515Y-15921793D02*
X11643991Y-15959888D01*
X11643991Y-15959888D02*
X11634468Y-15978936D01*
X11634468Y-15978936D02*
X11624944Y-15988460D01*
X11624944Y-15988460D02*
X11605896Y-15997984D01*
X11605896Y-15997984D02*
X11586848Y-15997984D01*
X11586848Y-15997984D02*
X11567801Y-15988460D01*
X11567801Y-15988460D02*
X11558277Y-15978936D01*
X11558277Y-15978936D02*
X11548753Y-15959888D01*
X11548753Y-15959888D02*
X11539229Y-15921793D01*
X11539229Y-15921793D02*
X11539229Y-15874174D01*
X11539229Y-15874174D02*
X11548753Y-15836079D01*
X11548753Y-15836079D02*
X11558277Y-15817031D01*
X11558277Y-15817031D02*
X11567801Y-15807508D01*
X11567801Y-15807508D02*
X11586848Y-15797984D01*
X11891610Y-15997984D02*
X11891610Y-15797984D01*
X11977325Y-15997984D02*
X11977325Y-15893222D01*
X11977325Y-15893222D02*
X11967801Y-15874174D01*
X11967801Y-15874174D02*
X11948753Y-15864650D01*
X11948753Y-15864650D02*
X11920182Y-15864650D01*
X11920182Y-15864650D02*
X11901134Y-15874174D01*
X11901134Y-15874174D02*
X11891610Y-15883698D01*
X12101134Y-15997984D02*
X12082087Y-15988460D01*
X12082087Y-15988460D02*
X12072563Y-15978936D01*
X12072563Y-15978936D02*
X12063039Y-15959888D01*
X12063039Y-15959888D02*
X12063039Y-15902746D01*
X12063039Y-15902746D02*
X12072563Y-15883698D01*
X12072563Y-15883698D02*
X12082087Y-15874174D01*
X12082087Y-15874174D02*
X12101134Y-15864650D01*
X12101134Y-15864650D02*
X12129706Y-15864650D01*
X12129706Y-15864650D02*
X12148753Y-15874174D01*
X12148753Y-15874174D02*
X12158277Y-15883698D01*
X12158277Y-15883698D02*
X12167801Y-15902746D01*
X12167801Y-15902746D02*
X12167801Y-15959888D01*
X12167801Y-15959888D02*
X12158277Y-15978936D01*
X12158277Y-15978936D02*
X12148753Y-15988460D01*
X12148753Y-15988460D02*
X12129706Y-15997984D01*
X12129706Y-15997984D02*
X12101134Y-15997984D01*
X12282087Y-15997984D02*
X12263039Y-15988460D01*
X12263039Y-15988460D02*
X12253515Y-15969412D01*
X12253515Y-15969412D02*
X12253515Y-15797984D01*
X12434468Y-15988460D02*
X12415420Y-15997984D01*
X12415420Y-15997984D02*
X12377325Y-15997984D01*
X12377325Y-15997984D02*
X12358277Y-15988460D01*
X12358277Y-15988460D02*
X12348753Y-15969412D01*
X12348753Y-15969412D02*
X12348753Y-15893222D01*
X12348753Y-15893222D02*
X12358277Y-15874174D01*
X12358277Y-15874174D02*
X12377325Y-15864650D01*
X12377325Y-15864650D02*
X12415420Y-15864650D01*
X12415420Y-15864650D02*
X12434468Y-15874174D01*
X12434468Y-15874174D02*
X12443991Y-15893222D01*
X12443991Y-15893222D02*
X12443991Y-15912269D01*
X12443991Y-15912269D02*
X12348753Y-15931317D01*
X12520182Y-15988460D02*
X12539230Y-15997984D01*
X12539230Y-15997984D02*
X12577325Y-15997984D01*
X12577325Y-15997984D02*
X12596372Y-15988460D01*
X12596372Y-15988460D02*
X12605896Y-15969412D01*
X12605896Y-15969412D02*
X12605896Y-15959888D01*
X12605896Y-15959888D02*
X12596372Y-15940841D01*
X12596372Y-15940841D02*
X12577325Y-15931317D01*
X12577325Y-15931317D02*
X12548753Y-15931317D01*
X12548753Y-15931317D02*
X12529706Y-15921793D01*
X12529706Y-15921793D02*
X12520182Y-15902746D01*
X12520182Y-15902746D02*
X12520182Y-15893222D01*
X12520182Y-15893222D02*
X12529706Y-15874174D01*
X12529706Y-15874174D02*
X12548753Y-15864650D01*
X12548753Y-15864650D02*
X12577325Y-15864650D01*
X12577325Y-15864650D02*
X12596372Y-15874174D01*
X12843992Y-15921793D02*
X12996373Y-15921793D01*
X12920182Y-15997984D02*
X12920182Y-15845603D01*
X13329706Y-15864650D02*
X13329706Y-15997984D01*
X13282087Y-15788460D02*
X13234468Y-15931317D01*
X13234468Y-15931317D02*
X13358277Y-15931317D01*
X13577325Y-15988460D02*
X13596373Y-15997984D01*
X13596373Y-15997984D02*
X13634468Y-15997984D01*
X13634468Y-15997984D02*
X13653515Y-15988460D01*
X13653515Y-15988460D02*
X13663039Y-15969412D01*
X13663039Y-15969412D02*
X13663039Y-15959888D01*
X13663039Y-15959888D02*
X13653515Y-15940841D01*
X13653515Y-15940841D02*
X13634468Y-15931317D01*
X13634468Y-15931317D02*
X13605896Y-15931317D01*
X13605896Y-15931317D02*
X13586849Y-15921793D01*
X13586849Y-15921793D02*
X13577325Y-15902746D01*
X13577325Y-15902746D02*
X13577325Y-15893222D01*
X13577325Y-15893222D02*
X13586849Y-15874174D01*
X13586849Y-15874174D02*
X13605896Y-15864650D01*
X13605896Y-15864650D02*
X13634468Y-15864650D01*
X13634468Y-15864650D02*
X13653515Y-15874174D01*
X13777325Y-15997984D02*
X13758277Y-15988460D01*
X13758277Y-15988460D02*
X13748754Y-15969412D01*
X13748754Y-15969412D02*
X13748754Y-15797984D01*
X13882087Y-15997984D02*
X13863039Y-15988460D01*
X13863039Y-15988460D02*
X13853515Y-15978936D01*
X13853515Y-15978936D02*
X13843992Y-15959888D01*
X13843992Y-15959888D02*
X13843992Y-15902746D01*
X13843992Y-15902746D02*
X13853515Y-15883698D01*
X13853515Y-15883698D02*
X13863039Y-15874174D01*
X13863039Y-15874174D02*
X13882087Y-15864650D01*
X13882087Y-15864650D02*
X13910658Y-15864650D01*
X13910658Y-15864650D02*
X13929706Y-15874174D01*
X13929706Y-15874174D02*
X13939230Y-15883698D01*
X13939230Y-15883698D02*
X13948754Y-15902746D01*
X13948754Y-15902746D02*
X13948754Y-15959888D01*
X13948754Y-15959888D02*
X13939230Y-15978936D01*
X13939230Y-15978936D02*
X13929706Y-15988460D01*
X13929706Y-15988460D02*
X13910658Y-15997984D01*
X13910658Y-15997984D02*
X13882087Y-15997984D01*
X14005896Y-15864650D02*
X14082087Y-15864650D01*
X14034468Y-15797984D02*
X14034468Y-15969412D01*
X14034468Y-15969412D02*
X14043992Y-15988460D01*
X14043992Y-15988460D02*
X14063039Y-15997984D01*
X14063039Y-15997984D02*
X14082087Y-15997984D01*
X14139230Y-15988460D02*
X14158277Y-15997984D01*
X14158277Y-15997984D02*
X14196373Y-15997984D01*
X14196373Y-15997984D02*
X14215420Y-15988460D01*
X14215420Y-15988460D02*
X14224944Y-15969412D01*
X14224944Y-15969412D02*
X14224944Y-15959888D01*
X14224944Y-15959888D02*
X14215420Y-15940841D01*
X14215420Y-15940841D02*
X14196373Y-15931317D01*
X14196373Y-15931317D02*
X14167801Y-15931317D01*
X14167801Y-15931317D02*
X14148754Y-15921793D01*
X14148754Y-15921793D02*
X14139230Y-15902746D01*
X14139230Y-15902746D02*
X14139230Y-15893222D01*
X14139230Y-15893222D02*
X14148754Y-15874174D01*
X14148754Y-15874174D02*
X14167801Y-15864650D01*
X14167801Y-15864650D02*
X14196373Y-15864650D01*
X14196373Y-15864650D02*
X14215420Y-15874174D01*
X14291611Y-16074174D02*
X14301135Y-16064650D01*
X14301135Y-16064650D02*
X14320182Y-16036079D01*
X14320182Y-16036079D02*
X14329706Y-16017031D01*
X14329706Y-16017031D02*
X14339230Y-15988460D01*
X14339230Y-15988460D02*
X14348754Y-15940841D01*
X14348754Y-15940841D02*
X14348754Y-15902746D01*
X14348754Y-15902746D02*
X14339230Y-15855127D01*
X14339230Y-15855127D02*
X14329706Y-15826555D01*
X14329706Y-15826555D02*
X14320182Y-15807508D01*
X14320182Y-15807508D02*
X14301135Y-15778936D01*
X14301135Y-15778936D02*
X14291611Y-15769412D01*
D12*
X7860000Y-16133000D02*
X7860000Y-16208000D01*
X7822500Y-16170500D02*
X7897500Y-16170500D01*
D11*
X8196372Y-16061984D02*
X8215420Y-16061984D01*
X8215420Y-16061984D02*
X8234467Y-16071508D01*
X8234467Y-16071508D02*
X8243991Y-16081031D01*
X8243991Y-16081031D02*
X8253515Y-16100079D01*
X8253515Y-16100079D02*
X8263039Y-16138174D01*
X8263039Y-16138174D02*
X8263039Y-16185793D01*
X8263039Y-16185793D02*
X8253515Y-16223888D01*
X8253515Y-16223888D02*
X8243991Y-16242936D01*
X8243991Y-16242936D02*
X8234467Y-16252460D01*
X8234467Y-16252460D02*
X8215420Y-16261984D01*
X8215420Y-16261984D02*
X8196372Y-16261984D01*
X8196372Y-16261984D02*
X8177324Y-16252460D01*
X8177324Y-16252460D02*
X8167801Y-16242936D01*
X8167801Y-16242936D02*
X8158277Y-16223888D01*
X8158277Y-16223888D02*
X8148753Y-16185793D01*
X8148753Y-16185793D02*
X8148753Y-16138174D01*
X8148753Y-16138174D02*
X8158277Y-16100079D01*
X8158277Y-16100079D02*
X8167801Y-16081031D01*
X8167801Y-16081031D02*
X8177324Y-16071508D01*
X8177324Y-16071508D02*
X8196372Y-16061984D01*
X8348753Y-16242936D02*
X8358277Y-16252460D01*
X8358277Y-16252460D02*
X8348753Y-16261984D01*
X8348753Y-16261984D02*
X8339229Y-16252460D01*
X8339229Y-16252460D02*
X8348753Y-16242936D01*
X8348753Y-16242936D02*
X8348753Y-16261984D01*
X8424944Y-16061984D02*
X8558277Y-16061984D01*
X8558277Y-16061984D02*
X8472563Y-16261984D01*
X8729705Y-16061984D02*
X8634467Y-16061984D01*
X8634467Y-16061984D02*
X8624944Y-16157222D01*
X8624944Y-16157222D02*
X8634467Y-16147698D01*
X8634467Y-16147698D02*
X8653515Y-16138174D01*
X8653515Y-16138174D02*
X8701134Y-16138174D01*
X8701134Y-16138174D02*
X8720182Y-16147698D01*
X8720182Y-16147698D02*
X8729705Y-16157222D01*
X8729705Y-16157222D02*
X8739229Y-16176269D01*
X8739229Y-16176269D02*
X8739229Y-16223888D01*
X8739229Y-16223888D02*
X8729705Y-16242936D01*
X8729705Y-16242936D02*
X8720182Y-16252460D01*
X8720182Y-16252460D02*
X8701134Y-16261984D01*
X8701134Y-16261984D02*
X8653515Y-16261984D01*
X8653515Y-16261984D02*
X8634467Y-16252460D01*
X8634467Y-16252460D02*
X8624944Y-16242936D01*
X8863039Y-16061984D02*
X8882086Y-16061984D01*
X8882086Y-16061984D02*
X8901134Y-16071508D01*
X8901134Y-16071508D02*
X8910658Y-16081031D01*
X8910658Y-16081031D02*
X8920182Y-16100079D01*
X8920182Y-16100079D02*
X8929705Y-16138174D01*
X8929705Y-16138174D02*
X8929705Y-16185793D01*
X8929705Y-16185793D02*
X8920182Y-16223888D01*
X8920182Y-16223888D02*
X8910658Y-16242936D01*
X8910658Y-16242936D02*
X8901134Y-16252460D01*
X8901134Y-16252460D02*
X8882086Y-16261984D01*
X8882086Y-16261984D02*
X8863039Y-16261984D01*
X8863039Y-16261984D02*
X8843991Y-16252460D01*
X8843991Y-16252460D02*
X8834467Y-16242936D01*
X8834467Y-16242936D02*
X8824944Y-16223888D01*
X8824944Y-16223888D02*
X8815420Y-16185793D01*
X8815420Y-16185793D02*
X8815420Y-16138174D01*
X8815420Y-16138174D02*
X8824944Y-16100079D01*
X8824944Y-16100079D02*
X8834467Y-16081031D01*
X8834467Y-16081031D02*
X8843991Y-16071508D01*
X8843991Y-16071508D02*
X8863039Y-16061984D01*
X9015420Y-16261984D02*
X9015420Y-16128650D01*
X9015420Y-16147698D02*
X9024944Y-16138174D01*
X9024944Y-16138174D02*
X9043991Y-16128650D01*
X9043991Y-16128650D02*
X9072563Y-16128650D01*
X9072563Y-16128650D02*
X9091610Y-16138174D01*
X9091610Y-16138174D02*
X9101134Y-16157222D01*
X9101134Y-16157222D02*
X9101134Y-16261984D01*
X9101134Y-16157222D02*
X9110658Y-16138174D01*
X9110658Y-16138174D02*
X9129705Y-16128650D01*
X9129705Y-16128650D02*
X9158277Y-16128650D01*
X9158277Y-16128650D02*
X9177325Y-16138174D01*
X9177325Y-16138174D02*
X9186848Y-16157222D01*
X9186848Y-16157222D02*
X9186848Y-16261984D01*
X9282086Y-16261984D02*
X9282086Y-16128650D01*
X9282086Y-16147698D02*
X9291610Y-16138174D01*
X9291610Y-16138174D02*
X9310658Y-16128650D01*
X9310658Y-16128650D02*
X9339229Y-16128650D01*
X9339229Y-16128650D02*
X9358277Y-16138174D01*
X9358277Y-16138174D02*
X9367801Y-16157222D01*
X9367801Y-16157222D02*
X9367801Y-16261984D01*
X9367801Y-16157222D02*
X9377325Y-16138174D01*
X9377325Y-16138174D02*
X9396372Y-16128650D01*
X9396372Y-16128650D02*
X9424944Y-16128650D01*
X9424944Y-16128650D02*
X9443991Y-16138174D01*
X9443991Y-16138174D02*
X9453515Y-16157222D01*
X9453515Y-16157222D02*
X9453515Y-16261984D01*
X9843991Y-16052460D02*
X9672563Y-16309603D01*
X10101134Y-16061984D02*
X10120182Y-16061984D01*
X10120182Y-16061984D02*
X10139229Y-16071508D01*
X10139229Y-16071508D02*
X10148753Y-16081031D01*
X10148753Y-16081031D02*
X10158277Y-16100079D01*
X10158277Y-16100079D02*
X10167801Y-16138174D01*
X10167801Y-16138174D02*
X10167801Y-16185793D01*
X10167801Y-16185793D02*
X10158277Y-16223888D01*
X10158277Y-16223888D02*
X10148753Y-16242936D01*
X10148753Y-16242936D02*
X10139229Y-16252460D01*
X10139229Y-16252460D02*
X10120182Y-16261984D01*
X10120182Y-16261984D02*
X10101134Y-16261984D01*
X10101134Y-16261984D02*
X10082087Y-16252460D01*
X10082087Y-16252460D02*
X10072563Y-16242936D01*
X10072563Y-16242936D02*
X10063039Y-16223888D01*
X10063039Y-16223888D02*
X10053515Y-16185793D01*
X10053515Y-16185793D02*
X10053515Y-16138174D01*
X10053515Y-16138174D02*
X10063039Y-16100079D01*
X10063039Y-16100079D02*
X10072563Y-16081031D01*
X10072563Y-16081031D02*
X10082087Y-16071508D01*
X10082087Y-16071508D02*
X10101134Y-16061984D01*
X10253515Y-16242936D02*
X10263039Y-16252460D01*
X10263039Y-16252460D02*
X10253515Y-16261984D01*
X10253515Y-16261984D02*
X10243991Y-16252460D01*
X10243991Y-16252460D02*
X10253515Y-16242936D01*
X10253515Y-16242936D02*
X10253515Y-16261984D01*
X10386848Y-16061984D02*
X10405896Y-16061984D01*
X10405896Y-16061984D02*
X10424944Y-16071508D01*
X10424944Y-16071508D02*
X10434468Y-16081031D01*
X10434468Y-16081031D02*
X10443991Y-16100079D01*
X10443991Y-16100079D02*
X10453515Y-16138174D01*
X10453515Y-16138174D02*
X10453515Y-16185793D01*
X10453515Y-16185793D02*
X10443991Y-16223888D01*
X10443991Y-16223888D02*
X10434468Y-16242936D01*
X10434468Y-16242936D02*
X10424944Y-16252460D01*
X10424944Y-16252460D02*
X10405896Y-16261984D01*
X10405896Y-16261984D02*
X10386848Y-16261984D01*
X10386848Y-16261984D02*
X10367801Y-16252460D01*
X10367801Y-16252460D02*
X10358277Y-16242936D01*
X10358277Y-16242936D02*
X10348753Y-16223888D01*
X10348753Y-16223888D02*
X10339229Y-16185793D01*
X10339229Y-16185793D02*
X10339229Y-16138174D01*
X10339229Y-16138174D02*
X10348753Y-16100079D01*
X10348753Y-16100079D02*
X10358277Y-16081031D01*
X10358277Y-16081031D02*
X10367801Y-16071508D01*
X10367801Y-16071508D02*
X10386848Y-16061984D01*
X10529706Y-16081031D02*
X10539229Y-16071508D01*
X10539229Y-16071508D02*
X10558277Y-16061984D01*
X10558277Y-16061984D02*
X10605896Y-16061984D01*
X10605896Y-16061984D02*
X10624944Y-16071508D01*
X10624944Y-16071508D02*
X10634468Y-16081031D01*
X10634468Y-16081031D02*
X10643991Y-16100079D01*
X10643991Y-16100079D02*
X10643991Y-16119127D01*
X10643991Y-16119127D02*
X10634468Y-16147698D01*
X10634468Y-16147698D02*
X10520182Y-16261984D01*
X10520182Y-16261984D02*
X10643991Y-16261984D01*
X10739229Y-16261984D02*
X10777325Y-16261984D01*
X10777325Y-16261984D02*
X10796372Y-16252460D01*
X10796372Y-16252460D02*
X10805896Y-16242936D01*
X10805896Y-16242936D02*
X10824944Y-16214365D01*
X10824944Y-16214365D02*
X10834468Y-16176269D01*
X10834468Y-16176269D02*
X10834468Y-16100079D01*
X10834468Y-16100079D02*
X10824944Y-16081031D01*
X10824944Y-16081031D02*
X10815420Y-16071508D01*
X10815420Y-16071508D02*
X10796372Y-16061984D01*
X10796372Y-16061984D02*
X10758277Y-16061984D01*
X10758277Y-16061984D02*
X10739229Y-16071508D01*
X10739229Y-16071508D02*
X10729706Y-16081031D01*
X10729706Y-16081031D02*
X10720182Y-16100079D01*
X10720182Y-16100079D02*
X10720182Y-16147698D01*
X10720182Y-16147698D02*
X10729706Y-16166746D01*
X10729706Y-16166746D02*
X10739229Y-16176269D01*
X10739229Y-16176269D02*
X10758277Y-16185793D01*
X10758277Y-16185793D02*
X10796372Y-16185793D01*
X10796372Y-16185793D02*
X10815420Y-16176269D01*
X10815420Y-16176269D02*
X10824944Y-16166746D01*
X10824944Y-16166746D02*
X10834468Y-16147698D01*
X11015420Y-16061984D02*
X10920182Y-16061984D01*
X10920182Y-16061984D02*
X10910658Y-16157222D01*
X10910658Y-16157222D02*
X10920182Y-16147698D01*
X10920182Y-16147698D02*
X10939229Y-16138174D01*
X10939229Y-16138174D02*
X10986849Y-16138174D01*
X10986849Y-16138174D02*
X11005896Y-16147698D01*
X11005896Y-16147698D02*
X11015420Y-16157222D01*
X11015420Y-16157222D02*
X11024944Y-16176269D01*
X11024944Y-16176269D02*
X11024944Y-16223888D01*
X11024944Y-16223888D02*
X11015420Y-16242936D01*
X11015420Y-16242936D02*
X11005896Y-16252460D01*
X11005896Y-16252460D02*
X10986849Y-16261984D01*
X10986849Y-16261984D02*
X10939229Y-16261984D01*
X10939229Y-16261984D02*
X10920182Y-16252460D01*
X10920182Y-16252460D02*
X10910658Y-16242936D01*
X11101134Y-16061984D02*
X11101134Y-16100079D01*
X11177325Y-16061984D02*
X11177325Y-16100079D01*
X11472563Y-16338174D02*
X11463039Y-16328650D01*
X11463039Y-16328650D02*
X11443991Y-16300079D01*
X11443991Y-16300079D02*
X11434468Y-16281031D01*
X11434468Y-16281031D02*
X11424944Y-16252460D01*
X11424944Y-16252460D02*
X11415420Y-16204841D01*
X11415420Y-16204841D02*
X11415420Y-16166746D01*
X11415420Y-16166746D02*
X11424944Y-16119127D01*
X11424944Y-16119127D02*
X11434468Y-16090555D01*
X11434468Y-16090555D02*
X11443991Y-16071508D01*
X11443991Y-16071508D02*
X11463039Y-16042936D01*
X11463039Y-16042936D02*
X11472563Y-16033412D01*
X11634468Y-16061984D02*
X11596372Y-16061984D01*
X11596372Y-16061984D02*
X11577325Y-16071508D01*
X11577325Y-16071508D02*
X11567801Y-16081031D01*
X11567801Y-16081031D02*
X11548753Y-16109603D01*
X11548753Y-16109603D02*
X11539229Y-16147698D01*
X11539229Y-16147698D02*
X11539229Y-16223888D01*
X11539229Y-16223888D02*
X11548753Y-16242936D01*
X11548753Y-16242936D02*
X11558277Y-16252460D01*
X11558277Y-16252460D02*
X11577325Y-16261984D01*
X11577325Y-16261984D02*
X11615420Y-16261984D01*
X11615420Y-16261984D02*
X11634468Y-16252460D01*
X11634468Y-16252460D02*
X11643991Y-16242936D01*
X11643991Y-16242936D02*
X11653515Y-16223888D01*
X11653515Y-16223888D02*
X11653515Y-16176269D01*
X11653515Y-16176269D02*
X11643991Y-16157222D01*
X11643991Y-16157222D02*
X11634468Y-16147698D01*
X11634468Y-16147698D02*
X11615420Y-16138174D01*
X11615420Y-16138174D02*
X11577325Y-16138174D01*
X11577325Y-16138174D02*
X11558277Y-16147698D01*
X11558277Y-16147698D02*
X11548753Y-16157222D01*
X11548753Y-16157222D02*
X11539229Y-16176269D01*
X11891610Y-16261984D02*
X11891610Y-16061984D01*
X11977325Y-16261984D02*
X11977325Y-16157222D01*
X11977325Y-16157222D02*
X11967801Y-16138174D01*
X11967801Y-16138174D02*
X11948753Y-16128650D01*
X11948753Y-16128650D02*
X11920182Y-16128650D01*
X11920182Y-16128650D02*
X11901134Y-16138174D01*
X11901134Y-16138174D02*
X11891610Y-16147698D01*
X12101134Y-16261984D02*
X12082087Y-16252460D01*
X12082087Y-16252460D02*
X12072563Y-16242936D01*
X12072563Y-16242936D02*
X12063039Y-16223888D01*
X12063039Y-16223888D02*
X12063039Y-16166746D01*
X12063039Y-16166746D02*
X12072563Y-16147698D01*
X12072563Y-16147698D02*
X12082087Y-16138174D01*
X12082087Y-16138174D02*
X12101134Y-16128650D01*
X12101134Y-16128650D02*
X12129706Y-16128650D01*
X12129706Y-16128650D02*
X12148753Y-16138174D01*
X12148753Y-16138174D02*
X12158277Y-16147698D01*
X12158277Y-16147698D02*
X12167801Y-16166746D01*
X12167801Y-16166746D02*
X12167801Y-16223888D01*
X12167801Y-16223888D02*
X12158277Y-16242936D01*
X12158277Y-16242936D02*
X12148753Y-16252460D01*
X12148753Y-16252460D02*
X12129706Y-16261984D01*
X12129706Y-16261984D02*
X12101134Y-16261984D01*
X12282087Y-16261984D02*
X12263039Y-16252460D01*
X12263039Y-16252460D02*
X12253515Y-16233412D01*
X12253515Y-16233412D02*
X12253515Y-16061984D01*
X12434468Y-16252460D02*
X12415420Y-16261984D01*
X12415420Y-16261984D02*
X12377325Y-16261984D01*
X12377325Y-16261984D02*
X12358277Y-16252460D01*
X12358277Y-16252460D02*
X12348753Y-16233412D01*
X12348753Y-16233412D02*
X12348753Y-16157222D01*
X12348753Y-16157222D02*
X12358277Y-16138174D01*
X12358277Y-16138174D02*
X12377325Y-16128650D01*
X12377325Y-16128650D02*
X12415420Y-16128650D01*
X12415420Y-16128650D02*
X12434468Y-16138174D01*
X12434468Y-16138174D02*
X12443991Y-16157222D01*
X12443991Y-16157222D02*
X12443991Y-16176269D01*
X12443991Y-16176269D02*
X12348753Y-16195317D01*
X12520182Y-16252460D02*
X12539230Y-16261984D01*
X12539230Y-16261984D02*
X12577325Y-16261984D01*
X12577325Y-16261984D02*
X12596372Y-16252460D01*
X12596372Y-16252460D02*
X12605896Y-16233412D01*
X12605896Y-16233412D02*
X12605896Y-16223888D01*
X12605896Y-16223888D02*
X12596372Y-16204841D01*
X12596372Y-16204841D02*
X12577325Y-16195317D01*
X12577325Y-16195317D02*
X12548753Y-16195317D01*
X12548753Y-16195317D02*
X12529706Y-16185793D01*
X12529706Y-16185793D02*
X12520182Y-16166746D01*
X12520182Y-16166746D02*
X12520182Y-16157222D01*
X12520182Y-16157222D02*
X12529706Y-16138174D01*
X12529706Y-16138174D02*
X12548753Y-16128650D01*
X12548753Y-16128650D02*
X12577325Y-16128650D01*
X12577325Y-16128650D02*
X12596372Y-16138174D01*
X12672563Y-16338174D02*
X12682087Y-16328650D01*
X12682087Y-16328650D02*
X12701134Y-16300079D01*
X12701134Y-16300079D02*
X12710658Y-16281031D01*
X12710658Y-16281031D02*
X12720182Y-16252460D01*
X12720182Y-16252460D02*
X12729706Y-16204841D01*
X12729706Y-16204841D02*
X12729706Y-16166746D01*
X12729706Y-16166746D02*
X12720182Y-16119127D01*
X12720182Y-16119127D02*
X12710658Y-16090555D01*
X12710658Y-16090555D02*
X12701134Y-16071508D01*
X12701134Y-16071508D02*
X12682087Y-16042936D01*
X12682087Y-16042936D02*
X12672563Y-16033412D01*
D12*
X7885784Y-16462784D02*
X7885784Y-16406215D01*
X7829215Y-16406215D01*
X7829215Y-16462784D01*
X7885784Y-16462784D01*
D11*
X8196372Y-16325984D02*
X8215420Y-16325984D01*
X8215420Y-16325984D02*
X8234467Y-16335508D01*
X8234467Y-16335508D02*
X8243991Y-16345031D01*
X8243991Y-16345031D02*
X8253515Y-16364079D01*
X8253515Y-16364079D02*
X8263039Y-16402174D01*
X8263039Y-16402174D02*
X8263039Y-16449793D01*
X8263039Y-16449793D02*
X8253515Y-16487888D01*
X8253515Y-16487888D02*
X8243991Y-16506936D01*
X8243991Y-16506936D02*
X8234467Y-16516460D01*
X8234467Y-16516460D02*
X8215420Y-16525984D01*
X8215420Y-16525984D02*
X8196372Y-16525984D01*
X8196372Y-16525984D02*
X8177324Y-16516460D01*
X8177324Y-16516460D02*
X8167801Y-16506936D01*
X8167801Y-16506936D02*
X8158277Y-16487888D01*
X8158277Y-16487888D02*
X8148753Y-16449793D01*
X8148753Y-16449793D02*
X8148753Y-16402174D01*
X8148753Y-16402174D02*
X8158277Y-16364079D01*
X8158277Y-16364079D02*
X8167801Y-16345031D01*
X8167801Y-16345031D02*
X8177324Y-16335508D01*
X8177324Y-16335508D02*
X8196372Y-16325984D01*
X8348753Y-16506936D02*
X8358277Y-16516460D01*
X8358277Y-16516460D02*
X8348753Y-16525984D01*
X8348753Y-16525984D02*
X8339229Y-16516460D01*
X8339229Y-16516460D02*
X8348753Y-16506936D01*
X8348753Y-16506936D02*
X8348753Y-16525984D01*
X8472563Y-16411698D02*
X8453515Y-16402174D01*
X8453515Y-16402174D02*
X8443991Y-16392650D01*
X8443991Y-16392650D02*
X8434467Y-16373603D01*
X8434467Y-16373603D02*
X8434467Y-16364079D01*
X8434467Y-16364079D02*
X8443991Y-16345031D01*
X8443991Y-16345031D02*
X8453515Y-16335508D01*
X8453515Y-16335508D02*
X8472563Y-16325984D01*
X8472563Y-16325984D02*
X8510658Y-16325984D01*
X8510658Y-16325984D02*
X8529705Y-16335508D01*
X8529705Y-16335508D02*
X8539229Y-16345031D01*
X8539229Y-16345031D02*
X8548753Y-16364079D01*
X8548753Y-16364079D02*
X8548753Y-16373603D01*
X8548753Y-16373603D02*
X8539229Y-16392650D01*
X8539229Y-16392650D02*
X8529705Y-16402174D01*
X8529705Y-16402174D02*
X8510658Y-16411698D01*
X8510658Y-16411698D02*
X8472563Y-16411698D01*
X8472563Y-16411698D02*
X8453515Y-16421222D01*
X8453515Y-16421222D02*
X8443991Y-16430746D01*
X8443991Y-16430746D02*
X8434467Y-16449793D01*
X8434467Y-16449793D02*
X8434467Y-16487888D01*
X8434467Y-16487888D02*
X8443991Y-16506936D01*
X8443991Y-16506936D02*
X8453515Y-16516460D01*
X8453515Y-16516460D02*
X8472563Y-16525984D01*
X8472563Y-16525984D02*
X8510658Y-16525984D01*
X8510658Y-16525984D02*
X8529705Y-16516460D01*
X8529705Y-16516460D02*
X8539229Y-16506936D01*
X8539229Y-16506936D02*
X8548753Y-16487888D01*
X8548753Y-16487888D02*
X8548753Y-16449793D01*
X8548753Y-16449793D02*
X8539229Y-16430746D01*
X8539229Y-16430746D02*
X8529705Y-16421222D01*
X8529705Y-16421222D02*
X8510658Y-16411698D01*
X8672563Y-16325984D02*
X8691610Y-16325984D01*
X8691610Y-16325984D02*
X8710658Y-16335508D01*
X8710658Y-16335508D02*
X8720182Y-16345031D01*
X8720182Y-16345031D02*
X8729705Y-16364079D01*
X8729705Y-16364079D02*
X8739229Y-16402174D01*
X8739229Y-16402174D02*
X8739229Y-16449793D01*
X8739229Y-16449793D02*
X8729705Y-16487888D01*
X8729705Y-16487888D02*
X8720182Y-16506936D01*
X8720182Y-16506936D02*
X8710658Y-16516460D01*
X8710658Y-16516460D02*
X8691610Y-16525984D01*
X8691610Y-16525984D02*
X8672563Y-16525984D01*
X8672563Y-16525984D02*
X8653515Y-16516460D01*
X8653515Y-16516460D02*
X8643991Y-16506936D01*
X8643991Y-16506936D02*
X8634467Y-16487888D01*
X8634467Y-16487888D02*
X8624944Y-16449793D01*
X8624944Y-16449793D02*
X8624944Y-16402174D01*
X8624944Y-16402174D02*
X8634467Y-16364079D01*
X8634467Y-16364079D02*
X8643991Y-16345031D01*
X8643991Y-16345031D02*
X8653515Y-16335508D01*
X8653515Y-16335508D02*
X8672563Y-16325984D01*
X8863039Y-16325984D02*
X8882086Y-16325984D01*
X8882086Y-16325984D02*
X8901134Y-16335508D01*
X8901134Y-16335508D02*
X8910658Y-16345031D01*
X8910658Y-16345031D02*
X8920182Y-16364079D01*
X8920182Y-16364079D02*
X8929705Y-16402174D01*
X8929705Y-16402174D02*
X8929705Y-16449793D01*
X8929705Y-16449793D02*
X8920182Y-16487888D01*
X8920182Y-16487888D02*
X8910658Y-16506936D01*
X8910658Y-16506936D02*
X8901134Y-16516460D01*
X8901134Y-16516460D02*
X8882086Y-16525984D01*
X8882086Y-16525984D02*
X8863039Y-16525984D01*
X8863039Y-16525984D02*
X8843991Y-16516460D01*
X8843991Y-16516460D02*
X8834467Y-16506936D01*
X8834467Y-16506936D02*
X8824944Y-16487888D01*
X8824944Y-16487888D02*
X8815420Y-16449793D01*
X8815420Y-16449793D02*
X8815420Y-16402174D01*
X8815420Y-16402174D02*
X8824944Y-16364079D01*
X8824944Y-16364079D02*
X8834467Y-16345031D01*
X8834467Y-16345031D02*
X8843991Y-16335508D01*
X8843991Y-16335508D02*
X8863039Y-16325984D01*
X9015420Y-16525984D02*
X9015420Y-16392650D01*
X9015420Y-16411698D02*
X9024944Y-16402174D01*
X9024944Y-16402174D02*
X9043991Y-16392650D01*
X9043991Y-16392650D02*
X9072563Y-16392650D01*
X9072563Y-16392650D02*
X9091610Y-16402174D01*
X9091610Y-16402174D02*
X9101134Y-16421222D01*
X9101134Y-16421222D02*
X9101134Y-16525984D01*
X9101134Y-16421222D02*
X9110658Y-16402174D01*
X9110658Y-16402174D02*
X9129705Y-16392650D01*
X9129705Y-16392650D02*
X9158277Y-16392650D01*
X9158277Y-16392650D02*
X9177325Y-16402174D01*
X9177325Y-16402174D02*
X9186848Y-16421222D01*
X9186848Y-16421222D02*
X9186848Y-16525984D01*
X9282086Y-16525984D02*
X9282086Y-16392650D01*
X9282086Y-16411698D02*
X9291610Y-16402174D01*
X9291610Y-16402174D02*
X9310658Y-16392650D01*
X9310658Y-16392650D02*
X9339229Y-16392650D01*
X9339229Y-16392650D02*
X9358277Y-16402174D01*
X9358277Y-16402174D02*
X9367801Y-16421222D01*
X9367801Y-16421222D02*
X9367801Y-16525984D01*
X9367801Y-16421222D02*
X9377325Y-16402174D01*
X9377325Y-16402174D02*
X9396372Y-16392650D01*
X9396372Y-16392650D02*
X9424944Y-16392650D01*
X9424944Y-16392650D02*
X9443991Y-16402174D01*
X9443991Y-16402174D02*
X9453515Y-16421222D01*
X9453515Y-16421222D02*
X9453515Y-16525984D01*
X9843991Y-16316460D02*
X9672563Y-16573603D01*
X10101134Y-16325984D02*
X10120182Y-16325984D01*
X10120182Y-16325984D02*
X10139229Y-16335508D01*
X10139229Y-16335508D02*
X10148753Y-16345031D01*
X10148753Y-16345031D02*
X10158277Y-16364079D01*
X10158277Y-16364079D02*
X10167801Y-16402174D01*
X10167801Y-16402174D02*
X10167801Y-16449793D01*
X10167801Y-16449793D02*
X10158277Y-16487888D01*
X10158277Y-16487888D02*
X10148753Y-16506936D01*
X10148753Y-16506936D02*
X10139229Y-16516460D01*
X10139229Y-16516460D02*
X10120182Y-16525984D01*
X10120182Y-16525984D02*
X10101134Y-16525984D01*
X10101134Y-16525984D02*
X10082087Y-16516460D01*
X10082087Y-16516460D02*
X10072563Y-16506936D01*
X10072563Y-16506936D02*
X10063039Y-16487888D01*
X10063039Y-16487888D02*
X10053515Y-16449793D01*
X10053515Y-16449793D02*
X10053515Y-16402174D01*
X10053515Y-16402174D02*
X10063039Y-16364079D01*
X10063039Y-16364079D02*
X10072563Y-16345031D01*
X10072563Y-16345031D02*
X10082087Y-16335508D01*
X10082087Y-16335508D02*
X10101134Y-16325984D01*
X10253515Y-16506936D02*
X10263039Y-16516460D01*
X10263039Y-16516460D02*
X10253515Y-16525984D01*
X10253515Y-16525984D02*
X10243991Y-16516460D01*
X10243991Y-16516460D02*
X10253515Y-16506936D01*
X10253515Y-16506936D02*
X10253515Y-16525984D01*
X10386848Y-16325984D02*
X10405896Y-16325984D01*
X10405896Y-16325984D02*
X10424944Y-16335508D01*
X10424944Y-16335508D02*
X10434468Y-16345031D01*
X10434468Y-16345031D02*
X10443991Y-16364079D01*
X10443991Y-16364079D02*
X10453515Y-16402174D01*
X10453515Y-16402174D02*
X10453515Y-16449793D01*
X10453515Y-16449793D02*
X10443991Y-16487888D01*
X10443991Y-16487888D02*
X10434468Y-16506936D01*
X10434468Y-16506936D02*
X10424944Y-16516460D01*
X10424944Y-16516460D02*
X10405896Y-16525984D01*
X10405896Y-16525984D02*
X10386848Y-16525984D01*
X10386848Y-16525984D02*
X10367801Y-16516460D01*
X10367801Y-16516460D02*
X10358277Y-16506936D01*
X10358277Y-16506936D02*
X10348753Y-16487888D01*
X10348753Y-16487888D02*
X10339229Y-16449793D01*
X10339229Y-16449793D02*
X10339229Y-16402174D01*
X10339229Y-16402174D02*
X10348753Y-16364079D01*
X10348753Y-16364079D02*
X10358277Y-16345031D01*
X10358277Y-16345031D02*
X10367801Y-16335508D01*
X10367801Y-16335508D02*
X10386848Y-16325984D01*
X10520182Y-16325984D02*
X10643991Y-16325984D01*
X10643991Y-16325984D02*
X10577325Y-16402174D01*
X10577325Y-16402174D02*
X10605896Y-16402174D01*
X10605896Y-16402174D02*
X10624944Y-16411698D01*
X10624944Y-16411698D02*
X10634468Y-16421222D01*
X10634468Y-16421222D02*
X10643991Y-16440269D01*
X10643991Y-16440269D02*
X10643991Y-16487888D01*
X10643991Y-16487888D02*
X10634468Y-16506936D01*
X10634468Y-16506936D02*
X10624944Y-16516460D01*
X10624944Y-16516460D02*
X10605896Y-16525984D01*
X10605896Y-16525984D02*
X10548753Y-16525984D01*
X10548753Y-16525984D02*
X10529706Y-16516460D01*
X10529706Y-16516460D02*
X10520182Y-16506936D01*
X10834468Y-16525984D02*
X10720182Y-16525984D01*
X10777325Y-16525984D02*
X10777325Y-16325984D01*
X10777325Y-16325984D02*
X10758277Y-16354555D01*
X10758277Y-16354555D02*
X10739229Y-16373603D01*
X10739229Y-16373603D02*
X10720182Y-16383127D01*
X11015420Y-16325984D02*
X10920182Y-16325984D01*
X10920182Y-16325984D02*
X10910658Y-16421222D01*
X10910658Y-16421222D02*
X10920182Y-16411698D01*
X10920182Y-16411698D02*
X10939229Y-16402174D01*
X10939229Y-16402174D02*
X10986849Y-16402174D01*
X10986849Y-16402174D02*
X11005896Y-16411698D01*
X11005896Y-16411698D02*
X11015420Y-16421222D01*
X11015420Y-16421222D02*
X11024944Y-16440269D01*
X11024944Y-16440269D02*
X11024944Y-16487888D01*
X11024944Y-16487888D02*
X11015420Y-16506936D01*
X11015420Y-16506936D02*
X11005896Y-16516460D01*
X11005896Y-16516460D02*
X10986849Y-16525984D01*
X10986849Y-16525984D02*
X10939229Y-16525984D01*
X10939229Y-16525984D02*
X10920182Y-16516460D01*
X10920182Y-16516460D02*
X10910658Y-16506936D01*
X11101134Y-16325984D02*
X11101134Y-16364079D01*
X11177325Y-16325984D02*
X11177325Y-16364079D01*
X11472563Y-16602174D02*
X11463039Y-16592650D01*
X11463039Y-16592650D02*
X11443991Y-16564079D01*
X11443991Y-16564079D02*
X11434468Y-16545031D01*
X11434468Y-16545031D02*
X11424944Y-16516460D01*
X11424944Y-16516460D02*
X11415420Y-16468841D01*
X11415420Y-16468841D02*
X11415420Y-16430746D01*
X11415420Y-16430746D02*
X11424944Y-16383127D01*
X11424944Y-16383127D02*
X11434468Y-16354555D01*
X11434468Y-16354555D02*
X11443991Y-16335508D01*
X11443991Y-16335508D02*
X11463039Y-16306936D01*
X11463039Y-16306936D02*
X11472563Y-16297412D01*
X11634468Y-16325984D02*
X11596372Y-16325984D01*
X11596372Y-16325984D02*
X11577325Y-16335508D01*
X11577325Y-16335508D02*
X11567801Y-16345031D01*
X11567801Y-16345031D02*
X11548753Y-16373603D01*
X11548753Y-16373603D02*
X11539229Y-16411698D01*
X11539229Y-16411698D02*
X11539229Y-16487888D01*
X11539229Y-16487888D02*
X11548753Y-16506936D01*
X11548753Y-16506936D02*
X11558277Y-16516460D01*
X11558277Y-16516460D02*
X11577325Y-16525984D01*
X11577325Y-16525984D02*
X11615420Y-16525984D01*
X11615420Y-16525984D02*
X11634468Y-16516460D01*
X11634468Y-16516460D02*
X11643991Y-16506936D01*
X11643991Y-16506936D02*
X11653515Y-16487888D01*
X11653515Y-16487888D02*
X11653515Y-16440269D01*
X11653515Y-16440269D02*
X11643991Y-16421222D01*
X11643991Y-16421222D02*
X11634468Y-16411698D01*
X11634468Y-16411698D02*
X11615420Y-16402174D01*
X11615420Y-16402174D02*
X11577325Y-16402174D01*
X11577325Y-16402174D02*
X11558277Y-16411698D01*
X11558277Y-16411698D02*
X11548753Y-16421222D01*
X11548753Y-16421222D02*
X11539229Y-16440269D01*
X11891610Y-16525984D02*
X11891610Y-16325984D01*
X11977325Y-16525984D02*
X11977325Y-16421222D01*
X11977325Y-16421222D02*
X11967801Y-16402174D01*
X11967801Y-16402174D02*
X11948753Y-16392650D01*
X11948753Y-16392650D02*
X11920182Y-16392650D01*
X11920182Y-16392650D02*
X11901134Y-16402174D01*
X11901134Y-16402174D02*
X11891610Y-16411698D01*
X12101134Y-16525984D02*
X12082087Y-16516460D01*
X12082087Y-16516460D02*
X12072563Y-16506936D01*
X12072563Y-16506936D02*
X12063039Y-16487888D01*
X12063039Y-16487888D02*
X12063039Y-16430746D01*
X12063039Y-16430746D02*
X12072563Y-16411698D01*
X12072563Y-16411698D02*
X12082087Y-16402174D01*
X12082087Y-16402174D02*
X12101134Y-16392650D01*
X12101134Y-16392650D02*
X12129706Y-16392650D01*
X12129706Y-16392650D02*
X12148753Y-16402174D01*
X12148753Y-16402174D02*
X12158277Y-16411698D01*
X12158277Y-16411698D02*
X12167801Y-16430746D01*
X12167801Y-16430746D02*
X12167801Y-16487888D01*
X12167801Y-16487888D02*
X12158277Y-16506936D01*
X12158277Y-16506936D02*
X12148753Y-16516460D01*
X12148753Y-16516460D02*
X12129706Y-16525984D01*
X12129706Y-16525984D02*
X12101134Y-16525984D01*
X12282087Y-16525984D02*
X12263039Y-16516460D01*
X12263039Y-16516460D02*
X12253515Y-16497412D01*
X12253515Y-16497412D02*
X12253515Y-16325984D01*
X12434468Y-16516460D02*
X12415420Y-16525984D01*
X12415420Y-16525984D02*
X12377325Y-16525984D01*
X12377325Y-16525984D02*
X12358277Y-16516460D01*
X12358277Y-16516460D02*
X12348753Y-16497412D01*
X12348753Y-16497412D02*
X12348753Y-16421222D01*
X12348753Y-16421222D02*
X12358277Y-16402174D01*
X12358277Y-16402174D02*
X12377325Y-16392650D01*
X12377325Y-16392650D02*
X12415420Y-16392650D01*
X12415420Y-16392650D02*
X12434468Y-16402174D01*
X12434468Y-16402174D02*
X12443991Y-16421222D01*
X12443991Y-16421222D02*
X12443991Y-16440269D01*
X12443991Y-16440269D02*
X12348753Y-16459317D01*
X12520182Y-16516460D02*
X12539230Y-16525984D01*
X12539230Y-16525984D02*
X12577325Y-16525984D01*
X12577325Y-16525984D02*
X12596372Y-16516460D01*
X12596372Y-16516460D02*
X12605896Y-16497412D01*
X12605896Y-16497412D02*
X12605896Y-16487888D01*
X12605896Y-16487888D02*
X12596372Y-16468841D01*
X12596372Y-16468841D02*
X12577325Y-16459317D01*
X12577325Y-16459317D02*
X12548753Y-16459317D01*
X12548753Y-16459317D02*
X12529706Y-16449793D01*
X12529706Y-16449793D02*
X12520182Y-16430746D01*
X12520182Y-16430746D02*
X12520182Y-16421222D01*
X12520182Y-16421222D02*
X12529706Y-16402174D01*
X12529706Y-16402174D02*
X12548753Y-16392650D01*
X12548753Y-16392650D02*
X12577325Y-16392650D01*
X12577325Y-16392650D02*
X12596372Y-16402174D01*
X12672563Y-16602174D02*
X12682087Y-16592650D01*
X12682087Y-16592650D02*
X12701134Y-16564079D01*
X12701134Y-16564079D02*
X12710658Y-16545031D01*
X12710658Y-16545031D02*
X12720182Y-16516460D01*
X12720182Y-16516460D02*
X12729706Y-16468841D01*
X12729706Y-16468841D02*
X12729706Y-16430746D01*
X12729706Y-16430746D02*
X12720182Y-16383127D01*
X12720182Y-16383127D02*
X12710658Y-16354555D01*
X12710658Y-16354555D02*
X12701134Y-16335508D01*
X12701134Y-16335508D02*
X12682087Y-16306936D01*
X12682087Y-16306936D02*
X12672563Y-16297412D01*
D12*
X7852500Y-16743500D02*
X7897500Y-16698500D01*
X7852500Y-16653500D01*
X7807500Y-16698500D01*
X7852500Y-16743500D01*
D11*
X8196372Y-16589984D02*
X8215420Y-16589984D01*
X8215420Y-16589984D02*
X8234467Y-16599508D01*
X8234467Y-16599508D02*
X8243991Y-16609031D01*
X8243991Y-16609031D02*
X8253515Y-16628079D01*
X8253515Y-16628079D02*
X8263039Y-16666174D01*
X8263039Y-16666174D02*
X8263039Y-16713793D01*
X8263039Y-16713793D02*
X8253515Y-16751888D01*
X8253515Y-16751888D02*
X8243991Y-16770936D01*
X8243991Y-16770936D02*
X8234467Y-16780460D01*
X8234467Y-16780460D02*
X8215420Y-16789984D01*
X8215420Y-16789984D02*
X8196372Y-16789984D01*
X8196372Y-16789984D02*
X8177324Y-16780460D01*
X8177324Y-16780460D02*
X8167801Y-16770936D01*
X8167801Y-16770936D02*
X8158277Y-16751888D01*
X8158277Y-16751888D02*
X8148753Y-16713793D01*
X8148753Y-16713793D02*
X8148753Y-16666174D01*
X8148753Y-16666174D02*
X8158277Y-16628079D01*
X8158277Y-16628079D02*
X8167801Y-16609031D01*
X8167801Y-16609031D02*
X8177324Y-16599508D01*
X8177324Y-16599508D02*
X8196372Y-16589984D01*
X8348753Y-16770936D02*
X8358277Y-16780460D01*
X8358277Y-16780460D02*
X8348753Y-16789984D01*
X8348753Y-16789984D02*
X8339229Y-16780460D01*
X8339229Y-16780460D02*
X8348753Y-16770936D01*
X8348753Y-16770936D02*
X8348753Y-16789984D01*
X8453515Y-16789984D02*
X8491610Y-16789984D01*
X8491610Y-16789984D02*
X8510658Y-16780460D01*
X8510658Y-16780460D02*
X8520182Y-16770936D01*
X8520182Y-16770936D02*
X8539229Y-16742365D01*
X8539229Y-16742365D02*
X8548753Y-16704269D01*
X8548753Y-16704269D02*
X8548753Y-16628079D01*
X8548753Y-16628079D02*
X8539229Y-16609031D01*
X8539229Y-16609031D02*
X8529705Y-16599508D01*
X8529705Y-16599508D02*
X8510658Y-16589984D01*
X8510658Y-16589984D02*
X8472563Y-16589984D01*
X8472563Y-16589984D02*
X8453515Y-16599508D01*
X8453515Y-16599508D02*
X8443991Y-16609031D01*
X8443991Y-16609031D02*
X8434467Y-16628079D01*
X8434467Y-16628079D02*
X8434467Y-16675698D01*
X8434467Y-16675698D02*
X8443991Y-16694746D01*
X8443991Y-16694746D02*
X8453515Y-16704269D01*
X8453515Y-16704269D02*
X8472563Y-16713793D01*
X8472563Y-16713793D02*
X8510658Y-16713793D01*
X8510658Y-16713793D02*
X8529705Y-16704269D01*
X8529705Y-16704269D02*
X8539229Y-16694746D01*
X8539229Y-16694746D02*
X8548753Y-16675698D01*
X8672563Y-16589984D02*
X8691610Y-16589984D01*
X8691610Y-16589984D02*
X8710658Y-16599508D01*
X8710658Y-16599508D02*
X8720182Y-16609031D01*
X8720182Y-16609031D02*
X8729705Y-16628079D01*
X8729705Y-16628079D02*
X8739229Y-16666174D01*
X8739229Y-16666174D02*
X8739229Y-16713793D01*
X8739229Y-16713793D02*
X8729705Y-16751888D01*
X8729705Y-16751888D02*
X8720182Y-16770936D01*
X8720182Y-16770936D02*
X8710658Y-16780460D01*
X8710658Y-16780460D02*
X8691610Y-16789984D01*
X8691610Y-16789984D02*
X8672563Y-16789984D01*
X8672563Y-16789984D02*
X8653515Y-16780460D01*
X8653515Y-16780460D02*
X8643991Y-16770936D01*
X8643991Y-16770936D02*
X8634467Y-16751888D01*
X8634467Y-16751888D02*
X8624944Y-16713793D01*
X8624944Y-16713793D02*
X8624944Y-16666174D01*
X8624944Y-16666174D02*
X8634467Y-16628079D01*
X8634467Y-16628079D02*
X8643991Y-16609031D01*
X8643991Y-16609031D02*
X8653515Y-16599508D01*
X8653515Y-16599508D02*
X8672563Y-16589984D01*
X8863039Y-16589984D02*
X8882086Y-16589984D01*
X8882086Y-16589984D02*
X8901134Y-16599508D01*
X8901134Y-16599508D02*
X8910658Y-16609031D01*
X8910658Y-16609031D02*
X8920182Y-16628079D01*
X8920182Y-16628079D02*
X8929705Y-16666174D01*
X8929705Y-16666174D02*
X8929705Y-16713793D01*
X8929705Y-16713793D02*
X8920182Y-16751888D01*
X8920182Y-16751888D02*
X8910658Y-16770936D01*
X8910658Y-16770936D02*
X8901134Y-16780460D01*
X8901134Y-16780460D02*
X8882086Y-16789984D01*
X8882086Y-16789984D02*
X8863039Y-16789984D01*
X8863039Y-16789984D02*
X8843991Y-16780460D01*
X8843991Y-16780460D02*
X8834467Y-16770936D01*
X8834467Y-16770936D02*
X8824944Y-16751888D01*
X8824944Y-16751888D02*
X8815420Y-16713793D01*
X8815420Y-16713793D02*
X8815420Y-16666174D01*
X8815420Y-16666174D02*
X8824944Y-16628079D01*
X8824944Y-16628079D02*
X8834467Y-16609031D01*
X8834467Y-16609031D02*
X8843991Y-16599508D01*
X8843991Y-16599508D02*
X8863039Y-16589984D01*
X9015420Y-16789984D02*
X9015420Y-16656650D01*
X9015420Y-16675698D02*
X9024944Y-16666174D01*
X9024944Y-16666174D02*
X9043991Y-16656650D01*
X9043991Y-16656650D02*
X9072563Y-16656650D01*
X9072563Y-16656650D02*
X9091610Y-16666174D01*
X9091610Y-16666174D02*
X9101134Y-16685222D01*
X9101134Y-16685222D02*
X9101134Y-16789984D01*
X9101134Y-16685222D02*
X9110658Y-16666174D01*
X9110658Y-16666174D02*
X9129705Y-16656650D01*
X9129705Y-16656650D02*
X9158277Y-16656650D01*
X9158277Y-16656650D02*
X9177325Y-16666174D01*
X9177325Y-16666174D02*
X9186848Y-16685222D01*
X9186848Y-16685222D02*
X9186848Y-16789984D01*
X9282086Y-16789984D02*
X9282086Y-16656650D01*
X9282086Y-16675698D02*
X9291610Y-16666174D01*
X9291610Y-16666174D02*
X9310658Y-16656650D01*
X9310658Y-16656650D02*
X9339229Y-16656650D01*
X9339229Y-16656650D02*
X9358277Y-16666174D01*
X9358277Y-16666174D02*
X9367801Y-16685222D01*
X9367801Y-16685222D02*
X9367801Y-16789984D01*
X9367801Y-16685222D02*
X9377325Y-16666174D01*
X9377325Y-16666174D02*
X9396372Y-16656650D01*
X9396372Y-16656650D02*
X9424944Y-16656650D01*
X9424944Y-16656650D02*
X9443991Y-16666174D01*
X9443991Y-16666174D02*
X9453515Y-16685222D01*
X9453515Y-16685222D02*
X9453515Y-16789984D01*
X9843991Y-16580460D02*
X9672563Y-16837603D01*
X10101134Y-16589984D02*
X10120182Y-16589984D01*
X10120182Y-16589984D02*
X10139229Y-16599508D01*
X10139229Y-16599508D02*
X10148753Y-16609031D01*
X10148753Y-16609031D02*
X10158277Y-16628079D01*
X10158277Y-16628079D02*
X10167801Y-16666174D01*
X10167801Y-16666174D02*
X10167801Y-16713793D01*
X10167801Y-16713793D02*
X10158277Y-16751888D01*
X10158277Y-16751888D02*
X10148753Y-16770936D01*
X10148753Y-16770936D02*
X10139229Y-16780460D01*
X10139229Y-16780460D02*
X10120182Y-16789984D01*
X10120182Y-16789984D02*
X10101134Y-16789984D01*
X10101134Y-16789984D02*
X10082087Y-16780460D01*
X10082087Y-16780460D02*
X10072563Y-16770936D01*
X10072563Y-16770936D02*
X10063039Y-16751888D01*
X10063039Y-16751888D02*
X10053515Y-16713793D01*
X10053515Y-16713793D02*
X10053515Y-16666174D01*
X10053515Y-16666174D02*
X10063039Y-16628079D01*
X10063039Y-16628079D02*
X10072563Y-16609031D01*
X10072563Y-16609031D02*
X10082087Y-16599508D01*
X10082087Y-16599508D02*
X10101134Y-16589984D01*
X10253515Y-16770936D02*
X10263039Y-16780460D01*
X10263039Y-16780460D02*
X10253515Y-16789984D01*
X10253515Y-16789984D02*
X10243991Y-16780460D01*
X10243991Y-16780460D02*
X10253515Y-16770936D01*
X10253515Y-16770936D02*
X10253515Y-16789984D01*
X10386848Y-16589984D02*
X10405896Y-16589984D01*
X10405896Y-16589984D02*
X10424944Y-16599508D01*
X10424944Y-16599508D02*
X10434468Y-16609031D01*
X10434468Y-16609031D02*
X10443991Y-16628079D01*
X10443991Y-16628079D02*
X10453515Y-16666174D01*
X10453515Y-16666174D02*
X10453515Y-16713793D01*
X10453515Y-16713793D02*
X10443991Y-16751888D01*
X10443991Y-16751888D02*
X10434468Y-16770936D01*
X10434468Y-16770936D02*
X10424944Y-16780460D01*
X10424944Y-16780460D02*
X10405896Y-16789984D01*
X10405896Y-16789984D02*
X10386848Y-16789984D01*
X10386848Y-16789984D02*
X10367801Y-16780460D01*
X10367801Y-16780460D02*
X10358277Y-16770936D01*
X10358277Y-16770936D02*
X10348753Y-16751888D01*
X10348753Y-16751888D02*
X10339229Y-16713793D01*
X10339229Y-16713793D02*
X10339229Y-16666174D01*
X10339229Y-16666174D02*
X10348753Y-16628079D01*
X10348753Y-16628079D02*
X10358277Y-16609031D01*
X10358277Y-16609031D02*
X10367801Y-16599508D01*
X10367801Y-16599508D02*
X10386848Y-16589984D01*
X10520182Y-16589984D02*
X10643991Y-16589984D01*
X10643991Y-16589984D02*
X10577325Y-16666174D01*
X10577325Y-16666174D02*
X10605896Y-16666174D01*
X10605896Y-16666174D02*
X10624944Y-16675698D01*
X10624944Y-16675698D02*
X10634468Y-16685222D01*
X10634468Y-16685222D02*
X10643991Y-16704269D01*
X10643991Y-16704269D02*
X10643991Y-16751888D01*
X10643991Y-16751888D02*
X10634468Y-16770936D01*
X10634468Y-16770936D02*
X10624944Y-16780460D01*
X10624944Y-16780460D02*
X10605896Y-16789984D01*
X10605896Y-16789984D02*
X10548753Y-16789984D01*
X10548753Y-16789984D02*
X10529706Y-16780460D01*
X10529706Y-16780460D02*
X10520182Y-16770936D01*
X10824944Y-16589984D02*
X10729706Y-16589984D01*
X10729706Y-16589984D02*
X10720182Y-16685222D01*
X10720182Y-16685222D02*
X10729706Y-16675698D01*
X10729706Y-16675698D02*
X10748753Y-16666174D01*
X10748753Y-16666174D02*
X10796372Y-16666174D01*
X10796372Y-16666174D02*
X10815420Y-16675698D01*
X10815420Y-16675698D02*
X10824944Y-16685222D01*
X10824944Y-16685222D02*
X10834468Y-16704269D01*
X10834468Y-16704269D02*
X10834468Y-16751888D01*
X10834468Y-16751888D02*
X10824944Y-16770936D01*
X10824944Y-16770936D02*
X10815420Y-16780460D01*
X10815420Y-16780460D02*
X10796372Y-16789984D01*
X10796372Y-16789984D02*
X10748753Y-16789984D01*
X10748753Y-16789984D02*
X10729706Y-16780460D01*
X10729706Y-16780460D02*
X10720182Y-16770936D01*
X11005896Y-16656650D02*
X11005896Y-16789984D01*
X10958277Y-16580460D02*
X10910658Y-16723317D01*
X10910658Y-16723317D02*
X11034468Y-16723317D01*
X11101134Y-16589984D02*
X11101134Y-16628079D01*
X11177325Y-16589984D02*
X11177325Y-16628079D01*
X11472563Y-16866174D02*
X11463039Y-16856650D01*
X11463039Y-16856650D02*
X11443991Y-16828079D01*
X11443991Y-16828079D02*
X11434468Y-16809031D01*
X11434468Y-16809031D02*
X11424944Y-16780460D01*
X11424944Y-16780460D02*
X11415420Y-16732841D01*
X11415420Y-16732841D02*
X11415420Y-16694746D01*
X11415420Y-16694746D02*
X11424944Y-16647127D01*
X11424944Y-16647127D02*
X11434468Y-16618555D01*
X11434468Y-16618555D02*
X11443991Y-16599508D01*
X11443991Y-16599508D02*
X11463039Y-16570936D01*
X11463039Y-16570936D02*
X11472563Y-16561412D01*
X11634468Y-16656650D02*
X11634468Y-16789984D01*
X11586848Y-16580460D02*
X11539229Y-16723317D01*
X11539229Y-16723317D02*
X11663039Y-16723317D01*
X11891610Y-16789984D02*
X11891610Y-16589984D01*
X11977325Y-16789984D02*
X11977325Y-16685222D01*
X11977325Y-16685222D02*
X11967801Y-16666174D01*
X11967801Y-16666174D02*
X11948753Y-16656650D01*
X11948753Y-16656650D02*
X11920182Y-16656650D01*
X11920182Y-16656650D02*
X11901134Y-16666174D01*
X11901134Y-16666174D02*
X11891610Y-16675698D01*
X12101134Y-16789984D02*
X12082087Y-16780460D01*
X12082087Y-16780460D02*
X12072563Y-16770936D01*
X12072563Y-16770936D02*
X12063039Y-16751888D01*
X12063039Y-16751888D02*
X12063039Y-16694746D01*
X12063039Y-16694746D02*
X12072563Y-16675698D01*
X12072563Y-16675698D02*
X12082087Y-16666174D01*
X12082087Y-16666174D02*
X12101134Y-16656650D01*
X12101134Y-16656650D02*
X12129706Y-16656650D01*
X12129706Y-16656650D02*
X12148753Y-16666174D01*
X12148753Y-16666174D02*
X12158277Y-16675698D01*
X12158277Y-16675698D02*
X12167801Y-16694746D01*
X12167801Y-16694746D02*
X12167801Y-16751888D01*
X12167801Y-16751888D02*
X12158277Y-16770936D01*
X12158277Y-16770936D02*
X12148753Y-16780460D01*
X12148753Y-16780460D02*
X12129706Y-16789984D01*
X12129706Y-16789984D02*
X12101134Y-16789984D01*
X12282087Y-16789984D02*
X12263039Y-16780460D01*
X12263039Y-16780460D02*
X12253515Y-16761412D01*
X12253515Y-16761412D02*
X12253515Y-16589984D01*
X12434468Y-16780460D02*
X12415420Y-16789984D01*
X12415420Y-16789984D02*
X12377325Y-16789984D01*
X12377325Y-16789984D02*
X12358277Y-16780460D01*
X12358277Y-16780460D02*
X12348753Y-16761412D01*
X12348753Y-16761412D02*
X12348753Y-16685222D01*
X12348753Y-16685222D02*
X12358277Y-16666174D01*
X12358277Y-16666174D02*
X12377325Y-16656650D01*
X12377325Y-16656650D02*
X12415420Y-16656650D01*
X12415420Y-16656650D02*
X12434468Y-16666174D01*
X12434468Y-16666174D02*
X12443991Y-16685222D01*
X12443991Y-16685222D02*
X12443991Y-16704269D01*
X12443991Y-16704269D02*
X12348753Y-16723317D01*
X12520182Y-16780460D02*
X12539230Y-16789984D01*
X12539230Y-16789984D02*
X12577325Y-16789984D01*
X12577325Y-16789984D02*
X12596372Y-16780460D01*
X12596372Y-16780460D02*
X12605896Y-16761412D01*
X12605896Y-16761412D02*
X12605896Y-16751888D01*
X12605896Y-16751888D02*
X12596372Y-16732841D01*
X12596372Y-16732841D02*
X12577325Y-16723317D01*
X12577325Y-16723317D02*
X12548753Y-16723317D01*
X12548753Y-16723317D02*
X12529706Y-16713793D01*
X12529706Y-16713793D02*
X12520182Y-16694746D01*
X12520182Y-16694746D02*
X12520182Y-16685222D01*
X12520182Y-16685222D02*
X12529706Y-16666174D01*
X12529706Y-16666174D02*
X12548753Y-16656650D01*
X12548753Y-16656650D02*
X12577325Y-16656650D01*
X12577325Y-16656650D02*
X12596372Y-16666174D01*
X12672563Y-16866174D02*
X12682087Y-16856650D01*
X12682087Y-16856650D02*
X12701134Y-16828079D01*
X12701134Y-16828079D02*
X12710658Y-16809031D01*
X12710658Y-16809031D02*
X12720182Y-16780460D01*
X12720182Y-16780460D02*
X12729706Y-16732841D01*
X12729706Y-16732841D02*
X12729706Y-16694746D01*
X12729706Y-16694746D02*
X12720182Y-16647127D01*
X12720182Y-16647127D02*
X12710658Y-16618555D01*
X12710658Y-16618555D02*
X12701134Y-16599508D01*
X12701134Y-16599508D02*
X12682087Y-16570936D01*
X12682087Y-16570936D02*
X12672563Y-16561412D01*
D12*
X7797500Y-16912500D02*
X7897500Y-17012500D01*
X7897500Y-16912500D02*
X7797500Y-17012500D01*
X7897500Y-16962500D02*
G75*
G02*
X7797500Y-16962500I-50000J0D01*
G01*
X7797500Y-16962500D02*
G75*
G02*
X7897500Y-16962500I50000J0D01*
G01*
D11*
X8263039Y-17053984D02*
X8148753Y-17053984D01*
X8205896Y-17053984D02*
X8205896Y-16853984D01*
X8205896Y-16853984D02*
X8186848Y-16882555D01*
X8186848Y-16882555D02*
X8167801Y-16901603D01*
X8167801Y-16901603D02*
X8148753Y-16911127D01*
X8348753Y-17034936D02*
X8358277Y-17044460D01*
X8358277Y-17044460D02*
X8348753Y-17053984D01*
X8348753Y-17053984D02*
X8339229Y-17044460D01*
X8339229Y-17044460D02*
X8348753Y-17034936D01*
X8348753Y-17034936D02*
X8348753Y-17053984D01*
X8482086Y-16853984D02*
X8501134Y-16853984D01*
X8501134Y-16853984D02*
X8520182Y-16863508D01*
X8520182Y-16863508D02*
X8529705Y-16873031D01*
X8529705Y-16873031D02*
X8539229Y-16892079D01*
X8539229Y-16892079D02*
X8548753Y-16930174D01*
X8548753Y-16930174D02*
X8548753Y-16977793D01*
X8548753Y-16977793D02*
X8539229Y-17015889D01*
X8539229Y-17015889D02*
X8529705Y-17034936D01*
X8529705Y-17034936D02*
X8520182Y-17044460D01*
X8520182Y-17044460D02*
X8501134Y-17053984D01*
X8501134Y-17053984D02*
X8482086Y-17053984D01*
X8482086Y-17053984D02*
X8463039Y-17044460D01*
X8463039Y-17044460D02*
X8453515Y-17034936D01*
X8453515Y-17034936D02*
X8443991Y-17015889D01*
X8443991Y-17015889D02*
X8434467Y-16977793D01*
X8434467Y-16977793D02*
X8434467Y-16930174D01*
X8434467Y-16930174D02*
X8443991Y-16892079D01*
X8443991Y-16892079D02*
X8453515Y-16873031D01*
X8453515Y-16873031D02*
X8463039Y-16863508D01*
X8463039Y-16863508D02*
X8482086Y-16853984D01*
X8672563Y-16853984D02*
X8691610Y-16853984D01*
X8691610Y-16853984D02*
X8710658Y-16863508D01*
X8710658Y-16863508D02*
X8720182Y-16873031D01*
X8720182Y-16873031D02*
X8729705Y-16892079D01*
X8729705Y-16892079D02*
X8739229Y-16930174D01*
X8739229Y-16930174D02*
X8739229Y-16977793D01*
X8739229Y-16977793D02*
X8729705Y-17015889D01*
X8729705Y-17015889D02*
X8720182Y-17034936D01*
X8720182Y-17034936D02*
X8710658Y-17044460D01*
X8710658Y-17044460D02*
X8691610Y-17053984D01*
X8691610Y-17053984D02*
X8672563Y-17053984D01*
X8672563Y-17053984D02*
X8653515Y-17044460D01*
X8653515Y-17044460D02*
X8643991Y-17034936D01*
X8643991Y-17034936D02*
X8634467Y-17015889D01*
X8634467Y-17015889D02*
X8624944Y-16977793D01*
X8624944Y-16977793D02*
X8624944Y-16930174D01*
X8624944Y-16930174D02*
X8634467Y-16892079D01*
X8634467Y-16892079D02*
X8643991Y-16873031D01*
X8643991Y-16873031D02*
X8653515Y-16863508D01*
X8653515Y-16863508D02*
X8672563Y-16853984D01*
X8863039Y-16853984D02*
X8882086Y-16853984D01*
X8882086Y-16853984D02*
X8901134Y-16863508D01*
X8901134Y-16863508D02*
X8910658Y-16873031D01*
X8910658Y-16873031D02*
X8920182Y-16892079D01*
X8920182Y-16892079D02*
X8929705Y-16930174D01*
X8929705Y-16930174D02*
X8929705Y-16977793D01*
X8929705Y-16977793D02*
X8920182Y-17015889D01*
X8920182Y-17015889D02*
X8910658Y-17034936D01*
X8910658Y-17034936D02*
X8901134Y-17044460D01*
X8901134Y-17044460D02*
X8882086Y-17053984D01*
X8882086Y-17053984D02*
X8863039Y-17053984D01*
X8863039Y-17053984D02*
X8843991Y-17044460D01*
X8843991Y-17044460D02*
X8834467Y-17034936D01*
X8834467Y-17034936D02*
X8824944Y-17015889D01*
X8824944Y-17015889D02*
X8815420Y-16977793D01*
X8815420Y-16977793D02*
X8815420Y-16930174D01*
X8815420Y-16930174D02*
X8824944Y-16892079D01*
X8824944Y-16892079D02*
X8834467Y-16873031D01*
X8834467Y-16873031D02*
X8843991Y-16863508D01*
X8843991Y-16863508D02*
X8863039Y-16853984D01*
X9015420Y-17053984D02*
X9015420Y-16920650D01*
X9015420Y-16939698D02*
X9024944Y-16930174D01*
X9024944Y-16930174D02*
X9043991Y-16920650D01*
X9043991Y-16920650D02*
X9072563Y-16920650D01*
X9072563Y-16920650D02*
X9091610Y-16930174D01*
X9091610Y-16930174D02*
X9101134Y-16949222D01*
X9101134Y-16949222D02*
X9101134Y-17053984D01*
X9101134Y-16949222D02*
X9110658Y-16930174D01*
X9110658Y-16930174D02*
X9129705Y-16920650D01*
X9129705Y-16920650D02*
X9158277Y-16920650D01*
X9158277Y-16920650D02*
X9177325Y-16930174D01*
X9177325Y-16930174D02*
X9186848Y-16949222D01*
X9186848Y-16949222D02*
X9186848Y-17053984D01*
X9282086Y-17053984D02*
X9282086Y-16920650D01*
X9282086Y-16939698D02*
X9291610Y-16930174D01*
X9291610Y-16930174D02*
X9310658Y-16920650D01*
X9310658Y-16920650D02*
X9339229Y-16920650D01*
X9339229Y-16920650D02*
X9358277Y-16930174D01*
X9358277Y-16930174D02*
X9367801Y-16949222D01*
X9367801Y-16949222D02*
X9367801Y-17053984D01*
X9367801Y-16949222D02*
X9377325Y-16930174D01*
X9377325Y-16930174D02*
X9396372Y-16920650D01*
X9396372Y-16920650D02*
X9424944Y-16920650D01*
X9424944Y-16920650D02*
X9443991Y-16930174D01*
X9443991Y-16930174D02*
X9453515Y-16949222D01*
X9453515Y-16949222D02*
X9453515Y-17053984D01*
X9843991Y-16844460D02*
X9672563Y-17101603D01*
X10101134Y-16853984D02*
X10120182Y-16853984D01*
X10120182Y-16853984D02*
X10139229Y-16863508D01*
X10139229Y-16863508D02*
X10148753Y-16873031D01*
X10148753Y-16873031D02*
X10158277Y-16892079D01*
X10158277Y-16892079D02*
X10167801Y-16930174D01*
X10167801Y-16930174D02*
X10167801Y-16977793D01*
X10167801Y-16977793D02*
X10158277Y-17015889D01*
X10158277Y-17015889D02*
X10148753Y-17034936D01*
X10148753Y-17034936D02*
X10139229Y-17044460D01*
X10139229Y-17044460D02*
X10120182Y-17053984D01*
X10120182Y-17053984D02*
X10101134Y-17053984D01*
X10101134Y-17053984D02*
X10082087Y-17044460D01*
X10082087Y-17044460D02*
X10072563Y-17034936D01*
X10072563Y-17034936D02*
X10063039Y-17015889D01*
X10063039Y-17015889D02*
X10053515Y-16977793D01*
X10053515Y-16977793D02*
X10053515Y-16930174D01*
X10053515Y-16930174D02*
X10063039Y-16892079D01*
X10063039Y-16892079D02*
X10072563Y-16873031D01*
X10072563Y-16873031D02*
X10082087Y-16863508D01*
X10082087Y-16863508D02*
X10101134Y-16853984D01*
X10253515Y-17034936D02*
X10263039Y-17044460D01*
X10263039Y-17044460D02*
X10253515Y-17053984D01*
X10253515Y-17053984D02*
X10243991Y-17044460D01*
X10243991Y-17044460D02*
X10253515Y-17034936D01*
X10253515Y-17034936D02*
X10253515Y-17053984D01*
X10386848Y-16853984D02*
X10405896Y-16853984D01*
X10405896Y-16853984D02*
X10424944Y-16863508D01*
X10424944Y-16863508D02*
X10434468Y-16873031D01*
X10434468Y-16873031D02*
X10443991Y-16892079D01*
X10443991Y-16892079D02*
X10453515Y-16930174D01*
X10453515Y-16930174D02*
X10453515Y-16977793D01*
X10453515Y-16977793D02*
X10443991Y-17015889D01*
X10443991Y-17015889D02*
X10434468Y-17034936D01*
X10434468Y-17034936D02*
X10424944Y-17044460D01*
X10424944Y-17044460D02*
X10405896Y-17053984D01*
X10405896Y-17053984D02*
X10386848Y-17053984D01*
X10386848Y-17053984D02*
X10367801Y-17044460D01*
X10367801Y-17044460D02*
X10358277Y-17034936D01*
X10358277Y-17034936D02*
X10348753Y-17015889D01*
X10348753Y-17015889D02*
X10339229Y-16977793D01*
X10339229Y-16977793D02*
X10339229Y-16930174D01*
X10339229Y-16930174D02*
X10348753Y-16892079D01*
X10348753Y-16892079D02*
X10358277Y-16873031D01*
X10358277Y-16873031D02*
X10367801Y-16863508D01*
X10367801Y-16863508D02*
X10386848Y-16853984D01*
X10520182Y-16853984D02*
X10643991Y-16853984D01*
X10643991Y-16853984D02*
X10577325Y-16930174D01*
X10577325Y-16930174D02*
X10605896Y-16930174D01*
X10605896Y-16930174D02*
X10624944Y-16939698D01*
X10624944Y-16939698D02*
X10634468Y-16949222D01*
X10634468Y-16949222D02*
X10643991Y-16968270D01*
X10643991Y-16968270D02*
X10643991Y-17015889D01*
X10643991Y-17015889D02*
X10634468Y-17034936D01*
X10634468Y-17034936D02*
X10624944Y-17044460D01*
X10624944Y-17044460D02*
X10605896Y-17053984D01*
X10605896Y-17053984D02*
X10548753Y-17053984D01*
X10548753Y-17053984D02*
X10529706Y-17044460D01*
X10529706Y-17044460D02*
X10520182Y-17034936D01*
X10739229Y-17053984D02*
X10777325Y-17053984D01*
X10777325Y-17053984D02*
X10796372Y-17044460D01*
X10796372Y-17044460D02*
X10805896Y-17034936D01*
X10805896Y-17034936D02*
X10824944Y-17006365D01*
X10824944Y-17006365D02*
X10834468Y-16968270D01*
X10834468Y-16968270D02*
X10834468Y-16892079D01*
X10834468Y-16892079D02*
X10824944Y-16873031D01*
X10824944Y-16873031D02*
X10815420Y-16863508D01*
X10815420Y-16863508D02*
X10796372Y-16853984D01*
X10796372Y-16853984D02*
X10758277Y-16853984D01*
X10758277Y-16853984D02*
X10739229Y-16863508D01*
X10739229Y-16863508D02*
X10729706Y-16873031D01*
X10729706Y-16873031D02*
X10720182Y-16892079D01*
X10720182Y-16892079D02*
X10720182Y-16939698D01*
X10720182Y-16939698D02*
X10729706Y-16958746D01*
X10729706Y-16958746D02*
X10739229Y-16968270D01*
X10739229Y-16968270D02*
X10758277Y-16977793D01*
X10758277Y-16977793D02*
X10796372Y-16977793D01*
X10796372Y-16977793D02*
X10815420Y-16968270D01*
X10815420Y-16968270D02*
X10824944Y-16958746D01*
X10824944Y-16958746D02*
X10834468Y-16939698D01*
X11005896Y-16920650D02*
X11005896Y-17053984D01*
X10958277Y-16844460D02*
X10910658Y-16987317D01*
X10910658Y-16987317D02*
X11034468Y-16987317D01*
X11101134Y-16853984D02*
X11101134Y-16892079D01*
X11177325Y-16853984D02*
X11177325Y-16892079D01*
X11472563Y-17130174D02*
X11463039Y-17120650D01*
X11463039Y-17120650D02*
X11443991Y-17092079D01*
X11443991Y-17092079D02*
X11434468Y-17073031D01*
X11434468Y-17073031D02*
X11424944Y-17044460D01*
X11424944Y-17044460D02*
X11415420Y-16996841D01*
X11415420Y-16996841D02*
X11415420Y-16958746D01*
X11415420Y-16958746D02*
X11424944Y-16911127D01*
X11424944Y-16911127D02*
X11434468Y-16882555D01*
X11434468Y-16882555D02*
X11443991Y-16863508D01*
X11443991Y-16863508D02*
X11463039Y-16834936D01*
X11463039Y-16834936D02*
X11472563Y-16825412D01*
X11539229Y-16873031D02*
X11548753Y-16863508D01*
X11548753Y-16863508D02*
X11567801Y-16853984D01*
X11567801Y-16853984D02*
X11615420Y-16853984D01*
X11615420Y-16853984D02*
X11634468Y-16863508D01*
X11634468Y-16863508D02*
X11643991Y-16873031D01*
X11643991Y-16873031D02*
X11653515Y-16892079D01*
X11653515Y-16892079D02*
X11653515Y-16911127D01*
X11653515Y-16911127D02*
X11643991Y-16939698D01*
X11643991Y-16939698D02*
X11529706Y-17053984D01*
X11529706Y-17053984D02*
X11653515Y-17053984D01*
X11720182Y-16853984D02*
X11853515Y-16853984D01*
X11853515Y-16853984D02*
X11767801Y-17053984D01*
X12082087Y-17053984D02*
X12082087Y-16853984D01*
X12167801Y-17053984D02*
X12167801Y-16949222D01*
X12167801Y-16949222D02*
X12158277Y-16930174D01*
X12158277Y-16930174D02*
X12139230Y-16920650D01*
X12139230Y-16920650D02*
X12110658Y-16920650D01*
X12110658Y-16920650D02*
X12091610Y-16930174D01*
X12091610Y-16930174D02*
X12082087Y-16939698D01*
X12291610Y-17053984D02*
X12272563Y-17044460D01*
X12272563Y-17044460D02*
X12263039Y-17034936D01*
X12263039Y-17034936D02*
X12253515Y-17015889D01*
X12253515Y-17015889D02*
X12253515Y-16958746D01*
X12253515Y-16958746D02*
X12263039Y-16939698D01*
X12263039Y-16939698D02*
X12272563Y-16930174D01*
X12272563Y-16930174D02*
X12291610Y-16920650D01*
X12291610Y-16920650D02*
X12320182Y-16920650D01*
X12320182Y-16920650D02*
X12339230Y-16930174D01*
X12339230Y-16930174D02*
X12348753Y-16939698D01*
X12348753Y-16939698D02*
X12358277Y-16958746D01*
X12358277Y-16958746D02*
X12358277Y-17015889D01*
X12358277Y-17015889D02*
X12348753Y-17034936D01*
X12348753Y-17034936D02*
X12339230Y-17044460D01*
X12339230Y-17044460D02*
X12320182Y-17053984D01*
X12320182Y-17053984D02*
X12291610Y-17053984D01*
X12472563Y-17053984D02*
X12453515Y-17044460D01*
X12453515Y-17044460D02*
X12443991Y-17025412D01*
X12443991Y-17025412D02*
X12443991Y-16853984D01*
X12624944Y-17044460D02*
X12605896Y-17053984D01*
X12605896Y-17053984D02*
X12567801Y-17053984D01*
X12567801Y-17053984D02*
X12548753Y-17044460D01*
X12548753Y-17044460D02*
X12539230Y-17025412D01*
X12539230Y-17025412D02*
X12539230Y-16949222D01*
X12539230Y-16949222D02*
X12548753Y-16930174D01*
X12548753Y-16930174D02*
X12567801Y-16920650D01*
X12567801Y-16920650D02*
X12605896Y-16920650D01*
X12605896Y-16920650D02*
X12624944Y-16930174D01*
X12624944Y-16930174D02*
X12634468Y-16949222D01*
X12634468Y-16949222D02*
X12634468Y-16968270D01*
X12634468Y-16968270D02*
X12539230Y-16987317D01*
X12710658Y-17044460D02*
X12729706Y-17053984D01*
X12729706Y-17053984D02*
X12767801Y-17053984D01*
X12767801Y-17053984D02*
X12786849Y-17044460D01*
X12786849Y-17044460D02*
X12796372Y-17025412D01*
X12796372Y-17025412D02*
X12796372Y-17015889D01*
X12796372Y-17015889D02*
X12786849Y-16996841D01*
X12786849Y-16996841D02*
X12767801Y-16987317D01*
X12767801Y-16987317D02*
X12739230Y-16987317D01*
X12739230Y-16987317D02*
X12720182Y-16977793D01*
X12720182Y-16977793D02*
X12710658Y-16958746D01*
X12710658Y-16958746D02*
X12710658Y-16949222D01*
X12710658Y-16949222D02*
X12720182Y-16930174D01*
X12720182Y-16930174D02*
X12739230Y-16920650D01*
X12739230Y-16920650D02*
X12767801Y-16920650D01*
X12767801Y-16920650D02*
X12786849Y-16930174D01*
X12863039Y-17130174D02*
X12872563Y-17120650D01*
X12872563Y-17120650D02*
X12891611Y-17092079D01*
X12891611Y-17092079D02*
X12901134Y-17073031D01*
X12901134Y-17073031D02*
X12910658Y-17044460D01*
X12910658Y-17044460D02*
X12920182Y-16996841D01*
X12920182Y-16996841D02*
X12920182Y-16958746D01*
X12920182Y-16958746D02*
X12910658Y-16911127D01*
X12910658Y-16911127D02*
X12901134Y-16882555D01*
X12901134Y-16882555D02*
X12891611Y-16863508D01*
X12891611Y-16863508D02*
X12872563Y-16834936D01*
X12872563Y-16834936D02*
X12863039Y-16825412D01*
D13*
X7787500Y-17171500D02*
X7897500Y-17281500D01*
X7897500Y-17171500D02*
X7787500Y-17281500D01*
X7842500Y-17171500D02*
X7842500Y-17281500D01*
X7787500Y-17226500D02*
X7897500Y-17226500D01*
D11*
X8263039Y-17317984D02*
X8148753Y-17317984D01*
X8205896Y-17317984D02*
X8205896Y-17117984D01*
X8205896Y-17117984D02*
X8186848Y-17146555D01*
X8186848Y-17146555D02*
X8167801Y-17165603D01*
X8167801Y-17165603D02*
X8148753Y-17175127D01*
X8348753Y-17298936D02*
X8358277Y-17308460D01*
X8358277Y-17308460D02*
X8348753Y-17317984D01*
X8348753Y-17317984D02*
X8339229Y-17308460D01*
X8339229Y-17308460D02*
X8348753Y-17298936D01*
X8348753Y-17298936D02*
X8348753Y-17317984D01*
X8548753Y-17317984D02*
X8434467Y-17317984D01*
X8491610Y-17317984D02*
X8491610Y-17117984D01*
X8491610Y-17117984D02*
X8472563Y-17146555D01*
X8472563Y-17146555D02*
X8453515Y-17165603D01*
X8453515Y-17165603D02*
X8434467Y-17175127D01*
X8672563Y-17117984D02*
X8691610Y-17117984D01*
X8691610Y-17117984D02*
X8710658Y-17127508D01*
X8710658Y-17127508D02*
X8720182Y-17137031D01*
X8720182Y-17137031D02*
X8729705Y-17156079D01*
X8729705Y-17156079D02*
X8739229Y-17194174D01*
X8739229Y-17194174D02*
X8739229Y-17241793D01*
X8739229Y-17241793D02*
X8729705Y-17279889D01*
X8729705Y-17279889D02*
X8720182Y-17298936D01*
X8720182Y-17298936D02*
X8710658Y-17308460D01*
X8710658Y-17308460D02*
X8691610Y-17317984D01*
X8691610Y-17317984D02*
X8672563Y-17317984D01*
X8672563Y-17317984D02*
X8653515Y-17308460D01*
X8653515Y-17308460D02*
X8643991Y-17298936D01*
X8643991Y-17298936D02*
X8634467Y-17279889D01*
X8634467Y-17279889D02*
X8624944Y-17241793D01*
X8624944Y-17241793D02*
X8624944Y-17194174D01*
X8624944Y-17194174D02*
X8634467Y-17156079D01*
X8634467Y-17156079D02*
X8643991Y-17137031D01*
X8643991Y-17137031D02*
X8653515Y-17127508D01*
X8653515Y-17127508D02*
X8672563Y-17117984D01*
X8863039Y-17117984D02*
X8882086Y-17117984D01*
X8882086Y-17117984D02*
X8901134Y-17127508D01*
X8901134Y-17127508D02*
X8910658Y-17137031D01*
X8910658Y-17137031D02*
X8920182Y-17156079D01*
X8920182Y-17156079D02*
X8929705Y-17194174D01*
X8929705Y-17194174D02*
X8929705Y-17241793D01*
X8929705Y-17241793D02*
X8920182Y-17279889D01*
X8920182Y-17279889D02*
X8910658Y-17298936D01*
X8910658Y-17298936D02*
X8901134Y-17308460D01*
X8901134Y-17308460D02*
X8882086Y-17317984D01*
X8882086Y-17317984D02*
X8863039Y-17317984D01*
X8863039Y-17317984D02*
X8843991Y-17308460D01*
X8843991Y-17308460D02*
X8834467Y-17298936D01*
X8834467Y-17298936D02*
X8824944Y-17279889D01*
X8824944Y-17279889D02*
X8815420Y-17241793D01*
X8815420Y-17241793D02*
X8815420Y-17194174D01*
X8815420Y-17194174D02*
X8824944Y-17156079D01*
X8824944Y-17156079D02*
X8834467Y-17137031D01*
X8834467Y-17137031D02*
X8843991Y-17127508D01*
X8843991Y-17127508D02*
X8863039Y-17117984D01*
X9015420Y-17317984D02*
X9015420Y-17184650D01*
X9015420Y-17203698D02*
X9024944Y-17194174D01*
X9024944Y-17194174D02*
X9043991Y-17184650D01*
X9043991Y-17184650D02*
X9072563Y-17184650D01*
X9072563Y-17184650D02*
X9091610Y-17194174D01*
X9091610Y-17194174D02*
X9101134Y-17213222D01*
X9101134Y-17213222D02*
X9101134Y-17317984D01*
X9101134Y-17213222D02*
X9110658Y-17194174D01*
X9110658Y-17194174D02*
X9129705Y-17184650D01*
X9129705Y-17184650D02*
X9158277Y-17184650D01*
X9158277Y-17184650D02*
X9177325Y-17194174D01*
X9177325Y-17194174D02*
X9186848Y-17213222D01*
X9186848Y-17213222D02*
X9186848Y-17317984D01*
X9282086Y-17317984D02*
X9282086Y-17184650D01*
X9282086Y-17203698D02*
X9291610Y-17194174D01*
X9291610Y-17194174D02*
X9310658Y-17184650D01*
X9310658Y-17184650D02*
X9339229Y-17184650D01*
X9339229Y-17184650D02*
X9358277Y-17194174D01*
X9358277Y-17194174D02*
X9367801Y-17213222D01*
X9367801Y-17213222D02*
X9367801Y-17317984D01*
X9367801Y-17213222D02*
X9377325Y-17194174D01*
X9377325Y-17194174D02*
X9396372Y-17184650D01*
X9396372Y-17184650D02*
X9424944Y-17184650D01*
X9424944Y-17184650D02*
X9443991Y-17194174D01*
X9443991Y-17194174D02*
X9453515Y-17213222D01*
X9453515Y-17213222D02*
X9453515Y-17317984D01*
X9843991Y-17108460D02*
X9672563Y-17365603D01*
X10101134Y-17117984D02*
X10120182Y-17117984D01*
X10120182Y-17117984D02*
X10139229Y-17127508D01*
X10139229Y-17127508D02*
X10148753Y-17137031D01*
X10148753Y-17137031D02*
X10158277Y-17156079D01*
X10158277Y-17156079D02*
X10167801Y-17194174D01*
X10167801Y-17194174D02*
X10167801Y-17241793D01*
X10167801Y-17241793D02*
X10158277Y-17279889D01*
X10158277Y-17279889D02*
X10148753Y-17298936D01*
X10148753Y-17298936D02*
X10139229Y-17308460D01*
X10139229Y-17308460D02*
X10120182Y-17317984D01*
X10120182Y-17317984D02*
X10101134Y-17317984D01*
X10101134Y-17317984D02*
X10082087Y-17308460D01*
X10082087Y-17308460D02*
X10072563Y-17298936D01*
X10072563Y-17298936D02*
X10063039Y-17279889D01*
X10063039Y-17279889D02*
X10053515Y-17241793D01*
X10053515Y-17241793D02*
X10053515Y-17194174D01*
X10053515Y-17194174D02*
X10063039Y-17156079D01*
X10063039Y-17156079D02*
X10072563Y-17137031D01*
X10072563Y-17137031D02*
X10082087Y-17127508D01*
X10082087Y-17127508D02*
X10101134Y-17117984D01*
X10253515Y-17298936D02*
X10263039Y-17308460D01*
X10263039Y-17308460D02*
X10253515Y-17317984D01*
X10253515Y-17317984D02*
X10243991Y-17308460D01*
X10243991Y-17308460D02*
X10253515Y-17298936D01*
X10253515Y-17298936D02*
X10253515Y-17317984D01*
X10386848Y-17117984D02*
X10405896Y-17117984D01*
X10405896Y-17117984D02*
X10424944Y-17127508D01*
X10424944Y-17127508D02*
X10434468Y-17137031D01*
X10434468Y-17137031D02*
X10443991Y-17156079D01*
X10443991Y-17156079D02*
X10453515Y-17194174D01*
X10453515Y-17194174D02*
X10453515Y-17241793D01*
X10453515Y-17241793D02*
X10443991Y-17279889D01*
X10443991Y-17279889D02*
X10434468Y-17298936D01*
X10434468Y-17298936D02*
X10424944Y-17308460D01*
X10424944Y-17308460D02*
X10405896Y-17317984D01*
X10405896Y-17317984D02*
X10386848Y-17317984D01*
X10386848Y-17317984D02*
X10367801Y-17308460D01*
X10367801Y-17308460D02*
X10358277Y-17298936D01*
X10358277Y-17298936D02*
X10348753Y-17279889D01*
X10348753Y-17279889D02*
X10339229Y-17241793D01*
X10339229Y-17241793D02*
X10339229Y-17194174D01*
X10339229Y-17194174D02*
X10348753Y-17156079D01*
X10348753Y-17156079D02*
X10358277Y-17137031D01*
X10358277Y-17137031D02*
X10367801Y-17127508D01*
X10367801Y-17127508D02*
X10386848Y-17117984D01*
X10624944Y-17184650D02*
X10624944Y-17317984D01*
X10577325Y-17108460D02*
X10529706Y-17251317D01*
X10529706Y-17251317D02*
X10653515Y-17251317D01*
X10710658Y-17117984D02*
X10834468Y-17117984D01*
X10834468Y-17117984D02*
X10767801Y-17194174D01*
X10767801Y-17194174D02*
X10796372Y-17194174D01*
X10796372Y-17194174D02*
X10815420Y-17203698D01*
X10815420Y-17203698D02*
X10824944Y-17213222D01*
X10824944Y-17213222D02*
X10834468Y-17232270D01*
X10834468Y-17232270D02*
X10834468Y-17279889D01*
X10834468Y-17279889D02*
X10824944Y-17298936D01*
X10824944Y-17298936D02*
X10815420Y-17308460D01*
X10815420Y-17308460D02*
X10796372Y-17317984D01*
X10796372Y-17317984D02*
X10739229Y-17317984D01*
X10739229Y-17317984D02*
X10720182Y-17308460D01*
X10720182Y-17308460D02*
X10710658Y-17298936D01*
X10901134Y-17117984D02*
X11024944Y-17117984D01*
X11024944Y-17117984D02*
X10958277Y-17194174D01*
X10958277Y-17194174D02*
X10986849Y-17194174D01*
X10986849Y-17194174D02*
X11005896Y-17203698D01*
X11005896Y-17203698D02*
X11015420Y-17213222D01*
X11015420Y-17213222D02*
X11024944Y-17232270D01*
X11024944Y-17232270D02*
X11024944Y-17279889D01*
X11024944Y-17279889D02*
X11015420Y-17298936D01*
X11015420Y-17298936D02*
X11005896Y-17308460D01*
X11005896Y-17308460D02*
X10986849Y-17317984D01*
X10986849Y-17317984D02*
X10929706Y-17317984D01*
X10929706Y-17317984D02*
X10910658Y-17308460D01*
X10910658Y-17308460D02*
X10901134Y-17298936D01*
X11101134Y-17117984D02*
X11101134Y-17156079D01*
X11177325Y-17117984D02*
X11177325Y-17156079D01*
X11472563Y-17394174D02*
X11463039Y-17384650D01*
X11463039Y-17384650D02*
X11443991Y-17356079D01*
X11443991Y-17356079D02*
X11434468Y-17337031D01*
X11434468Y-17337031D02*
X11424944Y-17308460D01*
X11424944Y-17308460D02*
X11415420Y-17260841D01*
X11415420Y-17260841D02*
X11415420Y-17222746D01*
X11415420Y-17222746D02*
X11424944Y-17175127D01*
X11424944Y-17175127D02*
X11434468Y-17146555D01*
X11434468Y-17146555D02*
X11443991Y-17127508D01*
X11443991Y-17127508D02*
X11463039Y-17098936D01*
X11463039Y-17098936D02*
X11472563Y-17089412D01*
X11653515Y-17317984D02*
X11539229Y-17317984D01*
X11596372Y-17317984D02*
X11596372Y-17117984D01*
X11596372Y-17117984D02*
X11577325Y-17146555D01*
X11577325Y-17146555D02*
X11558277Y-17165603D01*
X11558277Y-17165603D02*
X11539229Y-17175127D01*
X11729706Y-17137031D02*
X11739229Y-17127508D01*
X11739229Y-17127508D02*
X11758277Y-17117984D01*
X11758277Y-17117984D02*
X11805896Y-17117984D01*
X11805896Y-17117984D02*
X11824944Y-17127508D01*
X11824944Y-17127508D02*
X11834468Y-17137031D01*
X11834468Y-17137031D02*
X11843991Y-17156079D01*
X11843991Y-17156079D02*
X11843991Y-17175127D01*
X11843991Y-17175127D02*
X11834468Y-17203698D01*
X11834468Y-17203698D02*
X11720182Y-17317984D01*
X11720182Y-17317984D02*
X11843991Y-17317984D01*
X12082087Y-17317984D02*
X12082087Y-17117984D01*
X12167801Y-17317984D02*
X12167801Y-17213222D01*
X12167801Y-17213222D02*
X12158277Y-17194174D01*
X12158277Y-17194174D02*
X12139230Y-17184650D01*
X12139230Y-17184650D02*
X12110658Y-17184650D01*
X12110658Y-17184650D02*
X12091610Y-17194174D01*
X12091610Y-17194174D02*
X12082087Y-17203698D01*
X12291610Y-17317984D02*
X12272563Y-17308460D01*
X12272563Y-17308460D02*
X12263039Y-17298936D01*
X12263039Y-17298936D02*
X12253515Y-17279889D01*
X12253515Y-17279889D02*
X12253515Y-17222746D01*
X12253515Y-17222746D02*
X12263039Y-17203698D01*
X12263039Y-17203698D02*
X12272563Y-17194174D01*
X12272563Y-17194174D02*
X12291610Y-17184650D01*
X12291610Y-17184650D02*
X12320182Y-17184650D01*
X12320182Y-17184650D02*
X12339230Y-17194174D01*
X12339230Y-17194174D02*
X12348753Y-17203698D01*
X12348753Y-17203698D02*
X12358277Y-17222746D01*
X12358277Y-17222746D02*
X12358277Y-17279889D01*
X12358277Y-17279889D02*
X12348753Y-17298936D01*
X12348753Y-17298936D02*
X12339230Y-17308460D01*
X12339230Y-17308460D02*
X12320182Y-17317984D01*
X12320182Y-17317984D02*
X12291610Y-17317984D01*
X12472563Y-17317984D02*
X12453515Y-17308460D01*
X12453515Y-17308460D02*
X12443991Y-17289412D01*
X12443991Y-17289412D02*
X12443991Y-17117984D01*
X12624944Y-17308460D02*
X12605896Y-17317984D01*
X12605896Y-17317984D02*
X12567801Y-17317984D01*
X12567801Y-17317984D02*
X12548753Y-17308460D01*
X12548753Y-17308460D02*
X12539230Y-17289412D01*
X12539230Y-17289412D02*
X12539230Y-17213222D01*
X12539230Y-17213222D02*
X12548753Y-17194174D01*
X12548753Y-17194174D02*
X12567801Y-17184650D01*
X12567801Y-17184650D02*
X12605896Y-17184650D01*
X12605896Y-17184650D02*
X12624944Y-17194174D01*
X12624944Y-17194174D02*
X12634468Y-17213222D01*
X12634468Y-17213222D02*
X12634468Y-17232270D01*
X12634468Y-17232270D02*
X12539230Y-17251317D01*
X12710658Y-17308460D02*
X12729706Y-17317984D01*
X12729706Y-17317984D02*
X12767801Y-17317984D01*
X12767801Y-17317984D02*
X12786849Y-17308460D01*
X12786849Y-17308460D02*
X12796372Y-17289412D01*
X12796372Y-17289412D02*
X12796372Y-17279889D01*
X12796372Y-17279889D02*
X12786849Y-17260841D01*
X12786849Y-17260841D02*
X12767801Y-17251317D01*
X12767801Y-17251317D02*
X12739230Y-17251317D01*
X12739230Y-17251317D02*
X12720182Y-17241793D01*
X12720182Y-17241793D02*
X12710658Y-17222746D01*
X12710658Y-17222746D02*
X12710658Y-17213222D01*
X12710658Y-17213222D02*
X12720182Y-17194174D01*
X12720182Y-17194174D02*
X12739230Y-17184650D01*
X12739230Y-17184650D02*
X12767801Y-17184650D01*
X12767801Y-17184650D02*
X12786849Y-17194174D01*
X12863039Y-17394174D02*
X12872563Y-17384650D01*
X12872563Y-17384650D02*
X12891611Y-17356079D01*
X12891611Y-17356079D02*
X12901134Y-17337031D01*
X12901134Y-17337031D02*
X12910658Y-17308460D01*
X12910658Y-17308460D02*
X12920182Y-17260841D01*
X12920182Y-17260841D02*
X12920182Y-17222746D01*
X12920182Y-17222746D02*
X12910658Y-17175127D01*
X12910658Y-17175127D02*
X12901134Y-17146555D01*
X12901134Y-17146555D02*
X12891611Y-17127508D01*
X12891611Y-17127508D02*
X12872563Y-17098936D01*
X12872563Y-17098936D02*
X12863039Y-17089412D01*
D14*
X7777500Y-17430500D02*
X7897500Y-17550500D01*
X7897500Y-17430500D02*
X7777500Y-17550500D01*
X7879927Y-17532927D02*
X7879927Y-17448073D01*
X7795073Y-17448073D01*
X7795073Y-17532927D01*
X7879927Y-17532927D01*
D11*
X8263039Y-17581984D02*
X8148753Y-17581984D01*
X8205896Y-17581984D02*
X8205896Y-17381984D01*
X8205896Y-17381984D02*
X8186848Y-17410555D01*
X8186848Y-17410555D02*
X8167801Y-17429603D01*
X8167801Y-17429603D02*
X8148753Y-17439127D01*
X8348753Y-17562936D02*
X8358277Y-17572460D01*
X8358277Y-17572460D02*
X8348753Y-17581984D01*
X8348753Y-17581984D02*
X8339229Y-17572460D01*
X8339229Y-17572460D02*
X8348753Y-17562936D01*
X8348753Y-17562936D02*
X8348753Y-17581984D01*
X8434467Y-17401031D02*
X8443991Y-17391508D01*
X8443991Y-17391508D02*
X8463039Y-17381984D01*
X8463039Y-17381984D02*
X8510658Y-17381984D01*
X8510658Y-17381984D02*
X8529705Y-17391508D01*
X8529705Y-17391508D02*
X8539229Y-17401031D01*
X8539229Y-17401031D02*
X8548753Y-17420079D01*
X8548753Y-17420079D02*
X8548753Y-17439127D01*
X8548753Y-17439127D02*
X8539229Y-17467698D01*
X8539229Y-17467698D02*
X8424944Y-17581984D01*
X8424944Y-17581984D02*
X8548753Y-17581984D01*
X8672563Y-17381984D02*
X8691610Y-17381984D01*
X8691610Y-17381984D02*
X8710658Y-17391508D01*
X8710658Y-17391508D02*
X8720182Y-17401031D01*
X8720182Y-17401031D02*
X8729705Y-17420079D01*
X8729705Y-17420079D02*
X8739229Y-17458174D01*
X8739229Y-17458174D02*
X8739229Y-17505793D01*
X8739229Y-17505793D02*
X8729705Y-17543889D01*
X8729705Y-17543889D02*
X8720182Y-17562936D01*
X8720182Y-17562936D02*
X8710658Y-17572460D01*
X8710658Y-17572460D02*
X8691610Y-17581984D01*
X8691610Y-17581984D02*
X8672563Y-17581984D01*
X8672563Y-17581984D02*
X8653515Y-17572460D01*
X8653515Y-17572460D02*
X8643991Y-17562936D01*
X8643991Y-17562936D02*
X8634467Y-17543889D01*
X8634467Y-17543889D02*
X8624944Y-17505793D01*
X8624944Y-17505793D02*
X8624944Y-17458174D01*
X8624944Y-17458174D02*
X8634467Y-17420079D01*
X8634467Y-17420079D02*
X8643991Y-17401031D01*
X8643991Y-17401031D02*
X8653515Y-17391508D01*
X8653515Y-17391508D02*
X8672563Y-17381984D01*
X8863039Y-17381984D02*
X8882086Y-17381984D01*
X8882086Y-17381984D02*
X8901134Y-17391508D01*
X8901134Y-17391508D02*
X8910658Y-17401031D01*
X8910658Y-17401031D02*
X8920182Y-17420079D01*
X8920182Y-17420079D02*
X8929705Y-17458174D01*
X8929705Y-17458174D02*
X8929705Y-17505793D01*
X8929705Y-17505793D02*
X8920182Y-17543889D01*
X8920182Y-17543889D02*
X8910658Y-17562936D01*
X8910658Y-17562936D02*
X8901134Y-17572460D01*
X8901134Y-17572460D02*
X8882086Y-17581984D01*
X8882086Y-17581984D02*
X8863039Y-17581984D01*
X8863039Y-17581984D02*
X8843991Y-17572460D01*
X8843991Y-17572460D02*
X8834467Y-17562936D01*
X8834467Y-17562936D02*
X8824944Y-17543889D01*
X8824944Y-17543889D02*
X8815420Y-17505793D01*
X8815420Y-17505793D02*
X8815420Y-17458174D01*
X8815420Y-17458174D02*
X8824944Y-17420079D01*
X8824944Y-17420079D02*
X8834467Y-17401031D01*
X8834467Y-17401031D02*
X8843991Y-17391508D01*
X8843991Y-17391508D02*
X8863039Y-17381984D01*
X9015420Y-17581984D02*
X9015420Y-17448650D01*
X9015420Y-17467698D02*
X9024944Y-17458174D01*
X9024944Y-17458174D02*
X9043991Y-17448650D01*
X9043991Y-17448650D02*
X9072563Y-17448650D01*
X9072563Y-17448650D02*
X9091610Y-17458174D01*
X9091610Y-17458174D02*
X9101134Y-17477222D01*
X9101134Y-17477222D02*
X9101134Y-17581984D01*
X9101134Y-17477222D02*
X9110658Y-17458174D01*
X9110658Y-17458174D02*
X9129705Y-17448650D01*
X9129705Y-17448650D02*
X9158277Y-17448650D01*
X9158277Y-17448650D02*
X9177325Y-17458174D01*
X9177325Y-17458174D02*
X9186848Y-17477222D01*
X9186848Y-17477222D02*
X9186848Y-17581984D01*
X9282086Y-17581984D02*
X9282086Y-17448650D01*
X9282086Y-17467698D02*
X9291610Y-17458174D01*
X9291610Y-17458174D02*
X9310658Y-17448650D01*
X9310658Y-17448650D02*
X9339229Y-17448650D01*
X9339229Y-17448650D02*
X9358277Y-17458174D01*
X9358277Y-17458174D02*
X9367801Y-17477222D01*
X9367801Y-17477222D02*
X9367801Y-17581984D01*
X9367801Y-17477222D02*
X9377325Y-17458174D01*
X9377325Y-17458174D02*
X9396372Y-17448650D01*
X9396372Y-17448650D02*
X9424944Y-17448650D01*
X9424944Y-17448650D02*
X9443991Y-17458174D01*
X9443991Y-17458174D02*
X9453515Y-17477222D01*
X9453515Y-17477222D02*
X9453515Y-17581984D01*
X9843991Y-17372460D02*
X9672563Y-17629603D01*
X10101134Y-17381984D02*
X10120182Y-17381984D01*
X10120182Y-17381984D02*
X10139229Y-17391508D01*
X10139229Y-17391508D02*
X10148753Y-17401031D01*
X10148753Y-17401031D02*
X10158277Y-17420079D01*
X10158277Y-17420079D02*
X10167801Y-17458174D01*
X10167801Y-17458174D02*
X10167801Y-17505793D01*
X10167801Y-17505793D02*
X10158277Y-17543889D01*
X10158277Y-17543889D02*
X10148753Y-17562936D01*
X10148753Y-17562936D02*
X10139229Y-17572460D01*
X10139229Y-17572460D02*
X10120182Y-17581984D01*
X10120182Y-17581984D02*
X10101134Y-17581984D01*
X10101134Y-17581984D02*
X10082087Y-17572460D01*
X10082087Y-17572460D02*
X10072563Y-17562936D01*
X10072563Y-17562936D02*
X10063039Y-17543889D01*
X10063039Y-17543889D02*
X10053515Y-17505793D01*
X10053515Y-17505793D02*
X10053515Y-17458174D01*
X10053515Y-17458174D02*
X10063039Y-17420079D01*
X10063039Y-17420079D02*
X10072563Y-17401031D01*
X10072563Y-17401031D02*
X10082087Y-17391508D01*
X10082087Y-17391508D02*
X10101134Y-17381984D01*
X10253515Y-17562936D02*
X10263039Y-17572460D01*
X10263039Y-17572460D02*
X10253515Y-17581984D01*
X10253515Y-17581984D02*
X10243991Y-17572460D01*
X10243991Y-17572460D02*
X10253515Y-17562936D01*
X10253515Y-17562936D02*
X10253515Y-17581984D01*
X10386848Y-17381984D02*
X10405896Y-17381984D01*
X10405896Y-17381984D02*
X10424944Y-17391508D01*
X10424944Y-17391508D02*
X10434468Y-17401031D01*
X10434468Y-17401031D02*
X10443991Y-17420079D01*
X10443991Y-17420079D02*
X10453515Y-17458174D01*
X10453515Y-17458174D02*
X10453515Y-17505793D01*
X10453515Y-17505793D02*
X10443991Y-17543889D01*
X10443991Y-17543889D02*
X10434468Y-17562936D01*
X10434468Y-17562936D02*
X10424944Y-17572460D01*
X10424944Y-17572460D02*
X10405896Y-17581984D01*
X10405896Y-17581984D02*
X10386848Y-17581984D01*
X10386848Y-17581984D02*
X10367801Y-17572460D01*
X10367801Y-17572460D02*
X10358277Y-17562936D01*
X10358277Y-17562936D02*
X10348753Y-17543889D01*
X10348753Y-17543889D02*
X10339229Y-17505793D01*
X10339229Y-17505793D02*
X10339229Y-17458174D01*
X10339229Y-17458174D02*
X10348753Y-17420079D01*
X10348753Y-17420079D02*
X10358277Y-17401031D01*
X10358277Y-17401031D02*
X10367801Y-17391508D01*
X10367801Y-17391508D02*
X10386848Y-17381984D01*
X10624944Y-17448650D02*
X10624944Y-17581984D01*
X10577325Y-17372460D02*
X10529706Y-17515317D01*
X10529706Y-17515317D02*
X10653515Y-17515317D01*
X10710658Y-17381984D02*
X10843991Y-17381984D01*
X10843991Y-17381984D02*
X10758277Y-17581984D01*
X10910658Y-17401031D02*
X10920182Y-17391508D01*
X10920182Y-17391508D02*
X10939229Y-17381984D01*
X10939229Y-17381984D02*
X10986849Y-17381984D01*
X10986849Y-17381984D02*
X11005896Y-17391508D01*
X11005896Y-17391508D02*
X11015420Y-17401031D01*
X11015420Y-17401031D02*
X11024944Y-17420079D01*
X11024944Y-17420079D02*
X11024944Y-17439127D01*
X11024944Y-17439127D02*
X11015420Y-17467698D01*
X11015420Y-17467698D02*
X10901134Y-17581984D01*
X10901134Y-17581984D02*
X11024944Y-17581984D01*
X11101134Y-17381984D02*
X11101134Y-17420079D01*
X11177325Y-17381984D02*
X11177325Y-17420079D01*
X11472563Y-17658174D02*
X11463039Y-17648650D01*
X11463039Y-17648650D02*
X11443991Y-17620079D01*
X11443991Y-17620079D02*
X11434468Y-17601031D01*
X11434468Y-17601031D02*
X11424944Y-17572460D01*
X11424944Y-17572460D02*
X11415420Y-17524841D01*
X11415420Y-17524841D02*
X11415420Y-17486746D01*
X11415420Y-17486746D02*
X11424944Y-17439127D01*
X11424944Y-17439127D02*
X11434468Y-17410555D01*
X11434468Y-17410555D02*
X11443991Y-17391508D01*
X11443991Y-17391508D02*
X11463039Y-17362936D01*
X11463039Y-17362936D02*
X11472563Y-17353412D01*
X11577325Y-17467698D02*
X11558277Y-17458174D01*
X11558277Y-17458174D02*
X11548753Y-17448650D01*
X11548753Y-17448650D02*
X11539229Y-17429603D01*
X11539229Y-17429603D02*
X11539229Y-17420079D01*
X11539229Y-17420079D02*
X11548753Y-17401031D01*
X11548753Y-17401031D02*
X11558277Y-17391508D01*
X11558277Y-17391508D02*
X11577325Y-17381984D01*
X11577325Y-17381984D02*
X11615420Y-17381984D01*
X11615420Y-17381984D02*
X11634468Y-17391508D01*
X11634468Y-17391508D02*
X11643991Y-17401031D01*
X11643991Y-17401031D02*
X11653515Y-17420079D01*
X11653515Y-17420079D02*
X11653515Y-17429603D01*
X11653515Y-17429603D02*
X11643991Y-17448650D01*
X11643991Y-17448650D02*
X11634468Y-17458174D01*
X11634468Y-17458174D02*
X11615420Y-17467698D01*
X11615420Y-17467698D02*
X11577325Y-17467698D01*
X11577325Y-17467698D02*
X11558277Y-17477222D01*
X11558277Y-17477222D02*
X11548753Y-17486746D01*
X11548753Y-17486746D02*
X11539229Y-17505793D01*
X11539229Y-17505793D02*
X11539229Y-17543889D01*
X11539229Y-17543889D02*
X11548753Y-17562936D01*
X11548753Y-17562936D02*
X11558277Y-17572460D01*
X11558277Y-17572460D02*
X11577325Y-17581984D01*
X11577325Y-17581984D02*
X11615420Y-17581984D01*
X11615420Y-17581984D02*
X11634468Y-17572460D01*
X11634468Y-17572460D02*
X11643991Y-17562936D01*
X11643991Y-17562936D02*
X11653515Y-17543889D01*
X11653515Y-17543889D02*
X11653515Y-17505793D01*
X11653515Y-17505793D02*
X11643991Y-17486746D01*
X11643991Y-17486746D02*
X11634468Y-17477222D01*
X11634468Y-17477222D02*
X11615420Y-17467698D01*
X11891610Y-17581984D02*
X11891610Y-17381984D01*
X11977325Y-17581984D02*
X11977325Y-17477222D01*
X11977325Y-17477222D02*
X11967801Y-17458174D01*
X11967801Y-17458174D02*
X11948753Y-17448650D01*
X11948753Y-17448650D02*
X11920182Y-17448650D01*
X11920182Y-17448650D02*
X11901134Y-17458174D01*
X11901134Y-17458174D02*
X11891610Y-17467698D01*
X12101134Y-17581984D02*
X12082087Y-17572460D01*
X12082087Y-17572460D02*
X12072563Y-17562936D01*
X12072563Y-17562936D02*
X12063039Y-17543889D01*
X12063039Y-17543889D02*
X12063039Y-17486746D01*
X12063039Y-17486746D02*
X12072563Y-17467698D01*
X12072563Y-17467698D02*
X12082087Y-17458174D01*
X12082087Y-17458174D02*
X12101134Y-17448650D01*
X12101134Y-17448650D02*
X12129706Y-17448650D01*
X12129706Y-17448650D02*
X12148753Y-17458174D01*
X12148753Y-17458174D02*
X12158277Y-17467698D01*
X12158277Y-17467698D02*
X12167801Y-17486746D01*
X12167801Y-17486746D02*
X12167801Y-17543889D01*
X12167801Y-17543889D02*
X12158277Y-17562936D01*
X12158277Y-17562936D02*
X12148753Y-17572460D01*
X12148753Y-17572460D02*
X12129706Y-17581984D01*
X12129706Y-17581984D02*
X12101134Y-17581984D01*
X12282087Y-17581984D02*
X12263039Y-17572460D01*
X12263039Y-17572460D02*
X12253515Y-17553412D01*
X12253515Y-17553412D02*
X12253515Y-17381984D01*
X12434468Y-17572460D02*
X12415420Y-17581984D01*
X12415420Y-17581984D02*
X12377325Y-17581984D01*
X12377325Y-17581984D02*
X12358277Y-17572460D01*
X12358277Y-17572460D02*
X12348753Y-17553412D01*
X12348753Y-17553412D02*
X12348753Y-17477222D01*
X12348753Y-17477222D02*
X12358277Y-17458174D01*
X12358277Y-17458174D02*
X12377325Y-17448650D01*
X12377325Y-17448650D02*
X12415420Y-17448650D01*
X12415420Y-17448650D02*
X12434468Y-17458174D01*
X12434468Y-17458174D02*
X12443991Y-17477222D01*
X12443991Y-17477222D02*
X12443991Y-17496270D01*
X12443991Y-17496270D02*
X12348753Y-17515317D01*
X12520182Y-17572460D02*
X12539230Y-17581984D01*
X12539230Y-17581984D02*
X12577325Y-17581984D01*
X12577325Y-17581984D02*
X12596372Y-17572460D01*
X12596372Y-17572460D02*
X12605896Y-17553412D01*
X12605896Y-17553412D02*
X12605896Y-17543889D01*
X12605896Y-17543889D02*
X12596372Y-17524841D01*
X12596372Y-17524841D02*
X12577325Y-17515317D01*
X12577325Y-17515317D02*
X12548753Y-17515317D01*
X12548753Y-17515317D02*
X12529706Y-17505793D01*
X12529706Y-17505793D02*
X12520182Y-17486746D01*
X12520182Y-17486746D02*
X12520182Y-17477222D01*
X12520182Y-17477222D02*
X12529706Y-17458174D01*
X12529706Y-17458174D02*
X12548753Y-17448650D01*
X12548753Y-17448650D02*
X12577325Y-17448650D01*
X12577325Y-17448650D02*
X12596372Y-17458174D01*
X12672563Y-17658174D02*
X12682087Y-17648650D01*
X12682087Y-17648650D02*
X12701134Y-17620079D01*
X12701134Y-17620079D02*
X12710658Y-17601031D01*
X12710658Y-17601031D02*
X12720182Y-17572460D01*
X12720182Y-17572460D02*
X12729706Y-17524841D01*
X12729706Y-17524841D02*
X12729706Y-17486746D01*
X12729706Y-17486746D02*
X12720182Y-17439127D01*
X12720182Y-17439127D02*
X12710658Y-17410555D01*
X12710658Y-17410555D02*
X12701134Y-17391508D01*
X12701134Y-17391508D02*
X12682087Y-17362936D01*
X12682087Y-17362936D02*
X12672563Y-17353412D01*
D15*
X7767500Y-17689500D02*
X7897500Y-17819500D01*
X7897500Y-17689500D02*
X7767500Y-17819500D01*
X7832500Y-17819500D02*
X7897500Y-17754500D01*
X7832500Y-17689500D01*
X7767500Y-17754500D01*
X7832500Y-17819500D01*
D11*
X8263039Y-17845984D02*
X8148753Y-17845984D01*
X8205896Y-17845984D02*
X8205896Y-17645984D01*
X8205896Y-17645984D02*
X8186848Y-17674555D01*
X8186848Y-17674555D02*
X8167801Y-17693603D01*
X8167801Y-17693603D02*
X8148753Y-17703127D01*
X8348753Y-17826936D02*
X8358277Y-17836460D01*
X8358277Y-17836460D02*
X8348753Y-17845984D01*
X8348753Y-17845984D02*
X8339229Y-17836460D01*
X8339229Y-17836460D02*
X8348753Y-17826936D01*
X8348753Y-17826936D02*
X8348753Y-17845984D01*
X8424944Y-17645984D02*
X8548753Y-17645984D01*
X8548753Y-17645984D02*
X8482086Y-17722174D01*
X8482086Y-17722174D02*
X8510658Y-17722174D01*
X8510658Y-17722174D02*
X8529705Y-17731698D01*
X8529705Y-17731698D02*
X8539229Y-17741222D01*
X8539229Y-17741222D02*
X8548753Y-17760270D01*
X8548753Y-17760270D02*
X8548753Y-17807889D01*
X8548753Y-17807889D02*
X8539229Y-17826936D01*
X8539229Y-17826936D02*
X8529705Y-17836460D01*
X8529705Y-17836460D02*
X8510658Y-17845984D01*
X8510658Y-17845984D02*
X8453515Y-17845984D01*
X8453515Y-17845984D02*
X8434467Y-17836460D01*
X8434467Y-17836460D02*
X8424944Y-17826936D01*
X8672563Y-17645984D02*
X8691610Y-17645984D01*
X8691610Y-17645984D02*
X8710658Y-17655508D01*
X8710658Y-17655508D02*
X8720182Y-17665031D01*
X8720182Y-17665031D02*
X8729705Y-17684079D01*
X8729705Y-17684079D02*
X8739229Y-17722174D01*
X8739229Y-17722174D02*
X8739229Y-17769793D01*
X8739229Y-17769793D02*
X8729705Y-17807889D01*
X8729705Y-17807889D02*
X8720182Y-17826936D01*
X8720182Y-17826936D02*
X8710658Y-17836460D01*
X8710658Y-17836460D02*
X8691610Y-17845984D01*
X8691610Y-17845984D02*
X8672563Y-17845984D01*
X8672563Y-17845984D02*
X8653515Y-17836460D01*
X8653515Y-17836460D02*
X8643991Y-17826936D01*
X8643991Y-17826936D02*
X8634467Y-17807889D01*
X8634467Y-17807889D02*
X8624944Y-17769793D01*
X8624944Y-17769793D02*
X8624944Y-17722174D01*
X8624944Y-17722174D02*
X8634467Y-17684079D01*
X8634467Y-17684079D02*
X8643991Y-17665031D01*
X8643991Y-17665031D02*
X8653515Y-17655508D01*
X8653515Y-17655508D02*
X8672563Y-17645984D01*
X8863039Y-17645984D02*
X8882086Y-17645984D01*
X8882086Y-17645984D02*
X8901134Y-17655508D01*
X8901134Y-17655508D02*
X8910658Y-17665031D01*
X8910658Y-17665031D02*
X8920182Y-17684079D01*
X8920182Y-17684079D02*
X8929705Y-17722174D01*
X8929705Y-17722174D02*
X8929705Y-17769793D01*
X8929705Y-17769793D02*
X8920182Y-17807889D01*
X8920182Y-17807889D02*
X8910658Y-17826936D01*
X8910658Y-17826936D02*
X8901134Y-17836460D01*
X8901134Y-17836460D02*
X8882086Y-17845984D01*
X8882086Y-17845984D02*
X8863039Y-17845984D01*
X8863039Y-17845984D02*
X8843991Y-17836460D01*
X8843991Y-17836460D02*
X8834467Y-17826936D01*
X8834467Y-17826936D02*
X8824944Y-17807889D01*
X8824944Y-17807889D02*
X8815420Y-17769793D01*
X8815420Y-17769793D02*
X8815420Y-17722174D01*
X8815420Y-17722174D02*
X8824944Y-17684079D01*
X8824944Y-17684079D02*
X8834467Y-17665031D01*
X8834467Y-17665031D02*
X8843991Y-17655508D01*
X8843991Y-17655508D02*
X8863039Y-17645984D01*
X9015420Y-17845984D02*
X9015420Y-17712650D01*
X9015420Y-17731698D02*
X9024944Y-17722174D01*
X9024944Y-17722174D02*
X9043991Y-17712650D01*
X9043991Y-17712650D02*
X9072563Y-17712650D01*
X9072563Y-17712650D02*
X9091610Y-17722174D01*
X9091610Y-17722174D02*
X9101134Y-17741222D01*
X9101134Y-17741222D02*
X9101134Y-17845984D01*
X9101134Y-17741222D02*
X9110658Y-17722174D01*
X9110658Y-17722174D02*
X9129705Y-17712650D01*
X9129705Y-17712650D02*
X9158277Y-17712650D01*
X9158277Y-17712650D02*
X9177325Y-17722174D01*
X9177325Y-17722174D02*
X9186848Y-17741222D01*
X9186848Y-17741222D02*
X9186848Y-17845984D01*
X9282086Y-17845984D02*
X9282086Y-17712650D01*
X9282086Y-17731698D02*
X9291610Y-17722174D01*
X9291610Y-17722174D02*
X9310658Y-17712650D01*
X9310658Y-17712650D02*
X9339229Y-17712650D01*
X9339229Y-17712650D02*
X9358277Y-17722174D01*
X9358277Y-17722174D02*
X9367801Y-17741222D01*
X9367801Y-17741222D02*
X9367801Y-17845984D01*
X9367801Y-17741222D02*
X9377325Y-17722174D01*
X9377325Y-17722174D02*
X9396372Y-17712650D01*
X9396372Y-17712650D02*
X9424944Y-17712650D01*
X9424944Y-17712650D02*
X9443991Y-17722174D01*
X9443991Y-17722174D02*
X9453515Y-17741222D01*
X9453515Y-17741222D02*
X9453515Y-17845984D01*
X9843991Y-17636460D02*
X9672563Y-17893603D01*
X10101134Y-17645984D02*
X10120182Y-17645984D01*
X10120182Y-17645984D02*
X10139229Y-17655508D01*
X10139229Y-17655508D02*
X10148753Y-17665031D01*
X10148753Y-17665031D02*
X10158277Y-17684079D01*
X10158277Y-17684079D02*
X10167801Y-17722174D01*
X10167801Y-17722174D02*
X10167801Y-17769793D01*
X10167801Y-17769793D02*
X10158277Y-17807889D01*
X10158277Y-17807889D02*
X10148753Y-17826936D01*
X10148753Y-17826936D02*
X10139229Y-17836460D01*
X10139229Y-17836460D02*
X10120182Y-17845984D01*
X10120182Y-17845984D02*
X10101134Y-17845984D01*
X10101134Y-17845984D02*
X10082087Y-17836460D01*
X10082087Y-17836460D02*
X10072563Y-17826936D01*
X10072563Y-17826936D02*
X10063039Y-17807889D01*
X10063039Y-17807889D02*
X10053515Y-17769793D01*
X10053515Y-17769793D02*
X10053515Y-17722174D01*
X10053515Y-17722174D02*
X10063039Y-17684079D01*
X10063039Y-17684079D02*
X10072563Y-17665031D01*
X10072563Y-17665031D02*
X10082087Y-17655508D01*
X10082087Y-17655508D02*
X10101134Y-17645984D01*
X10253515Y-17826936D02*
X10263039Y-17836460D01*
X10263039Y-17836460D02*
X10253515Y-17845984D01*
X10253515Y-17845984D02*
X10243991Y-17836460D01*
X10243991Y-17836460D02*
X10253515Y-17826936D01*
X10253515Y-17826936D02*
X10253515Y-17845984D01*
X10386848Y-17645984D02*
X10405896Y-17645984D01*
X10405896Y-17645984D02*
X10424944Y-17655508D01*
X10424944Y-17655508D02*
X10434468Y-17665031D01*
X10434468Y-17665031D02*
X10443991Y-17684079D01*
X10443991Y-17684079D02*
X10453515Y-17722174D01*
X10453515Y-17722174D02*
X10453515Y-17769793D01*
X10453515Y-17769793D02*
X10443991Y-17807889D01*
X10443991Y-17807889D02*
X10434468Y-17826936D01*
X10434468Y-17826936D02*
X10424944Y-17836460D01*
X10424944Y-17836460D02*
X10405896Y-17845984D01*
X10405896Y-17845984D02*
X10386848Y-17845984D01*
X10386848Y-17845984D02*
X10367801Y-17836460D01*
X10367801Y-17836460D02*
X10358277Y-17826936D01*
X10358277Y-17826936D02*
X10348753Y-17807889D01*
X10348753Y-17807889D02*
X10339229Y-17769793D01*
X10339229Y-17769793D02*
X10339229Y-17722174D01*
X10339229Y-17722174D02*
X10348753Y-17684079D01*
X10348753Y-17684079D02*
X10358277Y-17665031D01*
X10358277Y-17665031D02*
X10367801Y-17655508D01*
X10367801Y-17655508D02*
X10386848Y-17645984D01*
X10634468Y-17645984D02*
X10539229Y-17645984D01*
X10539229Y-17645984D02*
X10529706Y-17741222D01*
X10529706Y-17741222D02*
X10539229Y-17731698D01*
X10539229Y-17731698D02*
X10558277Y-17722174D01*
X10558277Y-17722174D02*
X10605896Y-17722174D01*
X10605896Y-17722174D02*
X10624944Y-17731698D01*
X10624944Y-17731698D02*
X10634468Y-17741222D01*
X10634468Y-17741222D02*
X10643991Y-17760270D01*
X10643991Y-17760270D02*
X10643991Y-17807889D01*
X10643991Y-17807889D02*
X10634468Y-17826936D01*
X10634468Y-17826936D02*
X10624944Y-17836460D01*
X10624944Y-17836460D02*
X10605896Y-17845984D01*
X10605896Y-17845984D02*
X10558277Y-17845984D01*
X10558277Y-17845984D02*
X10539229Y-17836460D01*
X10539229Y-17836460D02*
X10529706Y-17826936D01*
X10834468Y-17845984D02*
X10720182Y-17845984D01*
X10777325Y-17845984D02*
X10777325Y-17645984D01*
X10777325Y-17645984D02*
X10758277Y-17674555D01*
X10758277Y-17674555D02*
X10739229Y-17693603D01*
X10739229Y-17693603D02*
X10720182Y-17703127D01*
X10910658Y-17665031D02*
X10920182Y-17655508D01*
X10920182Y-17655508D02*
X10939229Y-17645984D01*
X10939229Y-17645984D02*
X10986849Y-17645984D01*
X10986849Y-17645984D02*
X11005896Y-17655508D01*
X11005896Y-17655508D02*
X11015420Y-17665031D01*
X11015420Y-17665031D02*
X11024944Y-17684079D01*
X11024944Y-17684079D02*
X11024944Y-17703127D01*
X11024944Y-17703127D02*
X11015420Y-17731698D01*
X11015420Y-17731698D02*
X10901134Y-17845984D01*
X10901134Y-17845984D02*
X11024944Y-17845984D01*
X11101134Y-17645984D02*
X11101134Y-17684079D01*
X11177325Y-17645984D02*
X11177325Y-17684079D01*
X11472563Y-17922174D02*
X11463039Y-17912650D01*
X11463039Y-17912650D02*
X11443991Y-17884079D01*
X11443991Y-17884079D02*
X11434468Y-17865031D01*
X11434468Y-17865031D02*
X11424944Y-17836460D01*
X11424944Y-17836460D02*
X11415420Y-17788841D01*
X11415420Y-17788841D02*
X11415420Y-17750746D01*
X11415420Y-17750746D02*
X11424944Y-17703127D01*
X11424944Y-17703127D02*
X11434468Y-17674555D01*
X11434468Y-17674555D02*
X11443991Y-17655508D01*
X11443991Y-17655508D02*
X11463039Y-17626936D01*
X11463039Y-17626936D02*
X11472563Y-17617412D01*
X11634468Y-17645984D02*
X11596372Y-17645984D01*
X11596372Y-17645984D02*
X11577325Y-17655508D01*
X11577325Y-17655508D02*
X11567801Y-17665031D01*
X11567801Y-17665031D02*
X11548753Y-17693603D01*
X11548753Y-17693603D02*
X11539229Y-17731698D01*
X11539229Y-17731698D02*
X11539229Y-17807889D01*
X11539229Y-17807889D02*
X11548753Y-17826936D01*
X11548753Y-17826936D02*
X11558277Y-17836460D01*
X11558277Y-17836460D02*
X11577325Y-17845984D01*
X11577325Y-17845984D02*
X11615420Y-17845984D01*
X11615420Y-17845984D02*
X11634468Y-17836460D01*
X11634468Y-17836460D02*
X11643991Y-17826936D01*
X11643991Y-17826936D02*
X11653515Y-17807889D01*
X11653515Y-17807889D02*
X11653515Y-17760270D01*
X11653515Y-17760270D02*
X11643991Y-17741222D01*
X11643991Y-17741222D02*
X11634468Y-17731698D01*
X11634468Y-17731698D02*
X11615420Y-17722174D01*
X11615420Y-17722174D02*
X11577325Y-17722174D01*
X11577325Y-17722174D02*
X11558277Y-17731698D01*
X11558277Y-17731698D02*
X11548753Y-17741222D01*
X11548753Y-17741222D02*
X11539229Y-17760270D01*
X11891610Y-17845984D02*
X11891610Y-17645984D01*
X11977325Y-17845984D02*
X11977325Y-17741222D01*
X11977325Y-17741222D02*
X11967801Y-17722174D01*
X11967801Y-17722174D02*
X11948753Y-17712650D01*
X11948753Y-17712650D02*
X11920182Y-17712650D01*
X11920182Y-17712650D02*
X11901134Y-17722174D01*
X11901134Y-17722174D02*
X11891610Y-17731698D01*
X12101134Y-17845984D02*
X12082087Y-17836460D01*
X12082087Y-17836460D02*
X12072563Y-17826936D01*
X12072563Y-17826936D02*
X12063039Y-17807889D01*
X12063039Y-17807889D02*
X12063039Y-17750746D01*
X12063039Y-17750746D02*
X12072563Y-17731698D01*
X12072563Y-17731698D02*
X12082087Y-17722174D01*
X12082087Y-17722174D02*
X12101134Y-17712650D01*
X12101134Y-17712650D02*
X12129706Y-17712650D01*
X12129706Y-17712650D02*
X12148753Y-17722174D01*
X12148753Y-17722174D02*
X12158277Y-17731698D01*
X12158277Y-17731698D02*
X12167801Y-17750746D01*
X12167801Y-17750746D02*
X12167801Y-17807889D01*
X12167801Y-17807889D02*
X12158277Y-17826936D01*
X12158277Y-17826936D02*
X12148753Y-17836460D01*
X12148753Y-17836460D02*
X12129706Y-17845984D01*
X12129706Y-17845984D02*
X12101134Y-17845984D01*
X12282087Y-17845984D02*
X12263039Y-17836460D01*
X12263039Y-17836460D02*
X12253515Y-17817412D01*
X12253515Y-17817412D02*
X12253515Y-17645984D01*
X12434468Y-17836460D02*
X12415420Y-17845984D01*
X12415420Y-17845984D02*
X12377325Y-17845984D01*
X12377325Y-17845984D02*
X12358277Y-17836460D01*
X12358277Y-17836460D02*
X12348753Y-17817412D01*
X12348753Y-17817412D02*
X12348753Y-17741222D01*
X12348753Y-17741222D02*
X12358277Y-17722174D01*
X12358277Y-17722174D02*
X12377325Y-17712650D01*
X12377325Y-17712650D02*
X12415420Y-17712650D01*
X12415420Y-17712650D02*
X12434468Y-17722174D01*
X12434468Y-17722174D02*
X12443991Y-17741222D01*
X12443991Y-17741222D02*
X12443991Y-17760270D01*
X12443991Y-17760270D02*
X12348753Y-17779317D01*
X12520182Y-17836460D02*
X12539230Y-17845984D01*
X12539230Y-17845984D02*
X12577325Y-17845984D01*
X12577325Y-17845984D02*
X12596372Y-17836460D01*
X12596372Y-17836460D02*
X12605896Y-17817412D01*
X12605896Y-17817412D02*
X12605896Y-17807889D01*
X12605896Y-17807889D02*
X12596372Y-17788841D01*
X12596372Y-17788841D02*
X12577325Y-17779317D01*
X12577325Y-17779317D02*
X12548753Y-17779317D01*
X12548753Y-17779317D02*
X12529706Y-17769793D01*
X12529706Y-17769793D02*
X12520182Y-17750746D01*
X12520182Y-17750746D02*
X12520182Y-17741222D01*
X12520182Y-17741222D02*
X12529706Y-17722174D01*
X12529706Y-17722174D02*
X12548753Y-17712650D01*
X12548753Y-17712650D02*
X12577325Y-17712650D01*
X12577325Y-17712650D02*
X12596372Y-17722174D01*
X12672563Y-17922174D02*
X12682087Y-17912650D01*
X12682087Y-17912650D02*
X12701134Y-17884079D01*
X12701134Y-17884079D02*
X12710658Y-17865031D01*
X12710658Y-17865031D02*
X12720182Y-17836460D01*
X12720182Y-17836460D02*
X12729706Y-17788841D01*
X12729706Y-17788841D02*
X12729706Y-17750746D01*
X12729706Y-17750746D02*
X12720182Y-17703127D01*
X12720182Y-17703127D02*
X12710658Y-17674555D01*
X12710658Y-17674555D02*
X12701134Y-17655508D01*
X12701134Y-17655508D02*
X12682087Y-17626936D01*
X12682087Y-17626936D02*
X12672563Y-17617412D01*
D16*
X7822500Y-17943500D02*
X7822500Y-18093500D01*
X7747500Y-18018500D02*
X7897500Y-18018500D01*
X7897500Y-18018500D02*
G75*
G02*
X7747500Y-18018500I-75000J0D01*
G01*
X7747500Y-18018500D02*
G75*
G02*
X7897500Y-18018500I75000J0D01*
G01*
D11*
X8263039Y-18109984D02*
X8148753Y-18109984D01*
X8205896Y-18109984D02*
X8205896Y-17909984D01*
X8205896Y-17909984D02*
X8186848Y-17938555D01*
X8186848Y-17938555D02*
X8167801Y-17957603D01*
X8167801Y-17957603D02*
X8148753Y-17967127D01*
X8348753Y-18090936D02*
X8358277Y-18100460D01*
X8358277Y-18100460D02*
X8348753Y-18109984D01*
X8348753Y-18109984D02*
X8339229Y-18100460D01*
X8339229Y-18100460D02*
X8348753Y-18090936D01*
X8348753Y-18090936D02*
X8348753Y-18109984D01*
X8539229Y-17909984D02*
X8443991Y-17909984D01*
X8443991Y-17909984D02*
X8434467Y-18005222D01*
X8434467Y-18005222D02*
X8443991Y-17995698D01*
X8443991Y-17995698D02*
X8463039Y-17986174D01*
X8463039Y-17986174D02*
X8510658Y-17986174D01*
X8510658Y-17986174D02*
X8529705Y-17995698D01*
X8529705Y-17995698D02*
X8539229Y-18005222D01*
X8539229Y-18005222D02*
X8548753Y-18024270D01*
X8548753Y-18024270D02*
X8548753Y-18071889D01*
X8548753Y-18071889D02*
X8539229Y-18090936D01*
X8539229Y-18090936D02*
X8529705Y-18100460D01*
X8529705Y-18100460D02*
X8510658Y-18109984D01*
X8510658Y-18109984D02*
X8463039Y-18109984D01*
X8463039Y-18109984D02*
X8443991Y-18100460D01*
X8443991Y-18100460D02*
X8434467Y-18090936D01*
X8672563Y-17909984D02*
X8691610Y-17909984D01*
X8691610Y-17909984D02*
X8710658Y-17919508D01*
X8710658Y-17919508D02*
X8720182Y-17929031D01*
X8720182Y-17929031D02*
X8729705Y-17948079D01*
X8729705Y-17948079D02*
X8739229Y-17986174D01*
X8739229Y-17986174D02*
X8739229Y-18033793D01*
X8739229Y-18033793D02*
X8729705Y-18071889D01*
X8729705Y-18071889D02*
X8720182Y-18090936D01*
X8720182Y-18090936D02*
X8710658Y-18100460D01*
X8710658Y-18100460D02*
X8691610Y-18109984D01*
X8691610Y-18109984D02*
X8672563Y-18109984D01*
X8672563Y-18109984D02*
X8653515Y-18100460D01*
X8653515Y-18100460D02*
X8643991Y-18090936D01*
X8643991Y-18090936D02*
X8634467Y-18071889D01*
X8634467Y-18071889D02*
X8624944Y-18033793D01*
X8624944Y-18033793D02*
X8624944Y-17986174D01*
X8624944Y-17986174D02*
X8634467Y-17948079D01*
X8634467Y-17948079D02*
X8643991Y-17929031D01*
X8643991Y-17929031D02*
X8653515Y-17919508D01*
X8653515Y-17919508D02*
X8672563Y-17909984D01*
X8863039Y-17909984D02*
X8882086Y-17909984D01*
X8882086Y-17909984D02*
X8901134Y-17919508D01*
X8901134Y-17919508D02*
X8910658Y-17929031D01*
X8910658Y-17929031D02*
X8920182Y-17948079D01*
X8920182Y-17948079D02*
X8929705Y-17986174D01*
X8929705Y-17986174D02*
X8929705Y-18033793D01*
X8929705Y-18033793D02*
X8920182Y-18071889D01*
X8920182Y-18071889D02*
X8910658Y-18090936D01*
X8910658Y-18090936D02*
X8901134Y-18100460D01*
X8901134Y-18100460D02*
X8882086Y-18109984D01*
X8882086Y-18109984D02*
X8863039Y-18109984D01*
X8863039Y-18109984D02*
X8843991Y-18100460D01*
X8843991Y-18100460D02*
X8834467Y-18090936D01*
X8834467Y-18090936D02*
X8824944Y-18071889D01*
X8824944Y-18071889D02*
X8815420Y-18033793D01*
X8815420Y-18033793D02*
X8815420Y-17986174D01*
X8815420Y-17986174D02*
X8824944Y-17948079D01*
X8824944Y-17948079D02*
X8834467Y-17929031D01*
X8834467Y-17929031D02*
X8843991Y-17919508D01*
X8843991Y-17919508D02*
X8863039Y-17909984D01*
X9015420Y-18109984D02*
X9015420Y-17976650D01*
X9015420Y-17995698D02*
X9024944Y-17986174D01*
X9024944Y-17986174D02*
X9043991Y-17976650D01*
X9043991Y-17976650D02*
X9072563Y-17976650D01*
X9072563Y-17976650D02*
X9091610Y-17986174D01*
X9091610Y-17986174D02*
X9101134Y-18005222D01*
X9101134Y-18005222D02*
X9101134Y-18109984D01*
X9101134Y-18005222D02*
X9110658Y-17986174D01*
X9110658Y-17986174D02*
X9129705Y-17976650D01*
X9129705Y-17976650D02*
X9158277Y-17976650D01*
X9158277Y-17976650D02*
X9177325Y-17986174D01*
X9177325Y-17986174D02*
X9186848Y-18005222D01*
X9186848Y-18005222D02*
X9186848Y-18109984D01*
X9282086Y-18109984D02*
X9282086Y-17976650D01*
X9282086Y-17995698D02*
X9291610Y-17986174D01*
X9291610Y-17986174D02*
X9310658Y-17976650D01*
X9310658Y-17976650D02*
X9339229Y-17976650D01*
X9339229Y-17976650D02*
X9358277Y-17986174D01*
X9358277Y-17986174D02*
X9367801Y-18005222D01*
X9367801Y-18005222D02*
X9367801Y-18109984D01*
X9367801Y-18005222D02*
X9377325Y-17986174D01*
X9377325Y-17986174D02*
X9396372Y-17976650D01*
X9396372Y-17976650D02*
X9424944Y-17976650D01*
X9424944Y-17976650D02*
X9443991Y-17986174D01*
X9443991Y-17986174D02*
X9453515Y-18005222D01*
X9453515Y-18005222D02*
X9453515Y-18109984D01*
X9843991Y-17900460D02*
X9672563Y-18157603D01*
X10101134Y-17909984D02*
X10120182Y-17909984D01*
X10120182Y-17909984D02*
X10139229Y-17919508D01*
X10139229Y-17919508D02*
X10148753Y-17929031D01*
X10148753Y-17929031D02*
X10158277Y-17948079D01*
X10158277Y-17948079D02*
X10167801Y-17986174D01*
X10167801Y-17986174D02*
X10167801Y-18033793D01*
X10167801Y-18033793D02*
X10158277Y-18071889D01*
X10158277Y-18071889D02*
X10148753Y-18090936D01*
X10148753Y-18090936D02*
X10139229Y-18100460D01*
X10139229Y-18100460D02*
X10120182Y-18109984D01*
X10120182Y-18109984D02*
X10101134Y-18109984D01*
X10101134Y-18109984D02*
X10082087Y-18100460D01*
X10082087Y-18100460D02*
X10072563Y-18090936D01*
X10072563Y-18090936D02*
X10063039Y-18071889D01*
X10063039Y-18071889D02*
X10053515Y-18033793D01*
X10053515Y-18033793D02*
X10053515Y-17986174D01*
X10053515Y-17986174D02*
X10063039Y-17948079D01*
X10063039Y-17948079D02*
X10072563Y-17929031D01*
X10072563Y-17929031D02*
X10082087Y-17919508D01*
X10082087Y-17919508D02*
X10101134Y-17909984D01*
X10253515Y-18090936D02*
X10263039Y-18100460D01*
X10263039Y-18100460D02*
X10253515Y-18109984D01*
X10253515Y-18109984D02*
X10243991Y-18100460D01*
X10243991Y-18100460D02*
X10253515Y-18090936D01*
X10253515Y-18090936D02*
X10253515Y-18109984D01*
X10386848Y-17909984D02*
X10405896Y-17909984D01*
X10405896Y-17909984D02*
X10424944Y-17919508D01*
X10424944Y-17919508D02*
X10434468Y-17929031D01*
X10434468Y-17929031D02*
X10443991Y-17948079D01*
X10443991Y-17948079D02*
X10453515Y-17986174D01*
X10453515Y-17986174D02*
X10453515Y-18033793D01*
X10453515Y-18033793D02*
X10443991Y-18071889D01*
X10443991Y-18071889D02*
X10434468Y-18090936D01*
X10434468Y-18090936D02*
X10424944Y-18100460D01*
X10424944Y-18100460D02*
X10405896Y-18109984D01*
X10405896Y-18109984D02*
X10386848Y-18109984D01*
X10386848Y-18109984D02*
X10367801Y-18100460D01*
X10367801Y-18100460D02*
X10358277Y-18090936D01*
X10358277Y-18090936D02*
X10348753Y-18071889D01*
X10348753Y-18071889D02*
X10339229Y-18033793D01*
X10339229Y-18033793D02*
X10339229Y-17986174D01*
X10339229Y-17986174D02*
X10348753Y-17948079D01*
X10348753Y-17948079D02*
X10358277Y-17929031D01*
X10358277Y-17929031D02*
X10367801Y-17919508D01*
X10367801Y-17919508D02*
X10386848Y-17909984D01*
X10634468Y-17909984D02*
X10539229Y-17909984D01*
X10539229Y-17909984D02*
X10529706Y-18005222D01*
X10529706Y-18005222D02*
X10539229Y-17995698D01*
X10539229Y-17995698D02*
X10558277Y-17986174D01*
X10558277Y-17986174D02*
X10605896Y-17986174D01*
X10605896Y-17986174D02*
X10624944Y-17995698D01*
X10624944Y-17995698D02*
X10634468Y-18005222D01*
X10634468Y-18005222D02*
X10643991Y-18024270D01*
X10643991Y-18024270D02*
X10643991Y-18071889D01*
X10643991Y-18071889D02*
X10634468Y-18090936D01*
X10634468Y-18090936D02*
X10624944Y-18100460D01*
X10624944Y-18100460D02*
X10605896Y-18109984D01*
X10605896Y-18109984D02*
X10558277Y-18109984D01*
X10558277Y-18109984D02*
X10539229Y-18100460D01*
X10539229Y-18100460D02*
X10529706Y-18090936D01*
X10739229Y-18109984D02*
X10777325Y-18109984D01*
X10777325Y-18109984D02*
X10796372Y-18100460D01*
X10796372Y-18100460D02*
X10805896Y-18090936D01*
X10805896Y-18090936D02*
X10824944Y-18062365D01*
X10824944Y-18062365D02*
X10834468Y-18024270D01*
X10834468Y-18024270D02*
X10834468Y-17948079D01*
X10834468Y-17948079D02*
X10824944Y-17929031D01*
X10824944Y-17929031D02*
X10815420Y-17919508D01*
X10815420Y-17919508D02*
X10796372Y-17909984D01*
X10796372Y-17909984D02*
X10758277Y-17909984D01*
X10758277Y-17909984D02*
X10739229Y-17919508D01*
X10739229Y-17919508D02*
X10729706Y-17929031D01*
X10729706Y-17929031D02*
X10720182Y-17948079D01*
X10720182Y-17948079D02*
X10720182Y-17995698D01*
X10720182Y-17995698D02*
X10729706Y-18014746D01*
X10729706Y-18014746D02*
X10739229Y-18024270D01*
X10739229Y-18024270D02*
X10758277Y-18033793D01*
X10758277Y-18033793D02*
X10796372Y-18033793D01*
X10796372Y-18033793D02*
X10815420Y-18024270D01*
X10815420Y-18024270D02*
X10824944Y-18014746D01*
X10824944Y-18014746D02*
X10834468Y-17995698D01*
X11024944Y-18109984D02*
X10910658Y-18109984D01*
X10967801Y-18109984D02*
X10967801Y-17909984D01*
X10967801Y-17909984D02*
X10948753Y-17938555D01*
X10948753Y-17938555D02*
X10929706Y-17957603D01*
X10929706Y-17957603D02*
X10910658Y-17967127D01*
X11101134Y-17909984D02*
X11101134Y-17948079D01*
X11177325Y-17909984D02*
X11177325Y-17948079D01*
X11472563Y-18186174D02*
X11463039Y-18176650D01*
X11463039Y-18176650D02*
X11443991Y-18148079D01*
X11443991Y-18148079D02*
X11434468Y-18129031D01*
X11434468Y-18129031D02*
X11424944Y-18100460D01*
X11424944Y-18100460D02*
X11415420Y-18052841D01*
X11415420Y-18052841D02*
X11415420Y-18014746D01*
X11415420Y-18014746D02*
X11424944Y-17967127D01*
X11424944Y-17967127D02*
X11434468Y-17938555D01*
X11434468Y-17938555D02*
X11443991Y-17919508D01*
X11443991Y-17919508D02*
X11463039Y-17890936D01*
X11463039Y-17890936D02*
X11472563Y-17881412D01*
X11539229Y-17929031D02*
X11548753Y-17919508D01*
X11548753Y-17919508D02*
X11567801Y-17909984D01*
X11567801Y-17909984D02*
X11615420Y-17909984D01*
X11615420Y-17909984D02*
X11634468Y-17919508D01*
X11634468Y-17919508D02*
X11643991Y-17929031D01*
X11643991Y-17929031D02*
X11653515Y-17948079D01*
X11653515Y-17948079D02*
X11653515Y-17967127D01*
X11653515Y-17967127D02*
X11643991Y-17995698D01*
X11643991Y-17995698D02*
X11529706Y-18109984D01*
X11529706Y-18109984D02*
X11653515Y-18109984D01*
X11891610Y-18109984D02*
X11891610Y-17909984D01*
X11977325Y-18109984D02*
X11977325Y-18005222D01*
X11977325Y-18005222D02*
X11967801Y-17986174D01*
X11967801Y-17986174D02*
X11948753Y-17976650D01*
X11948753Y-17976650D02*
X11920182Y-17976650D01*
X11920182Y-17976650D02*
X11901134Y-17986174D01*
X11901134Y-17986174D02*
X11891610Y-17995698D01*
X12101134Y-18109984D02*
X12082087Y-18100460D01*
X12082087Y-18100460D02*
X12072563Y-18090936D01*
X12072563Y-18090936D02*
X12063039Y-18071889D01*
X12063039Y-18071889D02*
X12063039Y-18014746D01*
X12063039Y-18014746D02*
X12072563Y-17995698D01*
X12072563Y-17995698D02*
X12082087Y-17986174D01*
X12082087Y-17986174D02*
X12101134Y-17976650D01*
X12101134Y-17976650D02*
X12129706Y-17976650D01*
X12129706Y-17976650D02*
X12148753Y-17986174D01*
X12148753Y-17986174D02*
X12158277Y-17995698D01*
X12158277Y-17995698D02*
X12167801Y-18014746D01*
X12167801Y-18014746D02*
X12167801Y-18071889D01*
X12167801Y-18071889D02*
X12158277Y-18090936D01*
X12158277Y-18090936D02*
X12148753Y-18100460D01*
X12148753Y-18100460D02*
X12129706Y-18109984D01*
X12129706Y-18109984D02*
X12101134Y-18109984D01*
X12282087Y-18109984D02*
X12263039Y-18100460D01*
X12263039Y-18100460D02*
X12253515Y-18081412D01*
X12253515Y-18081412D02*
X12253515Y-17909984D01*
X12434468Y-18100460D02*
X12415420Y-18109984D01*
X12415420Y-18109984D02*
X12377325Y-18109984D01*
X12377325Y-18109984D02*
X12358277Y-18100460D01*
X12358277Y-18100460D02*
X12348753Y-18081412D01*
X12348753Y-18081412D02*
X12348753Y-18005222D01*
X12348753Y-18005222D02*
X12358277Y-17986174D01*
X12358277Y-17986174D02*
X12377325Y-17976650D01*
X12377325Y-17976650D02*
X12415420Y-17976650D01*
X12415420Y-17976650D02*
X12434468Y-17986174D01*
X12434468Y-17986174D02*
X12443991Y-18005222D01*
X12443991Y-18005222D02*
X12443991Y-18024270D01*
X12443991Y-18024270D02*
X12348753Y-18043317D01*
X12520182Y-18100460D02*
X12539230Y-18109984D01*
X12539230Y-18109984D02*
X12577325Y-18109984D01*
X12577325Y-18109984D02*
X12596372Y-18100460D01*
X12596372Y-18100460D02*
X12605896Y-18081412D01*
X12605896Y-18081412D02*
X12605896Y-18071889D01*
X12605896Y-18071889D02*
X12596372Y-18052841D01*
X12596372Y-18052841D02*
X12577325Y-18043317D01*
X12577325Y-18043317D02*
X12548753Y-18043317D01*
X12548753Y-18043317D02*
X12529706Y-18033793D01*
X12529706Y-18033793D02*
X12520182Y-18014746D01*
X12520182Y-18014746D02*
X12520182Y-18005222D01*
X12520182Y-18005222D02*
X12529706Y-17986174D01*
X12529706Y-17986174D02*
X12548753Y-17976650D01*
X12548753Y-17976650D02*
X12577325Y-17976650D01*
X12577325Y-17976650D02*
X12596372Y-17986174D01*
X12672563Y-18186174D02*
X12682087Y-18176650D01*
X12682087Y-18176650D02*
X12701134Y-18148079D01*
X12701134Y-18148079D02*
X12710658Y-18129031D01*
X12710658Y-18129031D02*
X12720182Y-18100460D01*
X12720182Y-18100460D02*
X12729706Y-18052841D01*
X12729706Y-18052841D02*
X12729706Y-18014746D01*
X12729706Y-18014746D02*
X12720182Y-17967127D01*
X12720182Y-17967127D02*
X12710658Y-17938555D01*
X12710658Y-17938555D02*
X12701134Y-17919508D01*
X12701134Y-17919508D02*
X12682087Y-17890936D01*
X12682087Y-17890936D02*
X12672563Y-17881412D01*
X7868211Y-18359211D02*
X7868211Y-18217789D01*
X7726789Y-18217789D01*
X7726789Y-18359211D01*
X7868211Y-18359211D01*
X7897500Y-18288500D02*
G75*
G02*
X7697500Y-18288500I-100000J0D01*
G01*
X7697500Y-18288500D02*
G75*
G02*
X7897500Y-18288500I100000J0D01*
G01*
X8148753Y-18199031D02*
X8158277Y-18189508D01*
X8158277Y-18189508D02*
X8177324Y-18179984D01*
X8177324Y-18179984D02*
X8224943Y-18179984D01*
X8224943Y-18179984D02*
X8243991Y-18189508D01*
X8243991Y-18189508D02*
X8253515Y-18199031D01*
X8253515Y-18199031D02*
X8263039Y-18218079D01*
X8263039Y-18218079D02*
X8263039Y-18237127D01*
X8263039Y-18237127D02*
X8253515Y-18265698D01*
X8253515Y-18265698D02*
X8139229Y-18379984D01*
X8139229Y-18379984D02*
X8263039Y-18379984D01*
X8348753Y-18360936D02*
X8358277Y-18370460D01*
X8358277Y-18370460D02*
X8348753Y-18379984D01*
X8348753Y-18379984D02*
X8339229Y-18370460D01*
X8339229Y-18370460D02*
X8348753Y-18360936D01*
X8348753Y-18360936D02*
X8348753Y-18379984D01*
X8548753Y-18379984D02*
X8434467Y-18379984D01*
X8491610Y-18379984D02*
X8491610Y-18179984D01*
X8491610Y-18179984D02*
X8472563Y-18208555D01*
X8472563Y-18208555D02*
X8453515Y-18227603D01*
X8453515Y-18227603D02*
X8434467Y-18237127D01*
X8672563Y-18179984D02*
X8691610Y-18179984D01*
X8691610Y-18179984D02*
X8710658Y-18189508D01*
X8710658Y-18189508D02*
X8720182Y-18199031D01*
X8720182Y-18199031D02*
X8729705Y-18218079D01*
X8729705Y-18218079D02*
X8739229Y-18256174D01*
X8739229Y-18256174D02*
X8739229Y-18303793D01*
X8739229Y-18303793D02*
X8729705Y-18341889D01*
X8729705Y-18341889D02*
X8720182Y-18360936D01*
X8720182Y-18360936D02*
X8710658Y-18370460D01*
X8710658Y-18370460D02*
X8691610Y-18379984D01*
X8691610Y-18379984D02*
X8672563Y-18379984D01*
X8672563Y-18379984D02*
X8653515Y-18370460D01*
X8653515Y-18370460D02*
X8643991Y-18360936D01*
X8643991Y-18360936D02*
X8634467Y-18341889D01*
X8634467Y-18341889D02*
X8624944Y-18303793D01*
X8624944Y-18303793D02*
X8624944Y-18256174D01*
X8624944Y-18256174D02*
X8634467Y-18218079D01*
X8634467Y-18218079D02*
X8643991Y-18199031D01*
X8643991Y-18199031D02*
X8653515Y-18189508D01*
X8653515Y-18189508D02*
X8672563Y-18179984D01*
X8863039Y-18179984D02*
X8882086Y-18179984D01*
X8882086Y-18179984D02*
X8901134Y-18189508D01*
X8901134Y-18189508D02*
X8910658Y-18199031D01*
X8910658Y-18199031D02*
X8920182Y-18218079D01*
X8920182Y-18218079D02*
X8929705Y-18256174D01*
X8929705Y-18256174D02*
X8929705Y-18303793D01*
X8929705Y-18303793D02*
X8920182Y-18341889D01*
X8920182Y-18341889D02*
X8910658Y-18360936D01*
X8910658Y-18360936D02*
X8901134Y-18370460D01*
X8901134Y-18370460D02*
X8882086Y-18379984D01*
X8882086Y-18379984D02*
X8863039Y-18379984D01*
X8863039Y-18379984D02*
X8843991Y-18370460D01*
X8843991Y-18370460D02*
X8834467Y-18360936D01*
X8834467Y-18360936D02*
X8824944Y-18341889D01*
X8824944Y-18341889D02*
X8815420Y-18303793D01*
X8815420Y-18303793D02*
X8815420Y-18256174D01*
X8815420Y-18256174D02*
X8824944Y-18218079D01*
X8824944Y-18218079D02*
X8834467Y-18199031D01*
X8834467Y-18199031D02*
X8843991Y-18189508D01*
X8843991Y-18189508D02*
X8863039Y-18179984D01*
X9015420Y-18379984D02*
X9015420Y-18246650D01*
X9015420Y-18265698D02*
X9024944Y-18256174D01*
X9024944Y-18256174D02*
X9043991Y-18246650D01*
X9043991Y-18246650D02*
X9072563Y-18246650D01*
X9072563Y-18246650D02*
X9091610Y-18256174D01*
X9091610Y-18256174D02*
X9101134Y-18275222D01*
X9101134Y-18275222D02*
X9101134Y-18379984D01*
X9101134Y-18275222D02*
X9110658Y-18256174D01*
X9110658Y-18256174D02*
X9129705Y-18246650D01*
X9129705Y-18246650D02*
X9158277Y-18246650D01*
X9158277Y-18246650D02*
X9177325Y-18256174D01*
X9177325Y-18256174D02*
X9186848Y-18275222D01*
X9186848Y-18275222D02*
X9186848Y-18379984D01*
X9282086Y-18379984D02*
X9282086Y-18246650D01*
X9282086Y-18265698D02*
X9291610Y-18256174D01*
X9291610Y-18256174D02*
X9310658Y-18246650D01*
X9310658Y-18246650D02*
X9339229Y-18246650D01*
X9339229Y-18246650D02*
X9358277Y-18256174D01*
X9358277Y-18256174D02*
X9367801Y-18275222D01*
X9367801Y-18275222D02*
X9367801Y-18379984D01*
X9367801Y-18275222D02*
X9377325Y-18256174D01*
X9377325Y-18256174D02*
X9396372Y-18246650D01*
X9396372Y-18246650D02*
X9424944Y-18246650D01*
X9424944Y-18246650D02*
X9443991Y-18256174D01*
X9443991Y-18256174D02*
X9453515Y-18275222D01*
X9453515Y-18275222D02*
X9453515Y-18379984D01*
X9843991Y-18170460D02*
X9672563Y-18427603D01*
X10101134Y-18179984D02*
X10120182Y-18179984D01*
X10120182Y-18179984D02*
X10139229Y-18189508D01*
X10139229Y-18189508D02*
X10148753Y-18199031D01*
X10148753Y-18199031D02*
X10158277Y-18218079D01*
X10158277Y-18218079D02*
X10167801Y-18256174D01*
X10167801Y-18256174D02*
X10167801Y-18303793D01*
X10167801Y-18303793D02*
X10158277Y-18341889D01*
X10158277Y-18341889D02*
X10148753Y-18360936D01*
X10148753Y-18360936D02*
X10139229Y-18370460D01*
X10139229Y-18370460D02*
X10120182Y-18379984D01*
X10120182Y-18379984D02*
X10101134Y-18379984D01*
X10101134Y-18379984D02*
X10082087Y-18370460D01*
X10082087Y-18370460D02*
X10072563Y-18360936D01*
X10072563Y-18360936D02*
X10063039Y-18341889D01*
X10063039Y-18341889D02*
X10053515Y-18303793D01*
X10053515Y-18303793D02*
X10053515Y-18256174D01*
X10053515Y-18256174D02*
X10063039Y-18218079D01*
X10063039Y-18218079D02*
X10072563Y-18199031D01*
X10072563Y-18199031D02*
X10082087Y-18189508D01*
X10082087Y-18189508D02*
X10101134Y-18179984D01*
X10253515Y-18360936D02*
X10263039Y-18370460D01*
X10263039Y-18370460D02*
X10253515Y-18379984D01*
X10253515Y-18379984D02*
X10243991Y-18370460D01*
X10243991Y-18370460D02*
X10253515Y-18360936D01*
X10253515Y-18360936D02*
X10253515Y-18379984D01*
X10386848Y-18179984D02*
X10405896Y-18179984D01*
X10405896Y-18179984D02*
X10424944Y-18189508D01*
X10424944Y-18189508D02*
X10434468Y-18199031D01*
X10434468Y-18199031D02*
X10443991Y-18218079D01*
X10443991Y-18218079D02*
X10453515Y-18256174D01*
X10453515Y-18256174D02*
X10453515Y-18303793D01*
X10453515Y-18303793D02*
X10443991Y-18341889D01*
X10443991Y-18341889D02*
X10434468Y-18360936D01*
X10434468Y-18360936D02*
X10424944Y-18370460D01*
X10424944Y-18370460D02*
X10405896Y-18379984D01*
X10405896Y-18379984D02*
X10386848Y-18379984D01*
X10386848Y-18379984D02*
X10367801Y-18370460D01*
X10367801Y-18370460D02*
X10358277Y-18360936D01*
X10358277Y-18360936D02*
X10348753Y-18341889D01*
X10348753Y-18341889D02*
X10339229Y-18303793D01*
X10339229Y-18303793D02*
X10339229Y-18256174D01*
X10339229Y-18256174D02*
X10348753Y-18218079D01*
X10348753Y-18218079D02*
X10358277Y-18199031D01*
X10358277Y-18199031D02*
X10367801Y-18189508D01*
X10367801Y-18189508D02*
X10386848Y-18179984D01*
X10567801Y-18265698D02*
X10548753Y-18256174D01*
X10548753Y-18256174D02*
X10539229Y-18246650D01*
X10539229Y-18246650D02*
X10529706Y-18227603D01*
X10529706Y-18227603D02*
X10529706Y-18218079D01*
X10529706Y-18218079D02*
X10539229Y-18199031D01*
X10539229Y-18199031D02*
X10548753Y-18189508D01*
X10548753Y-18189508D02*
X10567801Y-18179984D01*
X10567801Y-18179984D02*
X10605896Y-18179984D01*
X10605896Y-18179984D02*
X10624944Y-18189508D01*
X10624944Y-18189508D02*
X10634468Y-18199031D01*
X10634468Y-18199031D02*
X10643991Y-18218079D01*
X10643991Y-18218079D02*
X10643991Y-18227603D01*
X10643991Y-18227603D02*
X10634468Y-18246650D01*
X10634468Y-18246650D02*
X10624944Y-18256174D01*
X10624944Y-18256174D02*
X10605896Y-18265698D01*
X10605896Y-18265698D02*
X10567801Y-18265698D01*
X10567801Y-18265698D02*
X10548753Y-18275222D01*
X10548753Y-18275222D02*
X10539229Y-18284746D01*
X10539229Y-18284746D02*
X10529706Y-18303793D01*
X10529706Y-18303793D02*
X10529706Y-18341889D01*
X10529706Y-18341889D02*
X10539229Y-18360936D01*
X10539229Y-18360936D02*
X10548753Y-18370460D01*
X10548753Y-18370460D02*
X10567801Y-18379984D01*
X10567801Y-18379984D02*
X10605896Y-18379984D01*
X10605896Y-18379984D02*
X10624944Y-18370460D01*
X10624944Y-18370460D02*
X10634468Y-18360936D01*
X10634468Y-18360936D02*
X10643991Y-18341889D01*
X10643991Y-18341889D02*
X10643991Y-18303793D01*
X10643991Y-18303793D02*
X10634468Y-18284746D01*
X10634468Y-18284746D02*
X10624944Y-18275222D01*
X10624944Y-18275222D02*
X10605896Y-18265698D01*
X10720182Y-18199031D02*
X10729706Y-18189508D01*
X10729706Y-18189508D02*
X10748753Y-18179984D01*
X10748753Y-18179984D02*
X10796372Y-18179984D01*
X10796372Y-18179984D02*
X10815420Y-18189508D01*
X10815420Y-18189508D02*
X10824944Y-18199031D01*
X10824944Y-18199031D02*
X10834468Y-18218079D01*
X10834468Y-18218079D02*
X10834468Y-18237127D01*
X10834468Y-18237127D02*
X10824944Y-18265698D01*
X10824944Y-18265698D02*
X10710658Y-18379984D01*
X10710658Y-18379984D02*
X10834468Y-18379984D01*
X10901134Y-18179984D02*
X11034468Y-18179984D01*
X11034468Y-18179984D02*
X10948753Y-18379984D01*
X11101134Y-18179984D02*
X11101134Y-18218079D01*
X11177325Y-18179984D02*
X11177325Y-18218079D01*
X11472563Y-18456174D02*
X11463039Y-18446650D01*
X11463039Y-18446650D02*
X11443991Y-18418079D01*
X11443991Y-18418079D02*
X11434468Y-18399031D01*
X11434468Y-18399031D02*
X11424944Y-18370460D01*
X11424944Y-18370460D02*
X11415420Y-18322841D01*
X11415420Y-18322841D02*
X11415420Y-18284746D01*
X11415420Y-18284746D02*
X11424944Y-18237127D01*
X11424944Y-18237127D02*
X11434468Y-18208555D01*
X11434468Y-18208555D02*
X11443991Y-18189508D01*
X11443991Y-18189508D02*
X11463039Y-18160936D01*
X11463039Y-18160936D02*
X11472563Y-18151412D01*
X11643991Y-18179984D02*
X11548753Y-18179984D01*
X11548753Y-18179984D02*
X11539229Y-18275222D01*
X11539229Y-18275222D02*
X11548753Y-18265698D01*
X11548753Y-18265698D02*
X11567801Y-18256174D01*
X11567801Y-18256174D02*
X11615420Y-18256174D01*
X11615420Y-18256174D02*
X11634468Y-18265698D01*
X11634468Y-18265698D02*
X11643991Y-18275222D01*
X11643991Y-18275222D02*
X11653515Y-18294270D01*
X11653515Y-18294270D02*
X11653515Y-18341889D01*
X11653515Y-18341889D02*
X11643991Y-18360936D01*
X11643991Y-18360936D02*
X11634468Y-18370460D01*
X11634468Y-18370460D02*
X11615420Y-18379984D01*
X11615420Y-18379984D02*
X11567801Y-18379984D01*
X11567801Y-18379984D02*
X11548753Y-18370460D01*
X11548753Y-18370460D02*
X11539229Y-18360936D01*
X11891610Y-18379984D02*
X11891610Y-18179984D01*
X11977325Y-18379984D02*
X11977325Y-18275222D01*
X11977325Y-18275222D02*
X11967801Y-18256174D01*
X11967801Y-18256174D02*
X11948753Y-18246650D01*
X11948753Y-18246650D02*
X11920182Y-18246650D01*
X11920182Y-18246650D02*
X11901134Y-18256174D01*
X11901134Y-18256174D02*
X11891610Y-18265698D01*
X12101134Y-18379984D02*
X12082087Y-18370460D01*
X12082087Y-18370460D02*
X12072563Y-18360936D01*
X12072563Y-18360936D02*
X12063039Y-18341889D01*
X12063039Y-18341889D02*
X12063039Y-18284746D01*
X12063039Y-18284746D02*
X12072563Y-18265698D01*
X12072563Y-18265698D02*
X12082087Y-18256174D01*
X12082087Y-18256174D02*
X12101134Y-18246650D01*
X12101134Y-18246650D02*
X12129706Y-18246650D01*
X12129706Y-18246650D02*
X12148753Y-18256174D01*
X12148753Y-18256174D02*
X12158277Y-18265698D01*
X12158277Y-18265698D02*
X12167801Y-18284746D01*
X12167801Y-18284746D02*
X12167801Y-18341889D01*
X12167801Y-18341889D02*
X12158277Y-18360936D01*
X12158277Y-18360936D02*
X12148753Y-18370460D01*
X12148753Y-18370460D02*
X12129706Y-18379984D01*
X12129706Y-18379984D02*
X12101134Y-18379984D01*
X12282087Y-18379984D02*
X12263039Y-18370460D01*
X12263039Y-18370460D02*
X12253515Y-18351412D01*
X12253515Y-18351412D02*
X12253515Y-18179984D01*
X12434468Y-18370460D02*
X12415420Y-18379984D01*
X12415420Y-18379984D02*
X12377325Y-18379984D01*
X12377325Y-18379984D02*
X12358277Y-18370460D01*
X12358277Y-18370460D02*
X12348753Y-18351412D01*
X12348753Y-18351412D02*
X12348753Y-18275222D01*
X12348753Y-18275222D02*
X12358277Y-18256174D01*
X12358277Y-18256174D02*
X12377325Y-18246650D01*
X12377325Y-18246650D02*
X12415420Y-18246650D01*
X12415420Y-18246650D02*
X12434468Y-18256174D01*
X12434468Y-18256174D02*
X12443991Y-18275222D01*
X12443991Y-18275222D02*
X12443991Y-18294270D01*
X12443991Y-18294270D02*
X12348753Y-18313317D01*
X12520182Y-18370460D02*
X12539230Y-18379984D01*
X12539230Y-18379984D02*
X12577325Y-18379984D01*
X12577325Y-18379984D02*
X12596372Y-18370460D01*
X12596372Y-18370460D02*
X12605896Y-18351412D01*
X12605896Y-18351412D02*
X12605896Y-18341889D01*
X12605896Y-18341889D02*
X12596372Y-18322841D01*
X12596372Y-18322841D02*
X12577325Y-18313317D01*
X12577325Y-18313317D02*
X12548753Y-18313317D01*
X12548753Y-18313317D02*
X12529706Y-18303793D01*
X12529706Y-18303793D02*
X12520182Y-18284746D01*
X12520182Y-18284746D02*
X12520182Y-18275222D01*
X12520182Y-18275222D02*
X12529706Y-18256174D01*
X12529706Y-18256174D02*
X12548753Y-18246650D01*
X12548753Y-18246650D02*
X12577325Y-18246650D01*
X12577325Y-18246650D02*
X12596372Y-18256174D01*
X12672563Y-18456174D02*
X12682087Y-18446650D01*
X12682087Y-18446650D02*
X12701134Y-18418079D01*
X12701134Y-18418079D02*
X12710658Y-18399031D01*
X12710658Y-18399031D02*
X12720182Y-18370460D01*
X12720182Y-18370460D02*
X12729706Y-18322841D01*
X12729706Y-18322841D02*
X12729706Y-18284746D01*
X12729706Y-18284746D02*
X12720182Y-18237127D01*
X12720182Y-18237127D02*
X12710658Y-18208555D01*
X12710658Y-18208555D02*
X12701134Y-18189508D01*
X12701134Y-18189508D02*
X12682087Y-18160936D01*
X12682087Y-18160936D02*
X12672563Y-18151412D01*
M02*
